fira-sans_heavy.sfdir
StartChar: exclam
Encoding: 33 33 2122
Width: 240
Flags: MW
HStem: -20 21G<91.5 148.5> -20 206<91.5 148.5> 676 20G<16 224 224 224>
VStem: 16 208<696 696> 17 206<55 111>
LayerCount: 2
Back
Fore
SplineSet
224 696 m 1xb0
 198 270 l 1
 42 270 l 1
 16 696 l 1
 224 696 l 1xb0
120 186 m 0x68
 177 186 223 139 223 83 c 0
 223 27 177 -20 120 -20 c 0
 63 -20 17 27 17 83 c 0
 17 139 63 186 120 186 c 0x68
EndSplineSet
EndChar

StartChar: quotedbl
Encoding: 34 34 991
Width: 464
Flags: MW
HStem: 406 290<62 188 62 62 276 276 276 402>
VStem: 40 384<696 696>
LayerCount: 2
Fore
SplineSet
40 696 m 1
 210 696 l 1
 188 406 l 1
 62 406 l 1
 40 696 l 1
254 696 m 1
 424 696 l 1
 402 406 l 1
 276 406 l 1
 254 696 l 1
EndSplineSet
EndChar

StartChar: ampersand
Encoding: 38 38 1219
Width: 807
Flags: MW
HStem: -20 136<317.5 347.5> 593 123<307.5 336>
VStem: 47 209<169 205.5 169 219> 85 189<529.5 558 529.5 585> 365 188<529.5 560.5>
LayerCount: 2
Fore
SplineSet
319 716 m 0xe8
 470 716 553 644 553 551 c 0
 553 468 504 413 425 358 c 1
 536 255 l 1
 552 290 565 333 576 383 c 1
 736 336 l 1
 710 264 679 205 643 157 c 1
 769 49 l 1
 593 -20 l 1
 526 44 l 1
 459 -2 386 -20 309 -20 c 0
 151 -20 47 59 47 179 c 0xe8
 47 259 87 311 180 372 c 1
 105 446 85 483 85 542 c 0xd8
 85 628 157 716 319 716 c 0xe8
322 593 m 0xd8
 293 593 274 574 274 542 c 0
 274 517 279 501 318 461 c 1
 353 487 365 512 365 547 c 0
 365 574 350 593 322 593 c 0xd8
292 266 m 1xe8
 266 244 256 220 256 191 c 0
 256 147 289 116 346 116 c 0
 378 116 406 122 431 134 c 1
 292 266 l 1xe8
EndSplineSet
EndChar
StartChar: quotesingle
Encoding: 39 39 2130
Width: 250
Flags: MW
HStem: 406 290<62 62 62 188>
VStem: 40 170<696 696>
LayerCount: 2
Back
Fore
SplineSet
62 406 m 1
 40 696 l 1
 210 696 l 1
 188 406 l 1
 62 406 l 1
EndSplineSet
EndChar
StartChar: parenleft
Encoding: 40 40 2154
Width: 325
Flags: MW
HStem: -167 1034<203 203>
VStem: 5 198<266.5 433.5>
LayerCount: 2
Back
Fore
SplineSet
203 867 m 1
 330 782 l 1
 236 650 203 517 203 350 c 0
 203 183 236 50 330 -82 c 1
 203 -167 l 1
 101 -29 5 110 5 350 c 0
 5 590 101 729 203 867 c 1
EndSplineSet
Substitution2: "'case' Case-Sensitive Forms lookup 28 subtable" parenleft.case
Substitution2: "'dnom' Denominators lookup 16 subtable" parenleft.dnom
Substitution2: "'numr' Numerators lookup 15 subtable" parenleft.numr
Substitution2: "'sups' Superscript lookup 14 subtable" uni207D
Substitution2: "'subs' Subscript lookup 13 subtable" uni208D
AlternateSubs2: "'aalt' Access All Alternates lookup 1 subtable" uni208D uni207D parenleft.numr parenleft.dnom parenleft.case
EndChar

StartChar: parenright
Encoding: 41 41 1008
Width: 325
Flags: MW
HStem: -167 1034<122 122>
VStem: 122 198<266.5 433.5>
LayerCount: 2
Fore
SplineSet
122 867 m 1
 224 729 320 590 320 350 c 0
 320 110 224 -29 122 -167 c 1
 -5 -82 l 1
 89 50 122 183 122 350 c 0
 122 517 89 650 -5 782 c 1
 122 867 l 1
EndSplineSet
Substitution2: "'case' Case-Sensitive Forms lookup 25 subtable" parenright.case
Substitution2: "'dnom' Denominators lookup 14 subtable" parenright.dnom
Substitution2: "'numr' Numerators lookup 13 subtable" parenright.numr
Substitution2: "'sups' Superscript lookup 12 subtable" parenrightsuperior
Substitution2: "'subs' Subscript lookup 11 subtable" uni208E
AlternateSubs2: "'aalt' Access All Alternates lookup 1 subtable" uni208E parenrightsuperior parenright.numr parenright.dnom parenright.case
EndChar

StartChar: asterisk
Encoding: 42 42 978
Width: 455
Flags: MW
HStem: 724 20G<146 310 310 310>
VStem: 0 455<519 520>
LayerCount: 2
Fore
SplineSet
321 502 m 1
 420 409 l 1
 287 312 l 1
 228 435 l 1
 170 311 l 1
 37 408 l 1
 135 502 l 1
 0 519 l 1
 51 672 l 1
 170 608 l 1
 146 744 l 1
 310 744 l 1
 286 608 l 1
 404 673 l 1
 455 520 l 1
 321 502 l 1
EndSplineSet
EndChar
StartChar: plus
Encoding: 43 43 2296
Width: 550
GlyphClass: 2
Flags: MW
HStem: 257 150<40 195 40 195 355 510>
VStem: 195 160<97 257 97 257 407 567>
LayerCount: 2
Back
Fore
SplineSet
355 567 m 1
 355 407 l 1
 510 407 l 1
 510 257 l 1
 355 257 l 1
 355 97 l 1
 195 97 l 1
 195 257 l 1
 40 257 l 1
 40 407 l 1
 195 407 l 1
 195 567 l 1
 355 567 l 1
EndSplineSet
Substitution2: "'onum' Oldstyle Figures lookup 25 subtable" plus.osf
Substitution2: "'tnum' Tabular Numbers lookup 24 subtable" plus.tf
Substitution2: "'dnom' Denominators lookup 16 subtable" plus.dnom
Substitution2: "'numr' Numerators lookup 15 subtable" plus.numr
Substitution2: "'sups' Superscript lookup 14 subtable" uni207A
Substitution2: "'subs' Subscript lookup 13 subtable" uni208A
AlternateSubs2: "'aalt' Access All Alternates lookup 1 subtable" uni208A uni207A plus.numr plus.dnom plus.tf plus.osf
EndChar

StartChar: comma
Encoding: 44 44 983
Width: 240
Flags: MW
HStem: -1 21G<63 63>
VStem: 17 206<66 112.5 65.5 113>
LayerCount: 2
Fore
SplineSet
120 186 m 0
 179 186 223 142 223 83 c 0
 223 48 210 17 183 -44 c 2
 121 -184 l 1
 19 -184 l 1
 63 -1 l 1
 33 18 17 48 17 84 c 0
 17 142 61 186 120 186 c 0
EndSplineSet
EndChar

StartChar: hyphen
Encoding: 45 45 1025
Width: 410
Flags: MW
HStem: 238 150<35 375 35 375>
VStem: 35 340<238 388 238 388>
LayerCount: 2
Fore
SplineSet
35 388 m 1
 375 388 l 1
 375 238 l 1
 35 238 l 1
 35 388 l 1
EndSplineSet
Substitution2: "'case' Case-Sensitive Forms lookup 25 subtable" hyphen.case
Substitution2: "'aalt' Access All Alternates lookup 0 subtable" hyphen.case
EndChar

StartChar: period
Encoding: 46 46 988
Width: 240
Flags: MW
HStem: -20 206<91.5 148.5>
VStem: 17 206<55 111>
LayerCount: 2
Fore
SplineSet
120 186 m 0
 177 186 223 139 223 83 c 0
 223 27 177 -20 120 -20 c 0
 63 -20 17 27 17 83 c 0
 17 139 63 186 120 186 c 0
EndSplineSet
EndChar
StartChar: slash
Encoding: 47 47 2132
Width: 520
Flags: MW
HStem: -117 939<229 292>
VStem: 54 412
LayerCount: 2
Back
Fore
SplineSet
292 822 m 1
 466 782 l 1
 229 -117 l 1
 54 -77 l 1
 292 822 l 1
EndSplineSet
Substitution2: "'frac' Diagonal Fractions lookup 17 subtable" fraction
Substitution2: "'aalt' Access All Alternates lookup 0 subtable" fraction
EndChar
StartChar: zero
Encoding: 48 48 2011
Width: 602
Flags: MW
HStem: -20 144<273.5 328.5 273.5 389> 553 143<273.5 328.5>
VStem: 27 202<254.5 423 254.5 454> 373 202<251.5 427>
LayerCount: 2
Back
Fore
SplineSet
301 696 m 0
 477 696 575 569 575 339 c 0
 575 110 477 -20 301 -20 c 0
 125 -20 27 110 27 339 c 0
 27 569 125 696 301 696 c 0
301 553 m 0
 246 553 229 507 229 339 c 0
 229 170 246 124 301 124 c 0
 356 124 373 164 373 339 c 0
 373 515 356 553 301 553 c 0
EndSplineSet
Substitution2: "'zero' Slashed Zero lookup 31 subtable" zero.zero
Substitution2: "'onum' Oldstyle Figures lookup 25 subtable" zero.osf
Substitution2: "'tnum' Tabular Numbers lookup 24 subtable" zero.tf
Substitution2: "'frac' Diagonal Fractions lookup 18 subtable" zero.numr
Substitution2: "'dnom' Denominators lookup 16 subtable" zero.dnom
Substitution2: "'numr' Numerators lookup 15 subtable" zero.numr
Substitution2: "'sups' Superscript lookup 14 subtable" uni2070
Substitution2: "'subs' Subscript lookup 13 subtable" uni2080
AlternateSubs2: "'aalt' Access All Alternates lookup 1 subtable" uni2080 uni2070 zero.numr zero.dnom zero.tf zero.osf zero.zero
EndChar
StartChar: one
Encoding: 49 49 2012
Width: 482
Flags: MW
HStem: 0 21G<225 417 225 225> 516 20G<0 0>
VStem: 225 192<0 492 492 492>
LayerCount: 2
Back
Fore
SplineSet
417 680 m 1
 417 0 l 1
 225 0 l 1
 225 492 l 1
 86 407 l 1
 0 536 l 1
 241 680 l 1
 417 680 l 1
EndSplineSet
Substitution2: "'onum' Oldstyle Figures lookup 25 subtable" one.osf
Substitution2: "'tnum' Tabular Numbers lookup 24 subtable" one.tf
Substitution2: "'frac' Diagonal Fractions lookup 18 subtable" one.numr
Substitution2: "'dnom' Denominators lookup 16 subtable" one.dnom
Substitution2: "'numr' Numerators lookup 15 subtable" one.numr
Substitution2: "'sups' Superscript lookup 14 subtable" uni00B9
Substitution2: "'subs' Subscript lookup 13 subtable" uni2081
AlternateSubs2: "'aalt' Access All Alternates lookup 1 subtable" uni2081 uni00B9 one.numr one.dnom one.tf one.osf
EndChar

StartChar: two
Encoding: 50 50 879
Width: 530
Flags: MW
HStem: 0 148<247 490> 548 148<199.5 244.5>
VStem: 294 202<450.5 497.5>
LayerCount: 2
Fore
SplineSet
244 696 m 0
 412 696 496 603 496 497 c 0
 496 404 462 332 247 148 c 1
 510 148 l 1
 490 0 l 1
 23 0 l 1
 23 136 l 1
 244 346 294 406 294 475 c 0
 294 520 267 548 222 548 c 0
 177 548 144 526 108 480 c 1
 -5 570 l 1
 49 644 133 696 244 696 c 0
EndSplineSet
Substitution2: "'onum' Oldstyle Figures lookup 22 subtable" two.osf
Substitution2: "'tnum' Tabular Numbers lookup 21 subtable" two.tf
Substitution2: "'frac' Diagonal Fractions lookup 16 subtable" two.numr
Substitution2: "'dnom' Denominators lookup 14 subtable" two.dnom
Substitution2: "'numr' Numerators lookup 13 subtable" two.numr
Substitution2: "'sups' Superscript lookup 12 subtable" twosuperior
Substitution2: "'subs' Subscript lookup 11 subtable" twoinferior
AlternateSubs2: "'aalt' Access All Alternates lookup 1 subtable" twoinferior twosuperior two.numr two.dnom two.tf two.osf
EndChar
StartChar: three
Encoding: 51 51 2014
Width: 532
Flags: MW
HStem: -20 148<196.5 246.5 196.5 328> 289 132<175 213 153 216> 553 143<198 245.5>
VStem: 299 190<483.5 510.5> 310 202<180 234.5>
LayerCount: 2
Back
Fore
SplineSet
247 696 m 0xf0
 405 696 489 622 489 524 c 0xf0
 489 443 443 386 355 359 c 1
 439 349 512 301 512 189 c 0
 512 79 420 -20 236 -20 c 0
 120 -20 39 24 -15 90 c 1
 88 191 l 1
 134 147 171 128 222 128 c 0
 271 128 310 154 310 206 c 0
 310 263 279 289 213 289 c 2xe8
 153 289 l 1
 175 421 l 1
 216 421 l 2
 272 421 299 448 299 490 c 0
 299 531 269 553 222 553 c 0
 174 553 131 532 94 496 c 1
 -3 598 l 1
 63 662 147 696 247 696 c 0xf0
EndSplineSet
Substitution2: "'onum' Oldstyle Figures lookup 25 subtable" three.osf
Substitution2: "'tnum' Tabular Numbers lookup 24 subtable" three.tf
Substitution2: "'frac' Diagonal Fractions lookup 18 subtable" three.numr
Substitution2: "'dnom' Denominators lookup 16 subtable" three.dnom
Substitution2: "'numr' Numerators lookup 15 subtable" three.numr
Substitution2: "'sups' Superscript lookup 14 subtable" uni00B3
Substitution2: "'subs' Subscript lookup 13 subtable" uni2083
AlternateSubs2: "'aalt' Access All Alternates lookup 1 subtable" uni2083 uni00B3 three.numr three.dnom three.tf three.osf
EndChar
StartChar: four
Encoding: 52 52 2015
Width: 585
Flags: MW
HStem: 0 21G<306 500 306 306> 134 146<223 305 500 570> 681 20G<207 207>
VStem: 305.5 194.5
LayerCount: 2
Back
Fore
SplineSet
570 280 m 1
 570 134 l 1
 500 134 l 1
 500 0 l 1
 306 0 l 1
 305 134 l 1
 20 134 l 1
 20 263 l 1
 207 701 l 1
 376 641 l 1
 223 280 l 1
 307 280 l 1
 330 428 l 1
 500 428 l 1
 500 280 l 1
 570 280 l 1
EndSplineSet
Substitution2: "'onum' Oldstyle Figures lookup 25 subtable" four.osf
Substitution2: "'tnum' Tabular Numbers lookup 24 subtable" four.tf
Substitution2: "'frac' Diagonal Fractions lookup 18 subtable" four.numr
Substitution2: "'dnom' Denominators lookup 16 subtable" four.dnom
Substitution2: "'numr' Numerators lookup 15 subtable" four.numr
Substitution2: "'sups' Superscript lookup 14 subtable" uni2074
Substitution2: "'subs' Subscript lookup 13 subtable" uni2084
AlternateSubs2: "'aalt' Access All Alternates lookup 1 subtable" uni2084 uni2074 four.numr four.dnom four.tf four.osf
EndChar
StartChar: five
Encoding: 53 53 2016
Width: 557
Flags: MW
HStem: -20 146<211 266.5 211 333.5> 323 131<240 390> 542 138<240 475 240 240>
VStem: 50 190<433 542 433 680 433 680> 330 202<193 262>
LayerCount: 2
Back
Fore
SplineSet
496 680 m 1
 475 542 l 1
 240 542 l 1
 240 433 l 1
 273 448 306 454 335 454 c 0
 445 454 532 373 532 229 c 0
 532 80 421 -20 246 -20 c 0
 133 -20 56 29 5 93 c 1
 114 192 l 1
 144 152 185 126 237 126 c 0
 296 126 330 160 330 226 c 0
 330 298 299 323 251 323 c 0
 229 323 208 317 179 299 c 1
 50 299 l 1
 50 680 l 1
 496 680 l 1
EndSplineSet
Substitution2: "'onum' Oldstyle Figures lookup 25 subtable" five.osf
Substitution2: "'tnum' Tabular Numbers lookup 24 subtable" five.tf
Substitution2: "'frac' Diagonal Fractions lookup 18 subtable" five.numr
Substitution2: "'dnom' Denominators lookup 16 subtable" five.dnom
Substitution2: "'numr' Numerators lookup 15 subtable" five.numr
Substitution2: "'sups' Superscript lookup 14 subtable" uni2075
Substitution2: "'subs' Subscript lookup 13 subtable" uni2085
AlternateSubs2: "'aalt' Access All Alternates lookup 1 subtable" uni2085 uni2075 five.numr five.dnom five.tf five.osf
EndChar
StartChar: six
Encoding: 54 54 2017
Width: 582
Flags: MW
HStem: -20 138<278 327.5 278 388.5> 333 131<295.5 427> 560 136<322 370.5>
VStem: 27 208<234 303 234 423.5> 369 198<197.5 270>
LayerCount: 2
Back
Fore
SplineSet
368 464 m 0
 486 464 567 377 567 233 c 0
 567 101 474 -20 303 -20 c 0
 113 -20 27 110 27 306 c 0
 27 541 149 696 347 696 c 0
 416 696 472 676 510 650 c 1
 439 535 l 1
 413 550 388 560 353 560 c 0
 291 560 247 515 235 416 c 1
 276 449 323 464 368 464 c 0
305 118 m 0
 350 118 369 163 369 232 c 0
 369 308 351 333 306 333 c 0
 285 333 260 324 235 303 c 1
 235 165 251 118 305 118 c 0
EndSplineSet
Substitution2: "'onum' Oldstyle Figures lookup 25 subtable" six.osf
Substitution2: "'tnum' Tabular Numbers lookup 24 subtable" six.tf
Substitution2: "'frac' Diagonal Fractions lookup 18 subtable" six.numr
Substitution2: "'dnom' Denominators lookup 16 subtable" six.dnom
Substitution2: "'numr' Numerators lookup 15 subtable" six.numr
Substitution2: "'sups' Superscript lookup 14 subtable" uni2076
Substitution2: "'subs' Subscript lookup 13 subtable" uni2086
AlternateSubs2: "'aalt' Access All Alternates lookup 1 subtable" uni2086 uni2076 six.numr six.dnom six.tf six.osf
EndChar

StartChar: seven
Encoding: 55 55 884
Width: 482
Flags: MW
HStem: -20 21G<225 225> 534 146<5 264 5 472>
VStem: 5 467<550 550 550 680 550 680>
LayerCount: 2
Fore
SplineSet
472 550 m 1
 225 -20 l 1
 46 40 l 1
 264 534 l 1
 5 534 l 1
 5 680 l 1
 472 680 l 1
 472 550 l 1
EndSplineSet
Substitution2: "'onum' Oldstyle Figures lookup 22 subtable" seven.osf
Substitution2: "'tnum' Tabular Numbers lookup 21 subtable" seven.tf
Substitution2: "'frac' Diagonal Fractions lookup 16 subtable" seven.numr
Substitution2: "'dnom' Denominators lookup 14 subtable" seven.dnom
Substitution2: "'numr' Numerators lookup 13 subtable" seven.numr
Substitution2: "'sups' Superscript lookup 12 subtable" sevensuperior
Substitution2: "'subs' Subscript lookup 11 subtable" seveninferior
AlternateSubs2: "'aalt' Access All Alternates lookup 1 subtable" seveninferior sevensuperior seven.numr seven.dnom seven.tf seven.osf
EndChar

StartChar: nine
Encoding: 57 57 886
Width: 582
Flags: MW
HStem: 229 134<160 292.5> 560 136<265 315.5>
VStem: 15 198<424 498 424 527> 359 203
LayerCount: 2
Fore
SplineSet
288 696 m 0
 469 696 562 585 562 433 c 0
 562 158 417 20 102 -32 c 1
 63 104 l 1
 233 140 307 182 346 283 c 1
 310 247 273 229 213 229 c 0
 107 229 15 314 15 456 c 0
 15 598 132 696 288 696 c 0
279 363 m 0
 306 363 336 376 359 408 c 1
 360 521 345 560 286 560 c 0
 244 560 213 530 213 466 c 0
 213 382 245 363 279 363 c 0
EndSplineSet
Substitution2: "'onum' Oldstyle Figures lookup 22 subtable" nine.osf
Substitution2: "'tnum' Tabular Numbers lookup 21 subtable" nine.tf
Substitution2: "'frac' Diagonal Fractions lookup 16 subtable" nine.numr
Substitution2: "'dnom' Denominators lookup 14 subtable" nine.dnom
Substitution2: "'numr' Numerators lookup 13 subtable" nine.numr
Substitution2: "'sups' Superscript lookup 12 subtable" ninesuperior
Substitution2: "'subs' Subscript lookup 11 subtable" nineinferior
AlternateSubs2: "'aalt' Access All Alternates lookup 1 subtable" nineinferior ninesuperior nine.numr nine.dnom nine.tf nine.osf
EndChar
StartChar: colon
Encoding: 58 58 2118
Width: 240
Flags: MW
HStem: -20 21G<91.5 148.5> -20 206<91.5 148.5> 312 206<91.5 148.5>
VStem: 17 206<55 111 387 443>
LayerCount: 2
Back
Fore
SplineSet
120 518 m 0xb0
 177 518 223 471 223 415 c 0
 223 359 177 312 120 312 c 0
 63 312 17 359 17 415 c 0
 17 471 63 518 120 518 c 0xb0
120 186 m 0x70
 177 186 223 139 223 83 c 0
 223 27 177 -20 120 -20 c 0
 63 -20 17 27 17 83 c 0
 17 139 63 186 120 186 c 0x70
EndSplineSet
EndChar

StartChar: semicolon
Encoding: 59 59 993
Width: 240
Flags: MW
HStem: -1 21G<63 63> 312 206<91.5 148.5>
VStem: 17 206<66 112.5 65.5 113 387 443>
LayerCount: 2
Fore
SplineSet
120 518 m 0
 177 518 223 471 223 415 c 0
 223 359 177 312 120 312 c 0
 63 312 17 359 17 415 c 0
 17 471 63 518 120 518 c 0
120 186 m 0
 179 186 223 142 223 83 c 0
 223 48 210 17 183 -44 c 2
 121 -184 l 1
 19 -184 l 1
 63 -1 l 1
 33 18 17 48 17 84 c 0
 17 142 61 186 120 186 c 0
EndSplineSet
EndChar

StartChar: less
Encoding: 60 60 1101
Width: 530
Flags: MW
HStem: 571 20G<445 445>
VStem: 25 480<215 416 215 416>
LayerCount: 2
Fore
SplineSet
505 459 m 1
 196 333 l 1
 505 215 l 1
 445 75 l 1
 25 249 l 1
 25 416 l 1
 445 591 l 1
 505 459 l 1
EndSplineSet
Substitution2: "'onum' Oldstyle Figures lookup 22 subtable" less.osf
Substitution2: "'tnum' Tabular Numbers lookup 21 subtable" less.tf
AlternateSubs2: "'aalt' Access All Alternates lookup 1 subtable" less.tf less.osf
EndChar

StartChar: equal
Encoding: 61 61 1093
Width: 530
Flags: MW
HStem: 147 150<40 490 40 490> 367 150<40 490 40 490>
VStem: 40 450<147 297 147 297 367 517 147 517>
LayerCount: 2
Fore
SplineSet
40 517 m 1
 490 517 l 1
 490 367 l 1
 40 367 l 1
 40 517 l 1
40 297 m 1
 490 297 l 1
 490 147 l 1
 40 147 l 1
 40 297 l 1
EndSplineSet
Substitution2: "'onum' Oldstyle Figures lookup 22 subtable" equal.osf
Substitution2: "'tnum' Tabular Numbers lookup 21 subtable" equal.tf
Substitution2: "'dnom' Denominators lookup 14 subtable" equal.dnom
Substitution2: "'numr' Numerators lookup 13 subtable" equal.numr
Substitution2: "'sups' Superscript lookup 12 subtable" equalsuperior
AlternateSubs2: "'aalt' Access All Alternates lookup 1 subtable" equalsuperior equal.numr equal.dnom equal.tf equal.osf
EndChar

StartChar: greater
Encoding: 62 62 1096
Width: 530
Flags: MW
HStem: 571 20G<85 85>
VStem: 25 480<215 416 249 459>
LayerCount: 2
Fore
SplineSet
505 416 m 1
 505 249 l 1
 85 75 l 1
 25 215 l 1
 334 333 l 1
 25 459 l 1
 85 591 l 1
 505 416 l 1
EndSplineSet
Substitution2: "'onum' Oldstyle Figures lookup 22 subtable" greater.osf
Substitution2: "'tnum' Tabular Numbers lookup 21 subtable" greater.tf
AlternateSubs2: "'aalt' Access All Alternates lookup 1 subtable" greater.tf greater.osf
EndChar
StartChar: question
Encoding: 63 63 2127
Width: 495
Flags: MW
HStem: -20 21G<195.5 252.5> -20 206<195.5 252.5> 562 154<214.5 248.5>
VStem: 121 206<55 111> 135 176<270 283 270 289 270 377> 283 207<490 535.5>
LayerCount: 2
Back
Fore
SplineSet
254 716 m 0xa4
 412 716 490 636 490 542 c 0xa4
 490 378 311 384 311 283 c 2
 311 270 l 1
 135 270 l 1
 135 289 l 2xa8
 135 465 283 457 283 523 c 0
 283 548 265 562 232 562 c 0
 197 562 161 543 128 508 c 1
 5 604 l 1
 61 670 139 716 254 716 c 0xa4
224 186 m 0x70
 281 186 327 139 327 83 c 0
 327 27 281 -20 224 -20 c 0
 167 -20 121 27 121 83 c 0
 121 139 167 186 224 186 c 0x70
EndSplineSet
EndChar
StartChar: at
Encoding: 64 64 2372
Width: 1020
GlyphClass: 2
Flags: MW
HStem: -227 141<422 560.5 422 567> 1 115<730.5 763 730.5 819.5> 6 119<486 509> 389 120<502 522> 577 139<421.5 627.5>
VStem: 35 173<139.5 344 139.5 382.5> 286 174<189.5 297 189.5 313.5> 546 165<181 222 222 383 383 383> 814 171<236.5 400.5>
LayerCount: 2
Back
Fore
SplineSet
528 509 m 0xdf80
 584 509 657 491 711 461 c 1
 711 222 l 2
 711 140 716 116 745 116 c 0
 781 116 814 154 814 319 c 0
 814 482 729 577 526 577 c 0
 317 577 208 444 208 244 c 0
 208 35 316 -86 528 -86 c 0
 593 -86 677 -70 727 -51 c 1
 772 -183 l 1
 711 -208 607 -227 527 -227 c 0
 224 -227 35 -44 35 243 c 0
 35 522 245 716 527 716 c 0
 815 716 985 524 985 321 c 0
 985 129 885 1 754 1 c 0xdf80
 676 1 628 52 618 102 c 1
 592 42 543 6 475 6 c 0xbf80
 335 6 286 107 286 234 c 0
 286 393 366 509 528 509 c 0xdf80
501 125 m 0xbf80
 520 125 536 135 546 153 c 1
 546 383 l 1
 534 388 527 389 517 389 c 0
 487 389 460 361 460 233 c 0
 460 146 471 125 501 125 c 0xbf80
EndSplineSet
EndChar

StartChar: C
Encoding: 67 67 14
Width: 584
GlyphClass: 2
Flags: MW
HStem: -20 155<324.5 390.5 324.5 403> 568 148<321 384>
VStem: 20 214<276.5 423.5 276.5 466>
AnchorPoint: "Anchor-11" 339 0 basechar 0
AnchorPoint: "Anchor-10" 0 0 basechar 0
AnchorPoint: "Anchor-9" 358 696 basechar 0
AnchorPoint: "Anchor-8" 0 0 basechar 0
LayerCount: 2
Fore
SplineSet
348 716 m 0
 445 716 517 685 576 634 c 1
 478 519 l 1
 445 549 408 568 360 568 c 0
 282 568 234 497 234 350 c 0
 234 203 283 135 366 135 c 0
 415 135 453 161 494 193 c 1
 584 77 l 1
 533 26 452 -20 354 -20 c 0
 151 -20 20 109 20 350 c 0
 20 582 156 716 348 716 c 0
EndSplineSet
Substitution2: "'c2sc' Capitals to Small Capitals lookup 23 subtable" c.sc
Substitution2: "'aalt' Access All Alternates lookup 0 subtable" c.sc
Position2: "'cpsp' Capital Spacing lookup 0 subtable" dx=5 dy=0 dh=10 dv=0
EndChar

StartChar: D
Encoding: 68 68 20
Width: 656
GlyphClass: 2
Flags: MW
HStem: 0 145<249 278> 551 145<249 249 249 266 266 291>
VStem: 43 206<145 551 145 696 145 696> 424 212<272 430>
AnchorPoint: "Anchor-11" 0 0 basechar 0
AnchorPoint: "Anchor-10" 0 0 basechar 0
AnchorPoint: "Anchor-9" 291 696 basechar 0
AnchorPoint: "Anchor-8" 0 0 basechar 0
LayerCount: 2
Fore
SplineSet
266 696 m 2
 457 696 636 637 636 351 c 0
 636 73 472 0 278 0 c 2
 43 0 l 1
 43 696 l 1
 266 696 l 2
249 551 m 1
 249 145 l 1
 290 145 l 2
 383 145 424 193 424 351 c 0
 424 509 379 551 291 551 c 2
 249 551 l 1
EndSplineSet
Substitution2: "'c2sc' Capitals to Small Capitals lookup 23 subtable" d.sc
Substitution2: "'aalt' Access All Alternates lookup 0 subtable" d.sc
Position2: "'cpsp' Capital Spacing lookup 0 subtable" dx=5 dy=0 dh=10 dv=0
EndChar

StartChar: F
Encoding: 70 70 34
Width: 485
GlyphClass: 2
Flags: MW
HStem: 0 21G<43 249 43 43> 258 143<249 438 249 438> 553 143<249 464 249 249>
VStem: 43 206<0 258 401 553>
LayerCount: 2
Fore
SplineSet
464 553 m 1
 249 553 l 1
 249 401 l 1
 438 401 l 1
 438 258 l 1
 249 258 l 1
 249 0 l 1
 43 0 l 1
 43 696 l 1
 485 696 l 1
 464 553 l 1
EndSplineSet
Substitution2: "'c2sc' Capitals to Small Capitals lookup 23 subtable" f.sc
Substitution2: "'aalt' Access All Alternates lookup 0 subtable" f.sc
Position2: "'cpsp' Capital Spacing lookup 0 subtable" dx=5 dy=0 dh=10 dv=0
EndChar

StartChar: J
Encoding: 74 74 54
Width: 325
GlyphClass: 2
Flags: MW
HStem: 676 20G<78 284 284 284>
VStem: 78 206<118 696>
AnchorPoint: "Anchor-11" 0 0 basechar 0
AnchorPoint: "Anchor-10" 0 0 basechar 0
AnchorPoint: "Anchor-9" 181 696 basechar 0
AnchorPoint: "Anchor-8" 0 0 basechar 0
LayerCount: 2
Fore
SplineSet
284 111 m 2
 284 -83 156 -149 35 -189 c 1
 -20 -44 l 1
 69 -10 78 41 78 118 c 2
 78 696 l 1
 284 696 l 1
 284 111 l 2
EndSplineSet
Substitution2: "'c2sc' Capitals to Small Capitals lookup 23 subtable" j.sc
Substitution2: "'aalt' Access All Alternates lookup 0 subtable" j.sc
Position2: "'cpsp' Capital Spacing lookup 0 subtable" dx=5 dy=0 dh=10 dv=0
EndChar
StartChar: L
Encoding: 76 76 144
Width: 522
GlyphClass: 2
Flags: MW
HStem: 0 158<249 491> 676 20G<43 249 249 249>
VStem: 43 206<158 696 158 696 158 696>
AnchorPoint: "Anchor-14" 403 404 basechar 0
AnchorPoint: "Anchor-13" 259 696 basechar 0
AnchorPoint: "Anchor-12" 146 696 basechar 0
AnchorPoint: "Anchor-11" 0 0 basechar 0
AnchorPoint: "Anchor-10" 267 0 basechar 0
LayerCount: 2
Back
Fore
SplineSet
249 696 m 1
 249 158 l 1
 512 158 l 1
 491 0 l 1
 43 0 l 1
 43 696 l 1
 249 696 l 1
EndSplineSet
Substitution2: "'c2sc' Capitals to Small Capitals lookup 26 subtable" l.sc
Substitution2: "'aalt' Access All Alternates lookup 0 subtable" l.sc
Position2: "'cpsp' Capital Spacing lookup 0 subtable" dx=5 dy=0 dh=10 dv=0
EndChar

StartChar: N
Encoding: 78 78 65
Width: 651
GlyphClass: 2
Flags: MW
HStem: 0 21G<43 225 43 43 350 608 350 350> 676 20G<43 296 296 296 426 608 608 608>
VStem: 43 182<0 216 0 696> 426 182<473 696>
AnchorPoint: "Anchor-11" 326 0 basechar 0
AnchorPoint: "Anchor-10" 0 0 basechar 0
AnchorPoint: "Anchor-9" 326 696 basechar 0
AnchorPoint: "Anchor-8" 0 0 basechar 0
LayerCount: 2
Fore
SplineSet
608 0 m 1
 350 0 l 1
 198 508 l 1
 208 441 225 345 225 216 c 2
 225 0 l 1
 43 0 l 1
 43 696 l 1
 296 696 l 1
 454 186 l 1
 441 267 426 347 426 473 c 2
 426 696 l 1
 608 696 l 1
 608 0 l 1
EndSplineSet
Substitution2: "'c2sc' Capitals to Small Capitals lookup 23 subtable" n.sc
Substitution2: "'aalt' Access All Alternates lookup 0 subtable" n.sc
Position2: "'cpsp' Capital Spacing lookup 0 subtable" dx=5 dy=0 dh=10 dv=0
EndChar
StartChar: Q
Encoding: 81 81 223
Width: 690
GlyphClass: 2
Flags: MW
HStem: -16 64 -16 142<306 385 306 396> 570 146<306 384>
VStem: 20 214<268.5 429.5 268.5 462> 456 214<268.5 429.5>
LayerCount: 2
Back
Fore
SplineSet
504 48 m 1xb8
 601 48 661 29 720 -15 c 1
 599 -173 l 1
 543 -100 462 -16 330 -16 c 0x78
 136 -16 20 118 20 349 c 0
 20 575 136 716 345 716 c 0
 554 716 670 580 670 349 c 0
 670 182 582 94 504 48 c 1xb8
234 349 m 0x78
 234 188 267 126 345 126 c 0
 425 126 456 188 456 349 c 0
 456 510 423 570 345 570 c 0
 267 570 234 510 234 349 c 0x78
EndSplineSet
Substitution2: "'c2sc' Capitals to Small Capitals lookup 26 subtable" q.sc
Substitution2: "'aalt' Access All Alternates lookup 0 subtable" q.sc
Position2: "'cpsp' Capital Spacing lookup 0 subtable" dx=5 dy=0 dh=10 dv=0
EndChar
StartChar: U
Encoding: 85 85 262
Width: 644
GlyphClass: 2
Flags: MW
HStem: -20 148<292 352 292 420> 676 20G<33 239 239 239 405 611 611 611>
VStem: 33 206<236 242 242 696> 405 206<242 696>
AnchorPoint: "Anchor-14" 0 0 basechar 0
AnchorPoint: "Anchor-13" 621 696 basechar 0
AnchorPoint: "Anchor-12" 322 696 basechar 0
AnchorPoint: "Anchor-11" 460 0 basechar 0
AnchorPoint: "Anchor-10" 322 0 basechar 0
LayerCount: 2
Back
Fore
SplineSet
611 696 m 1
 611 236 l 2
 611 94 518 -20 322 -20 c 0
 126 -20 33 84 33 236 c 2
 33 696 l 1
 239 696 l 1
 239 242 l 2
 239 165 262 128 322 128 c 0
 382 128 405 165 405 242 c 2
 405 696 l 1
 611 696 l 1
EndSplineSet
Substitution2: "'c2sc' Capitals to Small Capitals lookup 26 subtable" u.sc
Substitution2: "'aalt' Access All Alternates lookup 0 subtable" u.sc
Position2: "'cpsp' Capital Spacing lookup 0 subtable" dx=5 dy=0 dh=10 dv=0
EndChar

StartChar: V
Encoding: 86 86 112
Width: 579
GlyphClass: 2
Flags: MW
HStem: 0 21G<162 428 162 162> 0 143<298 298 298 428 162 298> 676 20G<-25 192 192 192 393 604 604 604>
VStem: -25 629<696 696>
LayerCount: 2
Fore
SplineSet
428 0 m 1xb0
 162 0 l 1
 -25 696 l 1
 192 696 l 1
 298 143 l 1x70
 393 696 l 1
 604 696 l 1
 428 0 l 1xb0
EndSplineSet
Substitution2: "'c2sc' Capitals to Small Capitals lookup 23 subtable" v.sc
Substitution2: "'aalt' Access All Alternates lookup 0 subtable" v.sc
Position2: "'cpsp' Capital Spacing lookup 0 subtable" dx=5 dy=0 dh=10 dv=0
EndChar

StartChar: Z
Encoding: 90 90 124
Width: 557
GlyphClass: 2
Flags: MW
HStem: 0 161<256 522> 540 156<38 296 38 533>
VStem: 10 532<0 161 151 161>
AnchorPoint: "Anchor-11" 0 0 basechar 0
AnchorPoint: "Anchor-10" 0 0 basechar 0
AnchorPoint: "Anchor-9" 279 696 basechar 0
AnchorPoint: "Anchor-8" 0 0 basechar 0
LayerCount: 2
Fore
SplineSet
533 543 m 1
 256 161 l 1
 542 161 l 1
 522 0 l 1
 10 0 l 1
 10 151 l 1
 296 540 l 1
 38 540 l 1
 38 696 l 1
 533 696 l 1
 533 543 l 1
EndSplineSet
Substitution2: "'c2sc' Capitals to Small Capitals lookup 23 subtable" z.sc
Substitution2: "'aalt' Access All Alternates lookup 0 subtable" z.sc
Position2: "'cpsp' Capital Spacing lookup 0 subtable" dx=5 dy=0 dh=10 dv=0
EndChar

StartChar: bracketleft
Encoding: 91 91 1005
Width: 325
Flags: MW
HStem: -127 142<203 315 203 315> 684 143<203 315 203 203>
VStem: 15 188<15 684 15 827 15 827>
LayerCount: 2
Fore
SplineSet
315 684 m 1
 203 684 l 1
 203 15 l 1
 315 15 l 1
 315 -127 l 1
 15 -127 l 1
 15 827 l 1
 315 827 l 1
 315 684 l 1
EndSplineSet
Substitution2: "'case' Case-Sensitive Forms lookup 25 subtable" bracketleft.case
Substitution2: "'aalt' Access All Alternates lookup 0 subtable" bracketleft.case
EndChar

StartChar: backslash
Encoding: 92 92 979
Width: 520
Flags: MW
HStem: -117 939<228 291>
VStem: 54 412
LayerCount: 2
Fore
SplineSet
466 -77 m 1
 291 -117 l 1
 54 782 l 1
 228 822 l 1
 466 -77 l 1
EndSplineSet
EndChar
StartChar: bracketright
Encoding: 93 93 2143
Width: 325
Flags: MW
HStem: -127 143<10 122 10 310 10 122> 685 142<10 122 10 310>
VStem: 122 188<16 685 685 685>
LayerCount: 2
Back
Fore
SplineSet
310 827 m 1
 310 -127 l 1
 10 -127 l 1
 10 16 l 1
 122 16 l 1
 122 685 l 1
 10 685 l 1
 10 827 l 1
 310 827 l 1
EndSplineSet
Substitution2: "'case' Case-Sensitive Forms lookup 28 subtable" bracketright.case
Substitution2: "'aalt' Access All Alternates lookup 0 subtable" bracketright.case
EndChar

StartChar: asciicircum
Encoding: 94 94 1228
Width: 570
Flags: MW
HStem: 705 142<284 284>
VStem: 5 560<527 527>
LayerCount: 2
Fore
SplineSet
565 527 m 1
 376 527 l 1
 284 705 l 1
 198 527 l 1
 5 527 l 1
 194 847 l 1
 376 847 l 1
 565 527 l 1
EndSplineSet
EndChar

StartChar: underscore
Encoding: 95 95 995
Width: 520
Flags: MW
HStem: -188 150<5 515 5 515>
VStem: 5 510<-188 -38 -188 -38>
LayerCount: 2
Fore
SplineSet
5 -38 m 1
 515 -38 l 1
 515 -188 l 1
 5 -188 l 1
 5 -38 l 1
EndSplineSet
EndChar
StartChar: grave
Encoding: 96 96 2531
Width: 364
Flags: MW
HStem: 692 20G<30 30 334 334>
VStem: 30 304<712 712>
LayerCount: 2
Back
Fore
SplineSet
104 856 m 1
 334 712 l 1
 281 613 l 1
 30 712 l 1
 104 856 l 1
EndSplineSet
Substitution2: "Single Substitution lookup 41 subtable" grave.case
Substitution2: "'case' Case-Sensitive Forms lookup 28 subtable" grave.case
Substitution2: "'smcp' Lowercase to Small Capitals lookup 27 subtable" grave.sc
Substitution2: "'c2sc' Capitals to Small Capitals lookup 26 subtable" grave.sc
AlternateSubs2: "'aalt' Access All Alternates lookup 1 subtable" grave.sc grave.case
EndChar

StartChar: b
Encoding: 98 98 146
Width: 599
GlyphClass: 2
Flags: MW
HStem: -20 141<291.5 430.5> 0 121<42 325> 412 142<298 444> 534 20G<350 444> 724 20G<42 42> 744 20G
VStem: 42 198<160 362 487 744 744 744> 374 203<210 328.5>
LayerCount: 2
Fore
SplineSet
375 554 m 0x57
 513 554 577 445 577 266 c 0
 577 103 498 -20 363 -20 c 0
 304 -20 256 5 225 46 c 1x97
 218 0 l 1
 42 0 l 1
 42 744 l 1x5b
 240 764 l 1
 240 487 l 1
 269 527 325 554 375 554 c 0x57
305 121 m 0
 345 121 374 154 374 266 c 0
 374 391 346 412 311 412 c 0
 285 412 260 398 240 362 c 1x67
 240 160 l 1
 256 133 278 121 305 121 c 0
EndSplineSet
Substitution2: "'smcp' Lowercase to Small Capitals lookup 24 subtable" b.sc
Substitution2: "'aalt' Access All Alternates lookup 0 subtable" b.sc
EndChar

StartChar: d
Encoding: 100 100 153
Width: 601
GlyphClass: 2
Flags: MW
HStem: -20 142<155.5 306.5> 0 21G<383 559 383 383> 413 141<179 315> 724 20G<559 559> 744 20G
VStem: 22 203<204 322 204 353> 361 198<169 383 383 383 512 744 0 764 0 764>
LayerCount: 2
Fore
SplineSet
559 744 m 1x76
 559 0 l 1
 383 0 l 1x6e
 376 55 l 1
 348 18 302 -20 225 -20 c 0
 86 -20 22 94 22 270 c 0
 22 436 108 554 250 554 c 0
 290 554 331 539 361 512 c 1
 361 764 l 1xae
 559 744 l 1x76
294 122 m 0xae
 319 122 342 136 361 169 c 1
 361 383 l 1
 343 402 327 413 303 413 c 0
 259 413 225 376 225 268 c 0
 225 140 256 122 294 122 c 0xae
EndSplineSet
Substitution2: "'smcp' Lowercase to Small Capitals lookup 24 subtable" d.sc
Substitution2: "'aalt' Access All Alternates lookup 0 subtable" d.sc
EndChar
StartChar: i
Encoding: 105 105 478
Width: 282
GlyphClass: 2
Flags: MW
HStem: 0 21G<42 240 42 42> 514 20G<42 240 240 240> 617 212<108.5 173.5>
VStem: 30 222<693 753> 42 198<0 534 0 534>
AnchorPoint: "Anchor-14" 0 0 basechar 0
AnchorPoint: "Anchor-13" 0 0 basechar 0
AnchorPoint: "Anchor-12" 143 829 basechar 0
AnchorPoint: "Anchor-11" 210 0 basechar 0
AnchorPoint: "Anchor-10" 141 0 basechar 0
LayerCount: 2
Back
Fore
SplineSet
141 829 m 0xf0
 206 829 252 783 252 723 c 0
 252 663 206 617 141 617 c 0
 76 617 30 663 30 723 c 0
 30 783 76 829 141 829 c 0xf0
240 534 m 1xe8
 240 0 l 1
 42 0 l 1
 42 534 l 1
 240 534 l 1xe8
EndSplineSet
Substitution2: "'smcp' Lowercase to Small Capitals lookup 27 subtable" i.sc
Substitution2: "'locl' Localized Forms in Latin lookup 10 subtable" i.loclTRK
Substitution2: "'locl' Localized Forms in Latin lookup 8 subtable" i.loclTRK
Substitution2: "'locl' Localized Forms in Latin lookup 6 subtable" i.loclTRK
Substitution2: "'locl' Localized Forms in Latin lookup 3 subtable" i.loclTRK
Substitution2: "'locl' Localized Forms in Latin lookup 2 subtable" i.loclTRK
AlternateSubs2: "'aalt' Access All Alternates lookup 1 subtable" i.loclTRK i.sc
EndChar
StartChar: j
Encoding: 106 106 498
Width: 282
GlyphClass: 2
Flags: MW
HStem: -227 21G<-2 -2> 514 20G<42 240 240 240> 617 212<108.5 173.5>
VStem: 30 222<693 753> 42 198<65 77 77 534>
AnchorPoint: "Anchor-14" 0 0 basechar 0
AnchorPoint: "Anchor-13" 0 0 basechar 0
AnchorPoint: "Anchor-12" 143 829 basechar 0
AnchorPoint: "Anchor-11" 0 0 basechar 0
AnchorPoint: "Anchor-10" 141 -215 basechar 0
LayerCount: 2
Back
Fore
SplineSet
141 829 m 0xf0
 206 829 252 783 252 723 c 0
 252 663 206 617 141 617 c 0
 76 617 30 663 30 723 c 0
 30 783 76 829 141 829 c 0xf0
240 534 m 1xe8
 240 77 l 2
 240 -111 130 -184 -2 -227 c 1
 -70 -83 l 1
 -3 -52 42 -22 42 65 c 2
 42 534 l 1
 240 534 l 1xe8
EndSplineSet
Substitution2: "'smcp' Lowercase to Small Capitals lookup 27 subtable" j.sc
Substitution2: "'aalt' Access All Alternates lookup 0 subtable" j.sc
EndChar

StartChar: k
Encoding: 107 107 191
Width: 576
GlyphClass: 2
Flags: MW
HStem: 0 21G<42 240 42 42 372 372 372 591> 514 20G<387 583 583 583> 724 20G<42 42> 744 20G
VStem: 42 198<0 744 744 744>
AnchorPoint: "Anchor-11" 288 0 basechar 0
AnchorPoint: "Anchor-10" 0 0 basechar 0
AnchorPoint: "Anchor-9" 0 0 basechar 0
AnchorPoint: "Anchor-8" 0 0 basechar 0
LayerCount: 2
Fore
SplineSet
240 0 m 1xd8
 42 0 l 1
 42 744 l 1xe8
 240 764 l 1
 240 0 l 1xd8
442 300 m 1
 591 0 l 1
 372 0 l 1
 244 292 l 1
 387 534 l 1
 583 534 l 1
 442 300 l 1
EndSplineSet
Substitution2: "'smcp' Lowercase to Small Capitals lookup 24 subtable" k.sc
Substitution2: "'aalt' Access All Alternates lookup 0 subtable" k.sc
EndChar

StartChar: l
Encoding: 108 108 194
Width: 300
GlyphClass: 2
Flags: MW
HStem: -20 21G<148 220.5> -2 21G<315 315> 724 20G<37 37> 744 20G
VStem: 37 198<159.5 175 175 744 744 744>
AnchorPoint: "Anchor-11" 186 0 basechar 0
AnchorPoint: "Anchor-10" 0 0 basechar 0
AnchorPoint: "Anchor-9" 136 744 basechar 0
AnchorPoint: "Anchor-8" 0 0 basechar 0
LayerCount: 2
Fore
SplineSet
235 175 m 2x58
 235 144 245 135 258 135 c 0
 264 135 274 137 280 139 c 1
 315 -2 l 1
 287 -12 242 -20 199 -20 c 0
 97 -20 37 40 37 151 c 2
 37 744 l 1xa8
 235 764 l 1
 235 175 l 2x58
EndSplineSet
Substitution2: "'smcp' Lowercase to Small Capitals lookup 24 subtable" l.sc
Substitution2: "'aalt' Access All Alternates lookup 0 subtable" l.sc
EndChar
StartChar: n
Encoding: 110 110 536
Width: 572
GlyphClass: 2
Flags: MW
HStem: 0 21G<42 240 42 42 337 535 337 337> 410 124<42 316> 514 20G<42 215 215 215> 534 20G
VStem: 42 198<0 357 0 534 0 534> 337 198<0 358 358 379>
AnchorPoint: "Anchor-14" 0 0 basechar 0
AnchorPoint: "Anchor-13" 0 0 basechar 0
AnchorPoint: "Anchor-12" 291 534 basechar 0
AnchorPoint: "Anchor-11" 0 0 basechar 0
AnchorPoint: "Anchor-10" 286 0 basechar 0
LayerCount: 2
Back
Fore
SplineSet
391 554 m 0x9c
 480 554 535 496 535 394 c 2
 535 0 l 1
 337 0 l 1
 337 358 l 2
 337 400 325 410 307 410 c 0
 286 410 263 393 240 357 c 1xcc
 240 0 l 1
 42 0 l 1
 42 534 l 1
 215 534 l 1xac
 229 479 l 1
 278 531 327 554 391 554 c 0x9c
EndSplineSet
Substitution2: "'smcp' Lowercase to Small Capitals lookup 27 subtable" n.sc
Substitution2: "'aalt' Access All Alternates lookup 0 subtable" n.sc
EndChar
StartChar: p
Encoding: 112 112 596
Width: 599
GlyphClass: 2
Flags: MW
HStem: -227 21G<42 42> -207 21G<240 240> -20 21G<339 428> -20 141<287 428> 412 122<42 326> 514 20G<42 218 218 218> 534 20G
VStem: 42 198<-207 33 -207 158 158 362> 374 203<212 330.5>
AnchorPoint: "Anchor-14" 0 0 basechar 0
AnchorPoint: "Anchor-13" 0 0 basechar 0
AnchorPoint: "Anchor-12" 300 534 basechar 0
AnchorPoint: "Anchor-11" 0 0 basechar 0
AnchorPoint: "Anchor-10" 300 -215 basechar 0
LayerCount: 2
Back
Fore
SplineSet
373 554 m 0x6380
 513 554 577 445 577 269 c 0
 577 103 492 -20 364 -20 c 0
 314 -20 272 -2 240 33 c 1
 240 -207 l 1x6380
 42 -227 l 1
 42 534 l 1
 218 534 l 1xa580
 226 482 l 1
 272 537 330 554 373 554 c 0x6380
299 121 m 0x5980
 343 121 374 158 374 266 c 0
 374 395 346 412 306 412 c 0
 284 412 260 398 240 362 c 1
 240 158 l 1
 258 131 275 121 299 121 c 0x5980
EndSplineSet
Substitution2: "'smcp' Lowercase to Small Capitals lookup 27 subtable" p.sc
Substitution2: "'aalt' Access All Alternates lookup 0 subtable" p.sc
EndChar

StartChar: t
Encoding: 116 116 234
Width: 401
GlyphClass: 2
Flags: MW
HStem: -20 21G<256 281> -20 155<256 309.5> 400 134<-2 62 -2 62 260 360>
VStem: 62 198<197 199 199 400 534 646 646 646>
AnchorPoint: "Anchor-11" 234 0 basechar 0
AnchorPoint: "Anchor-10" 0 0 basechar 0
AnchorPoint: "Anchor-9" 0 0 basechar 0
AnchorPoint: "Anchor-8" 0 0 basechar 0
LayerCount: 2
Fore
SplineSet
416 26 m 1xb0
 372 -5 306 -20 256 -20 c 0
 122 -19 62 56 62 197 c 2
 62 400 l 1
 -2 400 l 1
 -2 534 l 1
 62 534 l 1
 62 646 l 1
 260 669 l 1
 260 534 l 1
 380 534 l 1
 360 400 l 1
 260 400 l 1
 260 199 l 2
 260 149 277 135 302 135 c 0
 317 135 334 139 352 149 c 1x70
 416 26 l 1xb0
EndSplineSet
Substitution2: "'smcp' Lowercase to Small Capitals lookup 24 subtable" t.sc
Substitution2: "'aalt' Access All Alternates lookup 0 subtable" t.sc
EndChar

StartChar: u
Encoding: 117 117 239
Width: 566
GlyphClass: 2
Flags: MW
HStem: -20 21G<134 219.5> 0 21G<351 524 351 351> 0 124<258.5 524 258.5 351> 514 20G<37 235 235 235 326 524 524 524>
VStem: 37 198<155 176 176 534> 326 198<168 534>
AnchorPoint: "Anchor-11" 0 0 basechar 0
AnchorPoint: "Anchor-10" 0 0 basechar 0
AnchorPoint: "Anchor-9" 281 534 basechar 0
AnchorPoint: "Anchor-8" 534 0 basechar 0
LayerCount: 2
Fore
SplineSet
524 0 m 1x5c
 351 0 l 1x5c
 344 58 l 1
 307 6 253 -20 186 -20 c 0x9c
 82 -20 37 48 37 150 c 2
 37 534 l 1
 235 534 l 1
 235 176 l 2
 235 134 249 124 268 124 c 0
 286 124 308 137 326 168 c 1x3c
 326 534 l 1
 524 534 l 1
 524 0 l 1x5c
EndSplineSet
Substitution2: "'smcp' Lowercase to Small Capitals lookup 24 subtable" u.sc
Substitution2: "'aalt' Access All Alternates lookup 0 subtable" u.sc
EndChar

StartChar: v
Encoding: 118 118 250
Width: 526
GlyphClass: 2
Flags: MW
HStem: 0 21G<148 382 148 148> 0 143<267 267 267 382 148 267> 514 20G<-15 200 200 200 341 541 541 541>
VStem: -15 556<534 534>
LayerCount: 2
Fore
SplineSet
382 0 m 1xb0
 148 0 l 1
 -15 534 l 1
 200 534 l 1
 267 143 l 1x70
 341 534 l 1
 541 534 l 1
 382 0 l 1xb0
EndSplineSet
Substitution2: "'smcp' Lowercase to Small Capitals lookup 24 subtable" v.sc
Substitution2: "'aalt' Access All Alternates lookup 0 subtable" v.sc
EndChar
StartChar: w
Encoding: 119 119 694
Width: 768
GlyphClass: 2
Flags: MW
HStem: 0 21G<102 328 102 102 441 668 441 441> 0 151<227 227 227 328 102 227> 358 176<383 383> 514 20G<-5 195 195 195 297 482 482 482 583 773 773 773>
VStem: -5 778<534 534>
AnchorPoint: "Anchor-14" 0 0 basechar 0
AnchorPoint: "Anchor-13" 0 0 basechar 0
AnchorPoint: "Anchor-12" 384 534 basechar 0
AnchorPoint: "Anchor-11" 0 0 basechar 0
AnchorPoint: "Anchor-10" 385 0 basechar 0
LayerCount: 2
Back
Fore
SplineSet
773 534 m 1x98
 668 0 l 1
 441 0 l 1
 383 358 l 1xa8
 328 0 l 1
 102 0 l 1
 -5 534 l 1
 195 534 l 1
 227 151 l 1
 297 534 l 1
 482 534 l 1
 538 151 l 1x58
 583 534 l 1
 773 534 l 1x98
EndSplineSet
Substitution2: "'smcp' Lowercase to Small Capitals lookup 27 subtable" w.sc
Substitution2: "'aalt' Access All Alternates lookup 0 subtable" w.sc
EndChar
StartChar: x
Encoding: 120 120 702
Width: 528
GlyphClass: 2
Flags: MW
HStem: 0 21G<-20 193 -20 -20 327 548 327 327> 514 20G<-6 213 213 213 312 519 519 519>
VStem: -20 568<0 0>
AnchorPoint: "Anchor-14" 0 0 basechar 0
AnchorPoint: "Anchor-13" 0 0 basechar 0
AnchorPoint: "Anchor-12" 263 534 basechar 0
AnchorPoint: "Anchor-11" 0 0 basechar 0
AnchorPoint: "Anchor-10" 260 0 basechar 0
LayerCount: 2
Back
Fore
SplineSet
383 286 m 1
 548 0 l 1
 327 0 l 1
 257 184 l 1
 193 0 l 1
 -20 0 l 1
 143 280 l 1
 -6 534 l 1
 213 534 l 1
 265 377 l 1
 312 534 l 1
 519 534 l 1
 383 286 l 1
EndSplineSet
Substitution2: "'smcp' Lowercase to Small Capitals lookup 27 subtable" x.sc
Substitution2: "'sups' Superscript lookup 14 subtable" uni02E3
AlternateSubs2: "'aalt' Access All Alternates lookup 1 subtable" uni02E3 x.sc
EndChar
StartChar: z
Encoding: 122 122 716
Width: 472
GlyphClass: 2
Flags: MW
HStem: 0 146<236 445> 390 144<25 227 25 455>
VStem: 5 457<0 146 138 146>
AnchorPoint: "Anchor-14" 0 0 basechar 0
AnchorPoint: "Anchor-13" 0 0 basechar 0
AnchorPoint: "Anchor-12" 241 534 basechar 0
AnchorPoint: "Anchor-11" 0 0 basechar 0
AnchorPoint: "Anchor-10" 227 0 basechar 0
LayerCount: 2
Back
Fore
SplineSet
455 534 m 1
 455 397 l 1
 236 146 l 1
 462 146 l 1
 445 0 l 1
 5 0 l 1
 5 138 l 1
 227 390 l 1
 25 390 l 1
 25 534 l 1
 455 534 l 1
EndSplineSet
Substitution2: "'smcp' Lowercase to Small Capitals lookup 27 subtable" z.sc
Substitution2: "'aalt' Access All Alternates lookup 0 subtable" z.sc
EndChar
StartChar: braceleft
Encoding: 123 123 2140
Width: 325
Flags: MW
HStem: -142 134<283 310 283 310> 269 162<0 25.5> 708 134<282.5 310>
VStem: 62 184<515 654 450.5 668 450.5 723.5>
LayerCount: 2
Back
Fore
SplineSet
310 842 m 1
 310 708 l 1
 255 708 246 693 246 654 c 2
 246 500 l 2
 246 401 202 366 125 349 c 1
 200 336 247 297 247 200 c 2
 247 46 l 2
 247 7 256 -8 310 -8 c 1
 310 -142 l 1
 103 -142 62 -78 62 32 c 2
 62 185 l 2
 62 245 51 269 0 269 c 1
 0 431 l 1
 51 431 62 455 62 515 c 2
 62 668 l 2
 62 779 103 842 310 842 c 1
EndSplineSet
Substitution2: "'case' Case-Sensitive Forms lookup 28 subtable" braceleft.case
Substitution2: "'aalt' Access All Alternates lookup 0 subtable" braceleft.case
EndChar

StartChar: bar
Encoding: 124 124 1216
Width: 360
Flags: MW
HStem: -107 919<87 273 87 273>
VStem: 87 186<-107 812>
LayerCount: 2
Fore
SplineSet
273 -107 m 1
 87 -107 l 1
 87 812 l 1
 273 812 l 1
 273 -107 l 1
EndSplineSet
EndChar

StartChar: braceright
Encoding: 125 125 1004
Width: 325
Flags: MW
HStem: -142 134<15 42 15 118.5> 269 162<299.5 325> 708 134<15 42.5>
VStem: 79 184<500 515 515 654 654 668>
LayerCount: 2
Fore
SplineSet
15 842 m 1
 222 842 263 779 263 668 c 2
 263 515 l 2
 263 455 274 431 325 431 c 1
 325 269 l 1
 274 269 263 245 263 185 c 2
 263 32 l 2
 263 -78 222 -142 15 -142 c 1
 15 -8 l 1
 69 -8 78 7 78 46 c 2
 78 200 l 2
 78 297 125 336 200 349 c 1
 123 366 79 401 79 500 c 2
 79 654 l 2
 79 693 70 708 15 708 c 1
 15 842 l 1
EndSplineSet
Substitution2: "'case' Case-Sensitive Forms lookup 25 subtable" braceright.case
Substitution2: "'aalt' Access All Alternates lookup 0 subtable" braceright.case
EndChar
StartChar: asciitilde
Encoding: 126 126 2241
Width: 530
GlyphClass: 2
Flags: MW
HStem: 221 145<330.5 375.5 330.5 395> 281 145<5 228.5 154.5 199.5>
VStem: 5 520<281 366>
LayerCount: 2
Back
Fore
SplineSet
350 221 m 0xa0
 253 221 226 281 173 281 c 0
 136 281 124 257 105 231 c 1
 5 281 l 1
 41 355 90 426 180 426 c 0x60
 277 426 304 366 357 366 c 0
 394 366 406 390 426 414 c 1
 525 366 l 1
 489 292 440 221 350 221 c 0xa0
EndSplineSet
Substitution2: "'onum' Oldstyle Figures lookup 25 subtable" asciitilde.osf
Substitution2: "'tnum' Tabular Numbers lookup 24 subtable" asciitilde.tf
AlternateSubs2: "'aalt' Access All Alternates lookup 1 subtable" asciitilde.tf asciitilde.osf
EndChar
StartChar: exclamdown
Encoding: 161 161 2123
Width: 240
Flags: MW
HStem: -207 21G<16 224 16 16> 312 206<91.5 148.5>
VStem: 17 206<387 443>
LayerCount: 2
Back
Fore
SplineSet
120 518 m 0
 177 518 223 471 223 415 c 0
 223 359 177 312 120 312 c 0
 63 312 17 359 17 415 c 0
 17 471 63 518 120 518 c 0
198 228 m 1
 224 -207 l 1
 16 -207 l 1
 42 228 l 1
 198 228 l 1
EndSplineSet
Substitution2: "'case' Case-Sensitive Forms lookup 28 subtable" exclamdown.case
Substitution2: "'aalt' Access All Alternates lookup 0 subtable" exclamdown.case
EndChar
StartChar: cent
Encoding: 162 162 2198
Width: 479
GlyphClass: 2
Flags: MW
HStem: -15 21G<356 356> -11 21G<221 221> 526 20G<222 222> 529 20G<356 356> 676 20G<222 356 356 356>
VStem: 17 206<209.5 317 209.5 334.5> 221 135<-165 -15 -165 -11 -165 -11>
LayerCount: 2
Back
Fore
SplineSet
404 167 m 1x5a
 489 46 l 1
 452 16 409 -6 356 -15 c 1x9a
 356 -165 l 1
 221 -165 l 1
 221 -11 l 1x5a
 93 18 17 123 17 263 c 0x6c
 17 406 95 516 222 546 c 1x6a
 222 696 l 1
 356 696 l 1
 356 549 l 1x5a
 409 539 452 516 489 483 c 1
 407 368 l 1
 375 394 345 405 313 405 c 0
 255 405 223 371 223 263 c 0
 223 156 260 133 311 133 c 0x5c
 344 133 367 144 404 167 c 1x5a
EndSplineSet
Substitution2: "'onum' Oldstyle Figures lookup 25 subtable" cent.osf
Substitution2: "'tnum' Tabular Numbers lookup 24 subtable" cent.tf
AlternateSubs2: "'aalt' Access All Alternates lookup 1 subtable" cent.tf cent.osf
EndChar

StartChar: brokenbar
Encoding: 166 166 1217
Width: 360
Flags: MW
HStem: -107 919<87 273 87 273>
VStem: 87 186<-107 262 443 812>
LayerCount: 2
Fore
SplineSet
273 443 m 1
 87 443 l 1
 87 812 l 1
 273 812 l 1
 273 443 l 1
273 -107 m 1
 87 -107 l 1
 87 262 l 1
 273 262 l 1
 273 -107 l 1
EndSplineSet
EndChar
StartChar: dieresis
Encoding: 168 168 2529
Width: 495
Flags: MW
HStem: 633 185<99 152 344 397>
VStem: 30 190<700 751.5> 275 190<700 751.5>
LayerCount: 2
Back
Fore
SplineSet
125 818 m 0
 179 818 220 777 220 726 c 0
 220 674 179 633 125 633 c 0
 73 633 30 674 30 726 c 0
 30 777 73 818 125 818 c 0
370 818 m 0
 424 818 465 777 465 726 c 0
 465 674 424 633 370 633 c 0
 318 633 275 674 275 726 c 0
 275 777 318 818 370 818 c 0
EndSplineSet
Substitution2: "Single Substitution lookup 41 subtable" dieresis.case
Substitution2: "'case' Case-Sensitive Forms lookup 28 subtable" dieresis.case
Substitution2: "'smcp' Lowercase to Small Capitals lookup 27 subtable" dieresis.sc
Substitution2: "'c2sc' Capitals to Small Capitals lookup 26 subtable" dieresis.sc
AlternateSubs2: "'aalt' Access All Alternates lookup 1 subtable" dieresis.sc dieresis.case
EndChar

StartChar: ordfeminine
Encoding: 170 170 415
Width: 500
GlyphClass: 2
Flags: MW
HStem: 0 150<40 467 40 467> 260 121<135 243.5> 442 88<246 262 262 270> 576 120<214.5 236>
VStem: 36 174<398 417.5 398 435> 40 427<0 150 0 150> 270 169<405 418 418 442 442 442 530 533 533 543 405 551>
LayerCount: 2
Fore
SplineSet
270 530 m 1xfa
 270 533 l 2
 270 569 259 576 213 576 c 0
 190 576 146 568 104 555 c 1
 66 663 l 1
 120 684 190 696 239 696 c 0
 381 696 439 647 439 543 c 2
 439 418 l 2
 439 392 444 380 463 374 c 1
 428 264 l 1
 375 267 337 281 308 317 c 1
 277 275 227 260 178 260 c 0
 92 260 36 315 36 390 c 0
 36 480 109 530 246 530 c 2
 270 530 l 1xfa
210 405 m 0
 210 391 218 381 237 381 c 0
 250 381 262 386 270 393 c 1
 270 442 l 1
 262 442 l 2
 226 442 210 430 210 405 c 0
467 150 m 1xf4
 467 0 l 1
 40 0 l 1
 40 150 l 1
 467 150 l 1xf4
EndSplineSet
EndChar
StartChar: guillemotleft
Encoding: 171 171 2175
Width: 660
Flags: MW
HStem: -3 21G<223 223 512 512>
VStem: 25 610<78 344 78 344>
LayerCount: 2
Back
Fore
SplineSet
223 569 m 1
 346 488 l 1
 221 283 l 1
 346 78 l 1
 223 -3 l 1
 25 222 l 1
 25 344 l 1
 223 569 l 1
512 569 m 1
 635 488 l 1
 510 283 l 1
 635 78 l 1
 512 -3 l 1
 314 222 l 1
 314 344 l 1
 512 569 l 1
EndSplineSet
Substitution2: "'case' Case-Sensitive Forms lookup 28 subtable" guillemotleft.case
Substitution2: "'aalt' Access All Alternates lookup 0 subtable" guillemotleft.case
EndChar

StartChar: logicalnot
Encoding: 172 172 1103
Width: 550
Flags: MW
HStem: 257 150<40 350 40 510>
VStem: 350 160<97 257 257 257>
LayerCount: 2
Fore
SplineSet
510 97 m 1
 350 97 l 1
 350 257 l 1
 40 257 l 1
 40 407 l 1
 510 407 l 1
 510 97 l 1
EndSplineSet
Substitution2: "'onum' Oldstyle Figures lookup 22 subtable" logicalnot.osf
Substitution2: "'tnum' Tabular Numbers lookup 21 subtable" logicalnot.tf
AlternateSubs2: "'aalt' Access All Alternates lookup 1 subtable" logicalnot.tf logicalnot.osf
EndChar

StartChar: softhyphen
Encoding: 173 173 1026
Width: 410
Flags: MW
HStem: 238 150<35 375 35 375>
VStem: 35 340<238 388 238 388>
LayerCount: 2
Fore
SplineSet
35 388 m 1
 375 388 l 1
 375 238 l 1
 35 238 l 1
 35 388 l 1
EndSplineSet
Substitution2: "'case' Case-Sensitive Forms lookup 25 subtable" softhyphen.case
Substitution2: "'aalt' Access All Alternates lookup 0 subtable" softhyphen.case
EndChar
StartChar: uni00AD
Encoding: 173 173 2168
Width: 410
Flags: MW
HStem: 238 150<35 375 35 375>
VStem: 35 340<238 388 238 388>
LayerCount: 2
Back
Fore
SplineSet
35 238 m 1
 35 388 l 1
 375 388 l 1
 375 238 l 1
 35 238 l 1
EndSplineSet
Substitution2: "'case' Case-Sensitive Forms lookup 28 subtable" uni00AD.case
Substitution2: "'aalt' Access All Alternates lookup 0 subtable" uni00AD.case
EndChar
StartChar: registered
Encoding: 174 174 2376
Width: 635
GlyphClass: 2
Flags: MW
HStem: 196 78<261.5 376 261.5 401.5> 448 66<287 307 287 316> 574 59<287 287 287 295 295 315> 686 78<261.5 376>
VStem: 30 92<419.5 538.5 419.5 561> 207 80<347 448 347 514 514 574> 353 82<534.5 555.5> 513 92<419.5 538.5>
LayerCount: 2
Back
Fore
SplineSet
319 764 m 0
 484 764 605 643 605 479 c 0
 605 316 484 196 319 196 c 0
 153 196 30 316 30 479 c 0
 30 643 153 764 319 764 c 0
319 274 m 0
 433 274 513 360 513 479 c 0
 513 598 433 686 319 686 c 0
 204 686 122 598 122 479 c 0
 122 360 204 274 319 274 c 0
435 543 m 0
 435 507 413 480 381 465 c 1
 454 347 l 1
 363 347 l 1
 307 448 l 1
 287 448 l 1
 287 347 l 1
 207 347 l 1
 207 633 l 1
 295 633 l 2
 387 633 435 605 435 543 c 0
287 574 m 1
 287 514 l 1
 316 514 l 2
 336 514 353 523 353 546 c 0
 353 565 338 574 315 574 c 2
 287 574 l 1
EndSplineSet
EndChar

StartChar: macron
Encoding: 175 175 1259
Width: 385
Flags: MW
HStem: 648 134<30 355 30 355>
VStem: 30 325<648 782 648 782>
LayerCount: 2
Fore
SplineSet
30 648 m 1
 30 782 l 1
 355 782 l 1
 355 648 l 1
 30 648 l 1
EndSplineSet
Substitution2: "'case' Case-Sensitive Forms lookup 25 subtable" macron.case
Substitution2: "'smcp' Lowercase to Small Capitals lookup 24 subtable" macron.sc
Substitution2: "'c2sc' Capitals to Small Capitals lookup 23 subtable" macron.sc
AlternateSubs2: "'aalt' Access All Alternates lookup 1 subtable" macron.sc macron.case
EndChar

StartChar: plusminus
Encoding: 177 177 1115
Width: 550
Flags: MW
HStem: 0 150<40 490 40 490> 360 150<40 195 40 195 355 510>
VStem: 195 160<200 360 200 360 510 670>
LayerCount: 2
Fore
SplineSet
355 510 m 1
 510 510 l 1
 510 360 l 1
 355 360 l 1
 355 200 l 1
 195 200 l 1
 195 360 l 1
 40 360 l 1
 40 510 l 1
 195 510 l 1
 195 670 l 1
 355 670 l 1
 355 510 l 1
40 150 m 1
 490 150 l 1
 490 0 l 1
 40 0 l 1
 40 150 l 1
EndSplineSet
Substitution2: "'onum' Oldstyle Figures lookup 22 subtable" plusminus.osf
Substitution2: "'tnum' Tabular Numbers lookup 21 subtable" plusminus.tf
AlternateSubs2: "'aalt' Access All Alternates lookup 1 subtable" plusminus.tf plusminus.osf
EndChar

StartChar: twosuperior
Encoding: 178 178 970
Width: 400
Flags: MW
HStem: 320 106<204 360> 651 104<163 190>
VStem: 218 147<598 625>
LayerCount: 2
Fore
SplineSet
194 755 m 0
 310 755 365 691 365 626 c 0
 365 570 342 528 204 426 c 1
 374 426 l 1
 360 320 l 1
 45 320 l 1
 45 417 l 1
 187 540 218 576 218 613 c 0
 218 637 203 651 177 651 c 0
 149 651 127 638 104 610 c 1
 25 672 l 1
 60 719 118 755 194 755 c 0
EndSplineSet
EndChar
StartChar: uni00B3
Encoding: 179 179 2105
Width: 400
Flags: MW
HStem: 306 107<164.5 194.5 164.5 255> 494 94<149 173 133 177> 523 20G 652 103<165 193.5>
VStem: 225 138<623.5 631> 231 148<437 465.5>
LayerCount: 2
Back
Fore
SplineSet
199 755 m 0xd8
 307 755 363 710 363 648 c 0xd8
 363 599 336 560 266 543 c 1xb4
 332 539 379 508 379 436 c 0
 379 370 318 306 192 306 c 0
 111 306 57 336 21 378 c 1
 98 452 l 1
 124 424 148 413 181 413 c 0
 208 413 231 423 231 451 c 0
 231 480 214 494 173 494 c 2
 133 494 l 1
 149 588 l 1xd4
 177 588 l 2
 212 588 225 600 225 620 c 0
 225 642 207 652 180 652 c 0
 150 652 121 639 98 618 c 1
 28 690 l 1
 72 732 130 755 199 755 c 0xd8
EndSplineSet
EndChar

StartChar: acute
Encoding: 180 180 1250
Width: 364
Flags: MW
HStem: 613 243<83 260>
VStem: 30 304<712 712>
LayerCount: 2
Fore
SplineSet
334 712 m 1
 83 613 l 1
 30 712 l 1
 260 856 l 1
 334 712 l 1
EndSplineSet
Substitution2: "'case' Case-Sensitive Forms lookup 25 subtable" acute.case
Substitution2: "'smcp' Lowercase to Small Capitals lookup 24 subtable" acute.sc
Substitution2: "'c2sc' Capitals to Small Capitals lookup 23 subtable" acute.sc
Substitution2: "'locl' Localized Forms in Latin lookup 7 subtable" acute.loclPLK
AlternateSubs2: "'aalt' Access All Alternates lookup 1 subtable" acute.loclPLK acute.sc acute.case
EndChar
StartChar: paragraph
Encoding: 182 182 2374
Width: 820
GlyphClass: 2
Flags: MW
HStem: -207 21G<470 470 720 720> 563 133<470 548 470 470>
VStem: 298 172<-207 252 252 252> 548 172<-207 563 563 563>
LayerCount: 2
Back
Fore
SplineSet
333 696 m 1
 720 696 l 1
 720 -207 l 1
 548 -228 l 1
 548 563 l 1
 470 563 l 1
 470 -207 l 1
 298 -228 l 1
 298 252 l 1
 136 254 50 344 50 473 c 0
 50 610 148 703 333 696 c 1
EndSplineSet
EndChar

StartChar: cedilla
Encoding: 184 184 1253
Width: 349
Flags: MW
HStem: -275 102<129 151 125 207.5> -120 136<105 120.5>
VStem: 182 137<-158 -138>
LayerCount: 2
Fore
SplineSet
209 -43 m 1
 282 -52 319 -89 319 -151 c 0
 319 -220 260 -275 155 -275 c 0
 103 -275 58 -259 30 -241 c 1
 73 -155 l 1
 93 -166 113 -173 137 -173 c 0
 165 -173 182 -167 182 -149 c 0
 182 -127 153 -120 88 -120 c 1
 105 16 l 1
 209 16 l 1
 209 -43 l 1
EndSplineSet
Substitution2: "'case' Case-Sensitive Forms lookup 25 subtable" cedilla.case
Substitution2: "'smcp' Lowercase to Small Capitals lookup 24 subtable" cedilla.sc
Substitution2: "'c2sc' Capitals to Small Capitals lookup 23 subtable" cedilla.sc
AlternateSubs2: "'aalt' Access All Alternates lookup 1 subtable" cedilla.sc cedilla.case
EndChar
StartChar: uni00B9
Encoding: 185 185 2103
Width: 400
Flags: MW
HStem: 724 20G<186 315 315 315>
VStem: 175 140<320 614 614 614>
LayerCount: 2
Back
Fore
SplineSet
315 744 m 1
 315 320 l 1
 175 320 l 1
 175 614 l 1
 87 558 l 1
 24 651 l 1
 186 744 l 1
 315 744 l 1
EndSplineSet
EndChar

StartChar: ordmasculine
Encoding: 186 186 416
Width: 500
GlyphClass: 2
Flags: MW
HStem: 0 150<25 475 25 475> 260 122<233.5 268 233.5 320.5> 574 122<233 267.5>
VStem: 25 177<443 512.5 443 545.5> 299 177<443.5 513>
LayerCount: 2
Fore
SplineSet
250 696 m 0
 387 696 476 621 476 477 c 0
 476 344 390 260 251 260 c 0
 114 260 25 335 25 479 c 0
 25 612 112 696 250 696 c 0
250 574 m 0
 216 574 202 546 202 479 c 0
 202 407 216 382 251 382 c 0
 285 382 299 410 299 477 c 0
 299 549 285 574 250 574 c 0
25 150 m 1
 475 150 l 1
 475 0 l 1
 25 0 l 1
 25 150 l 1
EndSplineSet
EndChar

StartChar: guillemotright
Encoding: 187 187 1035
Width: 661
Flags: MW
HStem: -3 21G<148 148 438 438>
VStem: 25 611<78 344 222 488>
LayerCount: 2
Fore
SplineSet
346 344 m 1
 346 222 l 1
 148 -3 l 1
 25 78 l 1
 150 283 l 1
 25 488 l 1
 148 569 l 1
 346 344 l 1
636 344 m 1
 636 222 l 1
 438 -3 l 1
 315 78 l 1
 440 283 l 1
 315 488 l 1
 438 569 l 1
 636 344 l 1
EndSplineSet
Substitution2: "'case' Case-Sensitive Forms lookup 25 subtable" guillemotright.case
Substitution2: "'aalt' Access All Alternates lookup 0 subtable" guillemotright.case
EndChar

StartChar: onequarter
Encoding: 188 188 926
Width: 991
Flags: MW
HStem: 0 179<800 801 750 933 800 800> 77 102<750 800 933 976> 676 20G<186 315 315 315> 689 20G<758 758> 744 20G<647 647>
VStem: 175 140<272 566 566 566> 800 133<0 77 0 77>
LayerCount: 2
Fore
SplineSet
758 709 m 1x9e
 344 -90 l 1
 233 -35 l 1
 647 764 l 1
 758 709 l 1x9e
175 272 m 1
 175 566 l 1
 87 510 l 1
 24 603 l 1
 186 696 l 1
 315 696 l 1x6e
 315 272 l 1
 175 272 l 1
976 77 m 1
 933 77 l 1x5e
 933 0 l 1
 800 0 l 1x9e
 800 77 l 1
 605 77 l 1
 605 170 l 1x5e
 722 435 l 1
 841 392 l 1
 750 179 l 1
 801 179 l 1
 831 267 l 1
 933 267 l 1
 933 179 l 1
 976 179 l 1x9e
 976 77 l 1
EndSplineSet
EndChar
StartChar: onehalf
Encoding: 189 189 2057
Width: 991
Flags: MW
HStem: 0 106<795 951> 331 104<754 781> 676 20G<186 315 315 315> 689 20G<758 758> 744 20G<647 647>
VStem: 175 140<272 566 566 566> 809 147<278 305>
LayerCount: 2
Back
Fore
SplineSet
647 764 m 1xdc
 758 709 l 1
 344 -90 l 1
 233 -35 l 1
 647 764 l 1xdc
315 696 m 1xee
 315 272 l 1
 175 272 l 1
 175 566 l 1
 87 510 l 1
 24 603 l 1
 186 696 l 1
 315 696 l 1xee
785 435 m 0
 901 435 956 371 956 306 c 0
 956 250 933 208 795 106 c 1
 965 106 l 1
 951 0 l 1
 636 0 l 1
 636 97 l 1
 778 220 809 256 809 293 c 0
 809 317 794 331 768 331 c 0
 740 331 718 318 695 290 c 1
 616 352 l 1
 651 399 709 435 785 435 c 0
EndSplineSet
EndChar

StartChar: threequarters
Encoding: 190 190 927
Width: 991
Flags: MW
HStem: 0 179<800 801 750 933 800 800> 77 102<750 800 933 976> 258 107<164.5 194.5 164.5 255> 446 49 446 94<149 173 133 177> 604 103<165 193.5> 744 20G<647 647>
VStem: 225 138<575.5 583> 231 148<389 417.5> 800 133<0 77 0 77>
LayerCount: 2
Fore
SplineSet
758 709 m 1xaec0
 344 -90 l 1
 233 -35 l 1
 647 764 l 1
 758 709 l 1xaec0
379 388 m 0
 379 322 318 258 192 258 c 0
 111 258 57 288 21 330 c 1
 98 404 l 1
 124 376 148 365 181 365 c 0
 208 365 231 375 231 403 c 0
 231 432 214 446 173 446 c 2
 133 446 l 1
 149 540 l 1xaec0
 177 540 l 2
 212 540 225 552 225 572 c 0
 225 594 207 604 180 604 c 0
 150 604 121 591 98 570 c 1
 28 642 l 1
 72 684 130 707 199 707 c 0
 307 707 363 662 363 600 c 0xaf40
 363 551 336 512 266 495 c 1xb6c0
 332 491 379 460 379 388 c 0
976 77 m 1x6ec0
 933 77 l 1x6ec0
 933 0 l 1
 800 0 l 1xaec0
 800 77 l 1
 605 77 l 1
 605 170 l 1x6ec0
 722 435 l 1
 841 392 l 1
 750 179 l 1
 801 179 l 1
 831 267 l 1
 933 267 l 1
 933 179 l 1
 976 179 l 1xaec0
 976 77 l 1x6ec0
EndSplineSet
EndChar
StartChar: questiondown
Encoding: 191 191 2128
Width: 495
Flags: MW
HStem: -227 154<246.5 280.5 246.5 298.5> 312 206<242.5 299.5>
VStem: 5 207<-46.5 -1 -46.5 29> 168 206<387 443> 184 176<206 229 112 229>
LayerCount: 2
Back
Fore
SplineSet
271 312 m 0xd0
 214 312 168 359 168 415 c 0
 168 471 214 518 271 518 c 0
 328 518 374 471 374 415 c 0
 374 359 328 312 271 312 c 0xd0
241 -227 m 0xe0
 83 -227 5 -147 5 -53 c 0xe0
 5 111 184 105 184 206 c 2
 184 229 l 1
 360 229 l 1
 360 200 l 2xc8
 360 24 212 32 212 -34 c 0
 212 -59 230 -73 263 -73 c 0
 298 -73 334 -54 367 -19 c 1
 490 -115 l 1
 434 -181 356 -227 241 -227 c 0xe0
EndSplineSet
Substitution2: "'case' Case-Sensitive Forms lookup 28 subtable" questiondown.case
Substitution2: "'aalt' Access All Alternates lookup 0 subtable" questiondown.case
EndChar
StartChar: Agrave
Encoding: 192 192 23
Width: 601
GlyphClass: 2
Flags: MW
HStem: 0 21G<-25 190 -25 -25 408 626 408 408> 135 144<245 352 245 381 216 352> 552 144<298 298> 676 20G<178 424 424 424>
VStem: -25 651<0 0>
AnchorPoint: "Anchor-14" 0 0 basechar 0
AnchorPoint: "Anchor-13" 0 0 basechar 0
AnchorPoint: "Anchor-12" 303 984 basechar 0
AnchorPoint: "Anchor-11" 526 0 basechar 0
AnchorPoint: "Anchor-10" 301 0 basechar 0
LayerCount: 2
Back
Fore
SplineSet
453 848 m 1xd8
 403 749 l 1
 149 840 l 1
 222 984 l 1
 453 848 l 1xd8
408 0 m 1
 381 135 l 1
 216 135 l 1
 190 0 l 1
 -25 0 l 1
 178 696 l 1
 424 696 l 1
 626 0 l 1
 408 0 l 1
245 279 m 1
 352 279 l 1
 298 552 l 1xe8
 245 279 l 1
EndSplineSet
Substitution2: "'c2sc' Capitals to Small Capitals lookup 26 subtable" agrave.sc
Substitution2: "'aalt' Access All Alternates lookup 0 subtable" agrave.sc
Position2: "'cpsp' Capital Spacing lookup 0 subtable" dx=5 dy=0 dh=10 dv=0
EndChar
StartChar: Aacute
Encoding: 193 193 3
Width: 601
GlyphClass: 2
Flags: MW
HStem: 0 21G<-25 190 -25 -25 408 626 408 408> 135 144<245 352 245 381 216 352> 552 144<298 298> 676 20G<178 424 424 424>
VStem: -25 651<0 0>
AnchorPoint: "Anchor-14" 0 0 basechar 0
AnchorPoint: "Anchor-13" 0 0 basechar 0
AnchorPoint: "Anchor-12" 303 984 basechar 0
AnchorPoint: "Anchor-11" 526 0 basechar 0
AnchorPoint: "Anchor-10" 301 0 basechar 0
LayerCount: 2
Back
Fore
SplineSet
453 840 m 1xd8
 199 749 l 1
 149 848 l 1
 380 984 l 1
 453 840 l 1xd8
408 0 m 1
 381 135 l 1
 216 135 l 1
 190 0 l 1
 -25 0 l 1
 178 696 l 1
 424 696 l 1
 626 0 l 1
 408 0 l 1
245 279 m 1
 352 279 l 1
 298 552 l 1xe8
 245 279 l 1
EndSplineSet
Substitution2: "'c2sc' Capitals to Small Capitals lookup 26 subtable" aacute.sc
Substitution2: "'aalt' Access All Alternates lookup 0 subtable" aacute.sc
Position2: "'cpsp' Capital Spacing lookup 0 subtable" dx=5 dy=0 dh=10 dv=0
EndChar

StartChar: Atilde
Encoding: 195 195 10
Width: 601
GlyphClass: 2
Flags: MW
HStem: 0 21G<-25 190 -25 -25 408 408 408 626> 135 144<245 352 245 381 216 352> 552 144<298 298> 676 20G<178 424 424 424> 748 138<341.5 369 341.5 394.5> 791 138<233.5 261.5>
VStem: -25 651<0 0>
AnchorPoint: "Anchor-11" 0 0 basechar 0
AnchorPoint: "Anchor-10" 150 696 basechar 0
AnchorPoint: "Anchor-9" 301 696 basechar 0
AnchorPoint: "Anchor-8" 526 0 basechar 0
LayerCount: 2
Fore
SplineSet
246 791 m 0xd6
 221 791 209 776 193 748 c 1
 100 793 l 1
 126 866 175 929 241 929 c 0xd6
 308 929 326 886 357 886 c 0
 381 886 393 901 409 929 c 1
 502 884 l 1
 476 811 427 748 362 748 c 0xda
 295 748 277 791 246 791 c 0xd6
381 135 m 1
 216 135 l 1
 190 0 l 1
 -25 0 l 1
 178 696 l 1
 424 696 l 1
 626 0 l 1
 408 0 l 1
 381 135 l 1
352 279 m 1
 298 552 l 1xe6
 245 279 l 1
 352 279 l 1
EndSplineSet
Substitution2: "'c2sc' Capitals to Small Capitals lookup 23 subtable" atilde.sc
Substitution2: "'aalt' Access All Alternates lookup 0 subtable" atilde.sc
Position2: "'cpsp' Capital Spacing lookup 0 subtable" dx=5 dy=0 dh=10 dv=0
EndChar
StartChar: Aring
Encoding: 197 197 29
Width: 601
GlyphClass: 2
Flags: MW
HStem: 0 21G<-25 190 -25 -25 408 626 408 408> 135 144<245 352 245 381 216 352> 552 144<298 298> 676 20G<178 424 424 424> 719 101<289.5 312.5 289.5 349.5> 912 100<289.5 312.5>
VStem: 147 114<850 882 850 905> 341 114<850 882>
AnchorPoint: "Anchor-14" 0 0 basechar 0
AnchorPoint: "Anchor-13" 0 0 basechar 0
AnchorPoint: "Anchor-12" 303 1012 basechar 0
AnchorPoint: "Anchor-11" 526 0 basechar 0
AnchorPoint: "Anchor-10" 301 0 basechar 0
LayerCount: 2
Back
Fore
SplineSet
301 719 m 0xdf
 204 719 147 788 147 866 c 0
 147 944 204 1012 301 1012 c 0
 398 1012 455 944 455 866 c 0
 455 788 398 719 301 719 c 0xdf
301 912 m 0
 278 912 261 898 261 866 c 0
 261 834 278 820 301 820 c 0
 324 820 341 834 341 866 c 0
 341 898 324 912 301 912 c 0
408 0 m 1
 381 135 l 1
 216 135 l 1
 190 0 l 1
 -25 0 l 1
 178 696 l 1
 424 696 l 1xd7
 626 0 l 1
 408 0 l 1
245 279 m 1
 352 279 l 1
 298 552 l 1xe7
 245 279 l 1
EndSplineSet
Substitution2: "'c2sc' Capitals to Small Capitals lookup 26 subtable" aring.sc
Substitution2: "'aalt' Access All Alternates lookup 0 subtable" aring.sc
Position2: "'cpsp' Capital Spacing lookup 0 subtable" dx=5 dy=0 dh=10 dv=0
EndChar
StartChar: AE
Encoding: 198 198 33
Width: 863
GlyphClass: 2
Flags: MW
HStem: 0 144<610 843 610 843> 135 144<279 398 279 418 235 398> 282 139<586 799 586 586> 553 143<540 787 540 540>
VStem: -30 873<0 144>
AnchorPoint: "Anchor-14" 0 0 basechar 0
AnchorPoint: "Anchor-13" 0 0 basechar 0
AnchorPoint: "Anchor-12" 489 696 basechar 0
AnchorPoint: "Anchor-11" 0 0 basechar 0
AnchorPoint: "Anchor-10" 0 0 basechar 0
LayerCount: 2
Back
Fore
SplineSet
610 144 m 1xb8
 843 144 l 1
 843 0 l 1
 436 0 l 1xb8
 418 135 l 1
 235 135 l 1x58
 194 0 l 1
 -30 0 l 1
 241 696 l 1
 808 696 l 1
 787 553 l 1
 540 553 l 1
 563 421 l 1
 799 421 l 1
 799 282 l 1
 586 282 l 1
 610 144 l 1xb8
279 279 m 1x58
 398 279 l 1
 362 549 l 1
 279 279 l 1x58
EndSplineSet
Substitution2: "'c2sc' Capitals to Small Capitals lookup 26 subtable" ae.sc
Substitution2: "'aalt' Access All Alternates lookup 0 subtable" ae.sc
Position2: "'cpsp' Capital Spacing lookup 0 subtable" dx=5 dy=0 dh=10 dv=0
EndChar

StartChar: Ccedilla
Encoding: 199 199 17
Width: 584
GlyphClass: 2
Flags: MW
HStem: -275 102<308 330 304 386.5> -18 21G<388 388> -14 21G<280 280> 568 148<321 384>
VStem: 20 214<276.5 423.5 276.5 466> 361 137<-158 -138>
AnchorPoint: "Anchor-11" 339 0 basechar 0
AnchorPoint: "Anchor-10" 0 0 basechar 0
AnchorPoint: "Anchor-9" 358 696 basechar 0
AnchorPoint: "Anchor-8" 0 0 basechar 0
LayerCount: 2
Fore
SplineSet
388 -43 m 1xdc
 461 -52 498 -89 498 -151 c 0
 498 -220 439 -275 334 -275 c 0
 282 -275 237 -259 209 -241 c 1
 252 -155 l 1
 272 -166 292 -173 316 -173 c 0
 344 -173 361 -167 361 -149 c 0
 361 -127 332 -120 267 -120 c 1
 280 -14 l 1xbc
 120 15 20 140 20 350 c 0
 20 582 156 716 348 716 c 0
 445 716 517 685 576 634 c 1
 478 519 l 1
 445 549 408 568 360 568 c 0
 282 568 234 497 234 350 c 0
 234 203 283 135 366 135 c 0
 415 135 453 161 494 193 c 1
 584 77 l 1
 539 32 471 -9 388 -18 c 1
 388 -43 l 1xdc
EndSplineSet
Substitution2: "'c2sc' Capitals to Small Capitals lookup 23 subtable" ccedilla.sc
Substitution2: "'aalt' Access All Alternates lookup 0 subtable" ccedilla.sc
Position2: "'cpsp' Capital Spacing lookup 0 subtable" dx=5 dy=0 dh=10 dv=0
EndChar
StartChar: Eacute
Encoding: 201 201 68
Width: 520
GlyphClass: 2
Flags: MW
HStem: 0 144<249 495 249 495> 284 139<249 451 249 451> 553 143<249 479 249 249>
VStem: 43 206<144 284 423 553>
AnchorPoint: "Anchor-14" 0 0 basechar 0
AnchorPoint: "Anchor-13" 0 0 basechar 0
AnchorPoint: "Anchor-12" 274 984 basechar 0
AnchorPoint: "Anchor-11" 465 0 basechar 0
AnchorPoint: "Anchor-10" 269 0 basechar 0
LayerCount: 2
Back
Fore
SplineSet
351 984 m 1
 424 840 l 1
 170 749 l 1
 120 848 l 1
 351 984 l 1
500 696 m 1
 479 553 l 1
 249 553 l 1
 249 423 l 1
 451 423 l 1
 451 284 l 1
 249 284 l 1
 249 144 l 1
 495 144 l 1
 495 0 l 1
 43 0 l 1
 43 696 l 1
 500 696 l 1
EndSplineSet
Substitution2: "'c2sc' Capitals to Small Capitals lookup 26 subtable" eacute.sc
Substitution2: "'aalt' Access All Alternates lookup 0 subtable" eacute.sc
Position2: "'cpsp' Capital Spacing lookup 0 subtable" dx=5 dy=0 dh=10 dv=0
EndChar

StartChar: Ecircumflex
Encoding: 202 202 28
Width: 520
GlyphClass: 2
Flags: MW
HStem: 0 144<249 495 249 495> 284 139<249 451 249 451> 553 143<249 479 249 249>
VStem: 43 206<144 284 423 553>
AnchorPoint: "Anchor-11" 269 0 basechar 0
AnchorPoint: "Anchor-10" 43 696 basechar 0
AnchorPoint: "Anchor-9" 272 696 basechar 0
AnchorPoint: "Anchor-8" 465 0 basechar 0
LayerCount: 2
Fore
SplineSet
272 838 m 1
 135 752 l 1
 68 829 l 1
 213 970 l 1
 331 970 l 1
 476 829 l 1
 409 752 l 1
 272 838 l 1
479 553 m 1
 249 553 l 1
 249 423 l 1
 451 423 l 1
 451 284 l 1
 249 284 l 1
 249 144 l 1
 495 144 l 1
 495 0 l 1
 43 0 l 1
 43 696 l 1
 500 696 l 1
 479 553 l 1
EndSplineSet
Substitution2: "'c2sc' Capitals to Small Capitals lookup 23 subtable" ecircumflex.sc
Substitution2: "'aalt' Access All Alternates lookup 0 subtable" ecircumflex.sc
Position2: "'cpsp' Capital Spacing lookup 0 subtable" dx=5 dy=0 dh=10 dv=0
EndChar
StartChar: Igrave
Encoding: 204 204 129
Width: 292
GlyphClass: 2
Flags: MW
HStem: 0 21G<43 249 43 43> 676 20G<43 249 249 249>
VStem: 43 206<0 696 0 696>
AnchorPoint: "Anchor-14" 0 0 basechar 0
AnchorPoint: "Anchor-13" 0 0 basechar 0
AnchorPoint: "Anchor-12" 148 984 basechar 0
AnchorPoint: "Anchor-11" 213 0 basechar 0
AnchorPoint: "Anchor-10" 146 0 basechar 0
LayerCount: 2
Back
Fore
SplineSet
67 984 m 1
 298 848 l 1
 248 749 l 1
 -6 840 l 1
 67 984 l 1
249 696 m 1
 249 0 l 1
 43 0 l 1
 43 696 l 1
 249 696 l 1
EndSplineSet
Substitution2: "'c2sc' Capitals to Small Capitals lookup 26 subtable" igrave.sc
Substitution2: "'aalt' Access All Alternates lookup 0 subtable" igrave.sc
Position2: "'cpsp' Capital Spacing lookup 0 subtable" dx=5 dy=0 dh=10 dv=0
EndChar
StartChar: Iacute
Encoding: 205 205 120
Width: 292
GlyphClass: 2
Flags: MW
HStem: 0 21G<43 249 43 43> 676 20G<43 249 249 249>
VStem: 43 206<0 696 0 696>
AnchorPoint: "Anchor-14" 0 0 basechar 0
AnchorPoint: "Anchor-13" 0 0 basechar 0
AnchorPoint: "Anchor-12" 148 984 basechar 0
AnchorPoint: "Anchor-11" 213 0 basechar 0
AnchorPoint: "Anchor-10" 146 0 basechar 0
LayerCount: 2
Back
Fore
SplineSet
225 984 m 1
 298 840 l 1
 44 749 l 1
 -6 848 l 1
 225 984 l 1
249 696 m 1
 249 0 l 1
 43 0 l 1
 43 696 l 1
 249 696 l 1
EndSplineSet
Substitution2: "'c2sc' Capitals to Small Capitals lookup 26 subtable" iacute.sc
Substitution2: "'aalt' Access All Alternates lookup 0 subtable" iacute.sc
Position2: "'cpsp' Capital Spacing lookup 0 subtable" dx=5 dy=0 dh=10 dv=0
EndChar
StartChar: Icircumflex
Encoding: 206 206 123
Width: 292
GlyphClass: 2
Flags: MW
HStem: 0 21G<43 249 43 43> 676 20G<43 249 249 249>
VStem: 43 206<0 696 0 696>
AnchorPoint: "Anchor-14" 0 0 basechar 0
AnchorPoint: "Anchor-13" 250 856 basechar 0
AnchorPoint: "Anchor-12" 146 970 basechar 0
AnchorPoint: "Anchor-11" 213 0 basechar 0
AnchorPoint: "Anchor-10" 146 0 basechar 0
LayerCount: 2
Back
Fore
SplineSet
283 752 m 1
 146 838 l 1
 9 752 l 1
 -58 829 l 1
 87 970 l 1
 205 970 l 1
 350 829 l 1
 283 752 l 1
249 696 m 1
 249 0 l 1
 43 0 l 1
 43 696 l 1
 249 696 l 1
EndSplineSet
Substitution2: "'c2sc' Capitals to Small Capitals lookup 26 subtable" icircumflex.sc
Substitution2: "'aalt' Access All Alternates lookup 0 subtable" icircumflex.sc
Position2: "'cpsp' Capital Spacing lookup 0 subtable" dx=5 dy=0 dh=10 dv=0
EndChar
StartChar: Idieresis
Encoding: 207 207 125
Width: 292
GlyphClass: 2
Flags: MW
HStem: 0 21G<43 249 43 43> 676 20G<43 249 249 249> 759 185<-3 50 242 295>
VStem: -72 190<826 877.5> 43 206<0 696 0 696> 173 190<826 877.5>
AnchorPoint: "Anchor-14" 0 0 basechar 0
AnchorPoint: "Anchor-13" 0 0 basechar 0
AnchorPoint: "Anchor-12" 148 944 basechar 0
AnchorPoint: "Anchor-11" 213 0 basechar 0
AnchorPoint: "Anchor-10" 146 0 basechar 0
LayerCount: 2
Back
Fore
SplineSet
23 944 m 0xe8
 77 944 118 903 118 852 c 0xe8
 118 800 77 759 23 759 c 0
 -29 759 -72 800 -72 852 c 0xf0
 -72 903 -29 944 23 944 c 0xe8
268 944 m 0
 322 944 363 903 363 852 c 0xe4
 363 800 322 759 268 759 c 0
 216 759 173 800 173 852 c 0
 173 903 216 944 268 944 c 0
249 696 m 1
 249 0 l 1
 43 0 l 1
 43 696 l 1
 249 696 l 1
EndSplineSet
Substitution2: "'c2sc' Capitals to Small Capitals lookup 26 subtable" idieresis.sc
Substitution2: "'aalt' Access All Alternates lookup 0 subtable" idieresis.sc
Position2: "'cpsp' Capital Spacing lookup 0 subtable" dx=5 dy=0 dh=10 dv=0
EndChar
StartChar: Ntilde
Encoding: 209 209 175
Width: 651
GlyphClass: 2
Flags: MW
HStem: 0 21G<43 225 43 43 350 608 350 350> 676 20G<43 296 296 296 426 608 608 608> 748 138<366.5 394 366.5 418> 791 138<258.5 286.5>
VStem: 43 182<0 216 0 696> 426 182<473 696 0 696>
AnchorPoint: "Anchor-14" 0 0 basechar 0
AnchorPoint: "Anchor-13" 0 0 basechar 0
AnchorPoint: "Anchor-12" 328 929 basechar 0
AnchorPoint: "Anchor-11" 0 0 basechar 0
AnchorPoint: "Anchor-10" 326 0 basechar 0
LayerCount: 2
Back
Fore
SplineSet
384 748 m 0xec
 323 748 302 791 271 791 c 0
 246 791 234 776 218 748 c 1
 125 793 l 1
 151 866 200 929 266 929 c 0xdc
 330 929 351 886 382 886 c 0
 406 886 418 901 434 929 c 1
 527 884 l 1
 501 811 452 748 384 748 c 0xec
608 696 m 1xdc
 608 0 l 1
 350 0 l 1
 198 508 l 1
 208 441 225 345 225 216 c 2
 225 0 l 1
 43 0 l 1
 43 696 l 1
 296 696 l 1
 454 186 l 1
 441 267 426 347 426 473 c 2
 426 696 l 1
 608 696 l 1xdc
EndSplineSet
Substitution2: "'c2sc' Capitals to Small Capitals lookup 26 subtable" ntilde.sc
Substitution2: "'aalt' Access All Alternates lookup 0 subtable" ntilde.sc
Position2: "'cpsp' Capital Spacing lookup 0 subtable" dx=5 dy=0 dh=10 dv=0
EndChar
StartChar: Otilde
Encoding: 213 213 214
Width: 690
GlyphClass: 2
Flags: MW
HStem: -20 146<306 385 306 449.5> 570 146<306 384> 748 138<385.5 413 385.5 437> 791 138<277.5 305.5>
VStem: 20 214<268.5 429.5 268.5 462> 456 214<268.5 429.5>
AnchorPoint: "Anchor-14" 0 0 basechar 0
AnchorPoint: "Anchor-13" 589 696 basechar 0
AnchorPoint: "Anchor-12" 347 929 basechar 0
AnchorPoint: "Anchor-11" 482 0 basechar 0
AnchorPoint: "Anchor-10" 345 0 basechar 0
LayerCount: 2
Back
Fore
SplineSet
403 748 m 0xec
 342 748 321 791 290 791 c 0
 265 791 253 776 237 748 c 1
 144 793 l 1
 170 866 219 929 285 929 c 0xdc
 349 929 370 886 401 886 c 0
 425 886 437 901 453 929 c 1
 546 884 l 1
 520 811 471 748 403 748 c 0xec
345 716 m 0xdc
 554 716 670 580 670 349 c 0
 670 123 554 -20 345 -20 c 0
 136 -20 20 118 20 349 c 0
 20 575 136 716 345 716 c 0xdc
345 570 m 0
 267 570 234 510 234 349 c 0
 234 188 267 126 345 126 c 0
 425 126 456 188 456 349 c 0
 456 510 423 570 345 570 c 0
EndSplineSet
Substitution2: "'c2sc' Capitals to Small Capitals lookup 26 subtable" otilde.sc
Substitution2: "'aalt' Access All Alternates lookup 0 subtable" otilde.sc
Position2: "'cpsp' Capital Spacing lookup 0 subtable" dx=5 dy=0 dh=10 dv=0
EndChar
StartChar: multiply
Encoding: 215 215 2266
Width: 530
GlyphClass: 2
Flags: MW
HStem: 87 438<152 152 152 378>
VStem: 46 438<193 193 193 419>
LayerCount: 2
Back
Fore
SplineSet
378 525 m 1
 484 419 l 1
 368 306 l 1
 484 193 l 1
 378 87 l 1
 265 203 l 1
 152 87 l 1
 46 193 l 1
 162 306 l 1
 46 419 l 1
 152 525 l 1
 265 409 l 1
 378 525 l 1
EndSplineSet
Substitution2: "'onum' Oldstyle Figures lookup 25 subtable" multiply.osf
Substitution2: "'tnum' Tabular Numbers lookup 24 subtable" multiply.tf
AlternateSubs2: "'aalt' Access All Alternates lookup 1 subtable" multiply.tf multiply.osf
EndChar
StartChar: Udieresis
Encoding: 220 220 269
Width: 644
GlyphClass: 2
Flags: MW
HStem: -20 148<292 352 292 420> 676 20G<33 239 239 239 405 611 611 611> 759 185<173 226 418 471>
VStem: 33 206<236 242 242 696> 104 190<826 877.5> 349 190<826 877.5> 405 206<242 696>
AnchorPoint: "Anchor-14" 0 0 basechar 0
AnchorPoint: "Anchor-13" 621 696 basechar 0
AnchorPoint: "Anchor-12" 324 944 basechar 0
AnchorPoint: "Anchor-11" 460 0 basechar 0
AnchorPoint: "Anchor-10" 322 0 basechar 0
LayerCount: 2
Back
Fore
SplineSet
199 944 m 0xf2
 253 944 294 903 294 852 c 0xea
 294 800 253 759 199 759 c 0
 147 759 104 800 104 852 c 0
 104 903 147 944 199 944 c 0xf2
444 944 m 0
 498 944 539 903 539 852 c 0xf2
 539 800 498 759 444 759 c 0
 392 759 349 800 349 852 c 0xf4
 349 903 392 944 444 944 c 0
611 696 m 1
 611 236 l 2
 611 94 518 -20 322 -20 c 0
 126 -20 33 84 33 236 c 2
 33 696 l 1
 239 696 l 1
 239 242 l 2
 239 165 262 128 322 128 c 0
 382 128 405 165 405 242 c 2
 405 696 l 1
 611 696 l 1
EndSplineSet
Substitution2: "'c2sc' Capitals to Small Capitals lookup 26 subtable" udieresis.sc
Substitution2: "'aalt' Access All Alternates lookup 0 subtable" udieresis.sc
Position2: "'cpsp' Capital Spacing lookup 0 subtable" dx=5 dy=0 dh=10 dv=0
EndChar
StartChar: Yacute
Encoding: 221 221 303
Width: 620
GlyphClass: 2
Flags: MW
HStem: 0 21G<207 413 207 207> 676 20G<-15 210 210 210 417 635 635 635>
VStem: 207 206<0 256 256 256>
AnchorPoint: "Anchor-14" 0 0 basechar 0
AnchorPoint: "Anchor-13" 0 0 basechar 0
AnchorPoint: "Anchor-12" 312 984 basechar 0
AnchorPoint: "Anchor-11" 0 0 basechar 0
AnchorPoint: "Anchor-10" 310 0 basechar 0
LayerCount: 2
Back
Fore
SplineSet
389 984 m 1
 462 840 l 1
 208 749 l 1
 158 848 l 1
 389 984 l 1
635 696 m 1
 413 257 l 1
 413 0 l 1
 207 0 l 1
 207 256 l 1
 -15 696 l 1
 210 696 l 1
 313 412 l 1
 417 696 l 1
 635 696 l 1
EndSplineSet
Substitution2: "'c2sc' Capitals to Small Capitals lookup 26 subtable" yacute.sc
Substitution2: "'aalt' Access All Alternates lookup 0 subtable" yacute.sc
Position2: "'cpsp' Capital Spacing lookup 0 subtable" dx=5 dy=0 dh=10 dv=0
EndChar

StartChar: Thorn
Encoding: 222 222 84
Width: 611
GlyphClass: 2
Flags: MW
HStem: 0 21G<43 249 43 43> 106 145<249 297 297 317 249 297> 450 143<249 291 249 294> 676 20G<43 249 249 249>
VStem: 43 206<0 106 0 251 251 450 593 696> 386 210<320.5 387>
AnchorPoint: "Anchor-11" 0 0 basechar 0
AnchorPoint: "Anchor-10" 0 0 basechar 0
AnchorPoint: "Anchor-9" 146 696 basechar 0
AnchorPoint: "Anchor-8" 0 0 basechar 0
LayerCount: 2
Fore
SplineSet
294 593 m 2
 481 593 596 515 596 358 c 0
 596 188 482 106 317 106 c 2
 249 106 l 1
 249 0 l 1
 43 0 l 1
 43 696 l 1
 249 696 l 1
 249 593 l 1
 294 593 l 2
297 251 m 2
 355 251 386 283 386 358 c 0
 386 416 359 450 291 450 c 2
 249 450 l 1
 249 251 l 1
 297 251 l 2
EndSplineSet
Substitution2: "'c2sc' Capitals to Small Capitals lookup 23 subtable" thorn.sc
Substitution2: "'aalt' Access All Alternates lookup 0 subtable" thorn.sc
Position2: "'cpsp' Capital Spacing lookup 0 subtable" dx=5 dy=0 dh=10 dv=0
EndChar

StartChar: germandbls
Encoding: 223 223 233
Width: 614
GlyphClass: 2
Flags: MW
HStem: -20 21G<369.5 455.5> -20 151<369.5 378.5 358.5 455.5> 0 9 629 135<274.5 308>
VStem: 42 198<0 530 530 537 0 602> 261 167<399 451.5> 336 186<558.5 595.5> 404 205<158.5 219.5>
LayerCount: 2
Fore
SplineSet
299 764 m 0x3a
 447 764 522 690 522 602 c 0x3a
 522 515 428 494 428 434 c 0x3c
 428 364 609 345 609 168 c 0
 609 49 518 -20 393 -20 c 0x99
 346 -20 298 -8 264 9 c 1x3a
 323 142 l 1
 338 134 351 131 366 131 c 0
 391 131 404 145 404 172 c 0x59
 404 267 261 262 261 396 c 0x3c
 261 507 336 502 336 582 c 0
 336 609 322 629 294 629 c 0
 255 629 240 596 240 537 c 2
 240 0 l 1
 42 0 l 1
 42 530 l 2
 42 674 131 764 299 764 c 0x3a
EndSplineSet
Substitution2: "'smcp' Lowercase to Small Capitals lookup 24 subtable" germandbls.sc
Substitution2: "'aalt' Access All Alternates lookup 0 subtable" germandbls.sc
EndChar

StartChar: agrave
Encoding: 224 224 139
Width: 551
GlyphClass: 2
Flags: MW
HStem: -20 21G<137.5 221.5> -20 139<137.5 264.5> -16 21G<496 496> 230 103<273 290 290 311> 414 140<233.5 263.5> 692 20G<135 135 439 439>
VStem: 15 193<154 190 154 209> 311 193<154 173 173 230 230 230 333 346 346 357 154 373>
AnchorPoint: "Anchor-11" 0 0 basechar 0
AnchorPoint: "Anchor-10" 0 0 basechar 0
AnchorPoint: "Anchor-9" 277 534 basechar 0
AnchorPoint: "Anchor-8" 506 -16 basechar 0
LayerCount: 2
Fore
SplineSet
386 613 m 1x3f
 135 712 l 1
 209 856 l 1
 439 712 l 1
 386 613 l 1x3f
504 173 m 2
 504 135 512 120 536 111 c 1
 496 -16 l 1x3f
 427 -11 382 7 352 58 c 1
 313 -1 252 -20 191 -20 c 0x9f
 84 -20 15 51 15 150 c 0
 15 268 105 333 273 333 c 2
 311 333 l 1
 311 346 l 2
 311 400 293 414 234 414 c 0
 203 414 149 404 96 386 c 1
 53 512 l 1
 120 539 203 554 264 554 c 0
 434 554 504 489 504 357 c 2
 504 173 l 2
252 119 m 0x5f
 277 119 298 133 311 151 c 1
 311 230 l 1
 290 230 l 2
 234 230 208 211 208 169 c 0
 208 139 225 119 252 119 c 0x5f
EndSplineSet
Substitution2: "'smcp' Lowercase to Small Capitals lookup 24 subtable" agrave.sc
Substitution2: "'aalt' Access All Alternates lookup 0 subtable" agrave.sc
EndChar
StartChar: aring
Encoding: 229 229 363
Width: 551
GlyphClass: 2
Flags: MW
HStem: -20 21G<137.5 221.5> -20 139<137.5 264.5> -16 21G<496 496> 230 103<273 290 290 311> 414 140<233.5 263.5> 593 101<265.5 288.5 265.5 325.5> 786 100<265.5 288.5>
VStem: 15 193<154 190 154 209> 123 114<724 756 724 779> 311 193<154 173 173 230 230 230 333 346 346 357 154 373> 317 114<724 756>
AnchorPoint: "Anchor-14" 0 0 basechar 0
AnchorPoint: "Anchor-13" 0 0 basechar 0
AnchorPoint: "Anchor-12" 279 886 basechar 0
AnchorPoint: "Anchor-11" 506 -16 basechar 0
AnchorPoint: "Anchor-10" 277 0 basechar 0
LayerCount: 2
Back
Fore
SplineSet
277 593 m 0x3ec0
 180 593 123 662 123 740 c 0
 123 818 180 886 277 886 c 0
 374 886 431 818 431 740 c 0x3ea0
 431 662 374 593 277 593 c 0x3ec0
277 786 m 0x3ea0
 254 786 237 772 237 740 c 0
 237 708 254 694 277 694 c 0
 300 694 317 708 317 740 c 0
 317 772 300 786 277 786 c 0x3ea0
504 173 m 2x9f40
 504 135 512 120 536 111 c 1
 496 -16 l 1x3ec0
 427 -11 382 7 352 58 c 1
 313 -1 252 -20 191 -20 c 0
 84 -20 15 51 15 150 c 0
 15 268 105 333 273 333 c 2
 311 333 l 1
 311 346 l 2
 311 400 293 414 234 414 c 0
 203 414 149 404 96 386 c 1
 53 512 l 1
 120 539 203 554 264 554 c 0
 434 554 504 489 504 357 c 2
 504 173 l 2x9f40
252 119 m 0x5f40
 277 119 298 133 311 151 c 1
 311 230 l 1
 290 230 l 2
 234 230 208 211 208 169 c 0
 208 139 225 119 252 119 c 0x5f40
EndSplineSet
Substitution2: "'smcp' Lowercase to Small Capitals lookup 27 subtable" aring.sc
Substitution2: "'aalt' Access All Alternates lookup 0 subtable" aring.sc
EndChar

StartChar: ccedilla
Encoding: 231 231 150
Width: 479
GlyphClass: 2
Flags: MW
HStem: -275 102<253 275 249 331.5> -18 21G<333 333> -12 21G<225 225> 405 149<284 329>
VStem: 17 206<209.5 317 209.5 347.5> 306 137<-158 -138>
AnchorPoint: "Anchor-11" 277 0 basechar 0
AnchorPoint: "Anchor-10" 0 0 basechar 0
AnchorPoint: "Anchor-9" 292 534 basechar 0
AnchorPoint: "Anchor-8" 0 0 basechar 0
LayerCount: 2
Fore
SplineSet
489 46 m 1xdc
 447 12 397 -12 333 -18 c 1
 333 -43 l 1xdc
 406 -52 443 -89 443 -151 c 0
 443 -220 384 -275 279 -275 c 0
 227 -275 182 -259 154 -241 c 1
 197 -155 l 1
 217 -166 237 -173 261 -173 c 0
 289 -173 306 -167 306 -149 c 0
 306 -127 277 -120 212 -120 c 1
 225 -12 l 1xbc
 94 16 17 121 17 263 c 0
 17 432 126 554 295 554 c 0
 377 554 438 528 489 483 c 1
 407 368 l 1
 375 394 345 405 313 405 c 0
 255 405 223 371 223 263 c 0
 223 156 260 133 311 133 c 0
 344 133 367 144 401 170 c 1
 489 46 l 1xdc
EndSplineSet
Substitution2: "'smcp' Lowercase to Small Capitals lookup 24 subtable" ccedilla.sc
Substitution2: "'aalt' Access All Alternates lookup 0 subtable" ccedilla.sc
EndChar

StartChar: egrave
Encoding: 232 232 164
Width: 557
GlyphClass: 2
Flags: MW
HStem: -20 140<295 343 295 351.5> 211 112<217 350 216 541 217 217> 429 125<266 312.5> 692 20G<143 143 447 447>
VStem: 17 199<323 323 323 344> 350 195<323 330 330 330>
AnchorPoint: "Anchor-11" 294 0 basechar 0
AnchorPoint: "Anchor-10" 0 0 basechar 0
AnchorPoint: "Anchor-9" 285 534 basechar 0
AnchorPoint: "Anchor-8" 455 11 basechar 0
LayerCount: 2
Fore
SplineSet
394 613 m 1
 143 712 l 1
 217 856 l 1
 447 712 l 1
 394 613 l 1
545 274 m 0
 545 257 543 230 541 211 c 1
 217 211 l 1
 228 134 266 120 324 120 c 0
 362 120 399 135 445 167 c 1
 525 59 l 1
 472 16 398 -20 305 -20 c 0
 109 -20 17 101 17 266 c 0
 17 422 106 554 283 554 c 0
 441 554 545 453 545 274 c 0
350 323 m 1
 350 330 l 1
 349 384 338 429 287 429 c 0
 245 429 223 405 216 323 c 1
 350 323 l 1
EndSplineSet
Substitution2: "'smcp' Lowercase to Small Capitals lookup 24 subtable" egrave.sc
Substitution2: "'aalt' Access All Alternates lookup 0 subtable" egrave.sc
EndChar

StartChar: eacute
Encoding: 233 233 158
Width: 557
GlyphClass: 2
Flags: MW
HStem: -20 140<295 343 295 351.5> 211 112<217 350 216 541 217 217> 429 125<266 312.5>
VStem: 17 199<323 323 323 344> 350 195<323 330 330 330>
AnchorPoint: "Anchor-11" 294 0 basechar 0
AnchorPoint: "Anchor-10" 0 0 basechar 0
AnchorPoint: "Anchor-9" 285 534 basechar 0
AnchorPoint: "Anchor-8" 455 11 basechar 0
LayerCount: 2
Fore
SplineSet
176 613 m 1
 123 712 l 1
 353 856 l 1
 427 712 l 1
 176 613 l 1
545 274 m 0
 545 257 543 230 541 211 c 1
 217 211 l 1
 228 134 266 120 324 120 c 0
 362 120 399 135 445 167 c 1
 525 59 l 1
 472 16 398 -20 305 -20 c 0
 109 -20 17 101 17 266 c 0
 17 422 106 554 283 554 c 0
 441 554 545 453 545 274 c 0
350 323 m 1
 350 330 l 1
 349 384 338 429 287 429 c 0
 245 429 223 405 216 323 c 1
 350 323 l 1
EndSplineSet
Substitution2: "'smcp' Lowercase to Small Capitals lookup 24 subtable" eacute.sc
Substitution2: "'aalt' Access All Alternates lookup 0 subtable" eacute.sc
EndChar

StartChar: edieresis
Encoding: 235 235 162
Width: 557
GlyphClass: 2
Flags: MW
HStem: -20 140<295 343 295 351.5> 211 112<217 350 216 541 217 217> 429 125<266 312.5> 633 185<136 189 381 434>
VStem: 17 199<323 323 323 344> 67 190<700 751.5> 312 190<700 751.5> 350 195<323 330 330 330>
AnchorPoint: "Anchor-11" 294 0 basechar 0
AnchorPoint: "Anchor-10" 0 0 basechar 0
AnchorPoint: "Anchor-9" 281 742 basechar 0
AnchorPoint: "Anchor-8" 455 11 basechar 0
LayerCount: 2
Fore
SplineSet
162 633 m 0xf6
 110 633 67 674 67 726 c 0
 67 777 110 818 162 818 c 0
 216 818 257 777 257 726 c 0
 257 674 216 633 162 633 c 0xf6
407 633 m 0
 355 633 312 674 312 726 c 0
 312 777 355 818 407 818 c 0
 461 818 502 777 502 726 c 0
 502 674 461 633 407 633 c 0
545 274 m 0xe9
 545 257 543 230 541 211 c 1
 217 211 l 1
 228 134 266 120 324 120 c 0
 362 120 399 135 445 167 c 1
 525 59 l 1
 472 16 398 -20 305 -20 c 0
 109 -20 17 101 17 266 c 0
 17 422 106 554 283 554 c 0
 441 554 545 453 545 274 c 0xe9
350 323 m 1
 350 330 l 1
 349 384 338 429 287 429 c 0
 245 429 223 405 216 323 c 1
 350 323 l 1
EndSplineSet
Substitution2: "'smcp' Lowercase to Small Capitals lookup 24 subtable" edieresis.sc
Substitution2: "'aalt' Access All Alternates lookup 0 subtable" edieresis.sc
EndChar
StartChar: igrave
Encoding: 236 236 489
Width: 282
GlyphClass: 2
Flags: MW
HStem: 0 21G<42 240 42 42> 514 20G<42 240 240 240> 692 20G<-1 -1 303 303>
VStem: 42 198<0 534 0 534>
AnchorPoint: "Anchor-14" 0 0 basechar 0
AnchorPoint: "Anchor-13" 0 0 basechar 0
AnchorPoint: "Anchor-12" 153 856 basechar 0
AnchorPoint: "Anchor-11" 210 0 basechar 0
AnchorPoint: "Anchor-10" 141 0 basechar 0
LayerCount: 2
Back
Fore
SplineSet
73 856 m 1
 303 712 l 1
 250 613 l 1
 -1 712 l 1
 73 856 l 1
240 534 m 1
 240 0 l 1
 42 0 l 1
 42 534 l 1
 240 534 l 1
EndSplineSet
Substitution2: "'smcp' Lowercase to Small Capitals lookup 27 subtable" igrave.sc
Substitution2: "'aalt' Access All Alternates lookup 0 subtable" igrave.sc
EndChar

StartChar: iacute
Encoding: 237 237 178
Width: 282
GlyphClass: 2
Flags: MW
HStem: 0 21G<42 240 42 42> 514 20G<42 240 240 240>
VStem: 42 198<0 534>
AnchorPoint: "Anchor-11" 0 0 basechar 0
AnchorPoint: "Anchor-10" 0 0 basechar 0
AnchorPoint: "Anchor-9" 141 534 basechar 0
AnchorPoint: "Anchor-8" 210 0 basechar 0
LayerCount: 2
Fore
SplineSet
283 712 m 1
 32 613 l 1
 -21 712 l 1
 209 856 l 1
 283 712 l 1
240 0 m 1
 42 0 l 1
 42 534 l 1
 240 534 l 1
 240 0 l 1
EndSplineSet
Substitution2: "'smcp' Lowercase to Small Capitals lookup 24 subtable" iacute.sc
Substitution2: "'aalt' Access All Alternates lookup 0 subtable" iacute.sc
EndChar
StartChar: icircumflex
Encoding: 238 238 483
Width: 282
GlyphClass: 2
Flags: MW
HStem: 0 21G<42 240 42 42> 514 20G<42 240 240 240>
VStem: 42 198<0 534 0 534>
AnchorPoint: "Anchor-14" 0 0 basechar 0
AnchorPoint: "Anchor-13" 0 0 basechar 0
AnchorPoint: "Anchor-12" 143 840 basechar 0
AnchorPoint: "Anchor-11" 210 0 basechar 0
AnchorPoint: "Anchor-10" 141 0 basechar 0
LayerCount: 2
Back
Fore
SplineSet
4 612 m 1
 -63 689 l 1
 82 840 l 1
 200 840 l 1
 345 689 l 1
 278 612 l 1
 141 708 l 1
 4 612 l 1
240 534 m 1
 240 0 l 1
 42 0 l 1
 42 534 l 1
 240 534 l 1
EndSplineSet
Substitution2: "'smcp' Lowercase to Small Capitals lookup 27 subtable" icircumflex.sc
Substitution2: "'aalt' Access All Alternates lookup 0 subtable" icircumflex.sc
EndChar
StartChar: eth
Encoding: 240 240 392
Width: 584
GlyphClass: 2
Flags: MW
HStem: -20 141<267.5 317.5 267.5 377.5> 348 134<173.5 302.5> 556 20G<94 94> 743 20G<101 101>
VStem: 17 201<192 272.5 192 307> 360 202<250 326 326 326>
AnchorPoint: "Anchor-14" 0 0 basechar 0
AnchorPoint: "Anchor-13" 0 0 basechar 0
AnchorPoint: "Anchor-12" 315 744 basechar 0
AnchorPoint: "Anchor-11" 0 0 basechar 0
AnchorPoint: "Anchor-10" 287 0 basechar 0
LayerCount: 2
Back
Fore
SplineSet
366 674 m 1
 512 574 562 445 562 284 c 0
 562 122 469 -20 286 -20 c 0
 133 -20 17 74 17 233 c 0
 17 381 118 482 229 482 c 0
 280 482 317 469 352 447 c 1
 334 494 310 530 261 567 c 1
 216 521 l 1
 94 576 l 1
 139 624 l 1
 109 631 83 636 63 639 c 1
 101 763 l 1
 145 757 184 750 244 731 c 1
 320 811 l 1
 417 726 l 1
 366 674 l 1
290 121 m 0
 345 121 360 161 360 250 c 2
 360 326 l 1
 340 340 316 348 289 348 c 0
 241 348 218 310 218 235 c 0
 218 149 245 121 290 121 c 0
EndSplineSet
Substitution2: "'smcp' Lowercase to Small Capitals lookup 27 subtable" eth.sc
Substitution2: "'aalt' Access All Alternates lookup 0 subtable" eth.sc
EndChar
StartChar: ntilde
Encoding: 241 241 552
Width: 572
GlyphClass: 2
Flags: MW
HStem: 0 21G<42 240 42 42 337 535 337 337> 410 124<42 316> 514 20G<42 215 215 215> 534 20G 622 138<331.5 359 331.5 383> 665 138<223.5 251.5>
VStem: 42 198<0 357 0 534 0 534> 337 198<0 358 358 379>
AnchorPoint: "Anchor-14" 0 0 basechar 0
AnchorPoint: "Anchor-13" 0 0 basechar 0
AnchorPoint: "Anchor-12" 291 760 basechar 0
AnchorPoint: "Anchor-11" 0 0 basechar 0
AnchorPoint: "Anchor-10" 286 0 basechar 0
LayerCount: 2
Back
Fore
SplineSet
236 665 m 0x97
 211 665 199 650 183 622 c 1x9b
 90 667 l 1x97
 116 740 165 803 231 803 c 0
 295 803 316 760 347 760 c 0
 371 760 383 775 399 803 c 1
 492 758 l 1
 466 685 417 622 349 622 c 0x9b
 288 622 267 665 236 665 c 0x97
391 554 m 0x9b
 480 554 535 496 535 394 c 2
 535 0 l 1
 337 0 l 1
 337 358 l 2
 337 400 325 410 307 410 c 0
 286 410 263 393 240 357 c 1xcb
 240 0 l 1
 42 0 l 1
 42 534 l 1
 215 534 l 1xab
 229 479 l 1
 278 531 327 554 391 554 c 0x9b
EndSplineSet
Substitution2: "'smcp' Lowercase to Small Capitals lookup 27 subtable" ntilde.sc
Substitution2: "'aalt' Access All Alternates lookup 0 subtable" ntilde.sc
EndChar
StartChar: ocircumflex
Encoding: 244 244 559
Width: 584
GlyphClass: 2
Flags: MW
HStem: -20 142<267 317 267 377> 412 142<267 317>
VStem: 17 203<215 318.5 215 355> 364 203<215.5 319>
AnchorPoint: "Anchor-14" 0 0 basechar 0
AnchorPoint: "Anchor-13" 509 534 basechar 0
AnchorPoint: "Anchor-12" 294 840 basechar 0
AnchorPoint: "Anchor-11" 415 0 basechar 0
AnchorPoint: "Anchor-10" 292 0 basechar 0
LayerCount: 2
Back
Fore
SplineSet
155 612 m 1
 88 689 l 1
 233 840 l 1
 351 840 l 1
 496 689 l 1
 429 612 l 1
 292 708 l 1
 155 612 l 1
292 554 m 0
 460 554 567 452 567 266 c 0
 567 92 462 -20 292 -20 c 0
 124 -20 17 82 17 268 c 0
 17 442 122 554 292 554 c 0
292 412 m 0
 242 412 220 369 220 268 c 0
 220 162 242 122 292 122 c 0
 342 122 364 165 364 266 c 0
 364 372 342 412 292 412 c 0
EndSplineSet
Substitution2: "'smcp' Lowercase to Small Capitals lookup 27 subtable" ocircumflex.sc
Substitution2: "'aalt' Access All Alternates lookup 0 subtable" ocircumflex.sc
EndChar
StartChar: otilde
Encoding: 245 245 591
Width: 584
GlyphClass: 2
Flags: MW
HStem: -20 142<267 317 267 377> 412 142<267 317> 622 138<332.5 360 332.5 384> 665 138<224.5 252.5>
VStem: 17 203<215 318.5 215 355> 364 203<215.5 319>
AnchorPoint: "Anchor-14" 0 0 basechar 0
AnchorPoint: "Anchor-13" 509 534 basechar 0
AnchorPoint: "Anchor-12" 292 760 basechar 0
AnchorPoint: "Anchor-11" 415 0 basechar 0
AnchorPoint: "Anchor-10" 292 0 basechar 0
LayerCount: 2
Back
Fore
SplineSet
350 622 m 0xec
 289 622 268 665 237 665 c 0xdc
 212 665 200 650 184 622 c 1xec
 91 667 l 1xdc
 117 740 166 803 232 803 c 0
 296 803 317 760 348 760 c 0
 372 760 384 775 400 803 c 1
 493 758 l 1
 467 685 418 622 350 622 c 0xec
292 554 m 0
 460 554 567 452 567 266 c 0
 567 92 462 -20 292 -20 c 0
 124 -20 17 82 17 268 c 0
 17 442 122 554 292 554 c 0
292 412 m 0
 242 412 220 369 220 268 c 0
 220 162 242 122 292 122 c 0
 342 122 364 165 364 266 c 0
 364 372 342 412 292 412 c 0
EndSplineSet
Substitution2: "'smcp' Lowercase to Small Capitals lookup 27 subtable" otilde.sc
Substitution2: "'aalt' Access All Alternates lookup 0 subtable" otilde.sc
EndChar

StartChar: divide
Encoding: 247 247 1089
Width: 530
Flags: MW
HStem: -20 21G<236.5 293.5> -20 206<236.5 293.5> 257 150<40 490 40 490> 478 206<236.5 293.5>
VStem: 162 206<55 111 553 609>
LayerCount: 2
Fore
SplineSet
265 684 m 0xb8
 322 684 368 637 368 581 c 0
 368 525 322 478 265 478 c 0
 208 478 162 525 162 581 c 0
 162 637 208 684 265 684 c 0xb8
40 407 m 1
 490 407 l 1
 490 257 l 1
 40 257 l 1
 40 407 l 1
265 186 m 0x78
 322 186 368 139 368 83 c 0
 368 27 322 -20 265 -20 c 0
 208 -20 162 27 162 83 c 0
 162 139 208 186 265 186 c 0x78
EndSplineSet
Substitution2: "'onum' Oldstyle Figures lookup 22 subtable" divide.osf
Substitution2: "'tnum' Tabular Numbers lookup 21 subtable" divide.tf
AlternateSubs2: "'aalt' Access All Alternates lookup 1 subtable" divide.tf divide.osf
EndChar

StartChar: oslash
Encoding: 248 248 216
Width: 584
GlyphClass: 2
Flags: MW
HStem: -20 142<292 317 288 377> 412 142<267 292 207 296>
VStem: 17 193<248.5 318.5 248.5 355> 374 193<215.5 285.5>
AnchorPoint: "Anchor-11" 0 0 basechar 0
AnchorPoint: "Anchor-10" 0 0 basechar 0
AnchorPoint: "Anchor-9" 293 534 basechar 0
AnchorPoint: "Anchor-8" 0 0 basechar 0
LayerCount: 2
Fore
SplineSet
453 512 m 1
 525 466 567 382 567 266 c 0
 567 92 462 -20 292 -20 c 1
 270 -19 l 1
 233 -138 l 1
 93 -97 l 1
 131 22 l 1
 59 69 17 152 17 268 c 0
 17 442 122 554 292 554 c 1
 314 553 l 1
 353 673 l 1
 493 632 l 1
 453 512 l 1
292 412 m 2
 242 412 210 369 210 268 c 0
 210 229 213 200 218 179 c 1
 296 412 l 1
 292 412 l 2
292 122 m 2
 342 122 374 165 374 266 c 0
 374 305 371 333 367 354 c 1
 366 353 l 1
 288 122 l 1
 292 122 l 2
EndSplineSet
Substitution2: "'smcp' Lowercase to Small Capitals lookup 24 subtable" oslash.sc
Substitution2: "'aalt' Access All Alternates lookup 0 subtable" oslash.sc
EndChar

StartChar: ugrave
Encoding: 249 249 244
Width: 566
GlyphClass: 2
Flags: MW
HStem: -20 21G<134 219.5> 0 21G<351 524 351 351> 0 124<258.5 524 258.5 351> 514 20G<37 235 235 235 326 524 524 524> 692 20G<139 139 443 443>
VStem: 37 198<155 176 176 534> 326 198<168 534>
AnchorPoint: "Anchor-11" 0 0 basechar 0
AnchorPoint: "Anchor-10" 0 0 basechar 0
AnchorPoint: "Anchor-9" 281 534 basechar 0
AnchorPoint: "Anchor-8" 534 0 basechar 0
LayerCount: 2
Fore
SplineSet
443 712 m 1x5e
 390 613 l 1
 139 712 l 1
 213 856 l 1
 443 712 l 1x5e
524 0 m 1
 351 0 l 1x5e
 344 58 l 1
 307 6 253 -20 186 -20 c 0x9e
 82 -20 37 48 37 150 c 2
 37 534 l 1
 235 534 l 1
 235 176 l 2
 235 134 249 124 268 124 c 0
 286 124 308 137 326 168 c 1x3e
 326 534 l 1
 524 534 l 1
 524 0 l 1
EndSplineSet
Substitution2: "'smcp' Lowercase to Small Capitals lookup 24 subtable" ugrave.sc
Substitution2: "'aalt' Access All Alternates lookup 0 subtable" ugrave.sc
EndChar

StartChar: udieresis
Encoding: 252 252 243
Width: 566
GlyphClass: 2
Flags: MW
HStem: -20 21G<134 219.5> 0 21G<351 524 351 351> 0 124<258.5 524 258.5 351> 514 20G<37 235 235 235 326 524 524 524> 633 185<132 185 377 430>
VStem: 37 198<155 176 176 534> 63 190<700 751.5> 308 190<700 751.5> 326 198<168 534>
AnchorPoint: "Anchor-11" 0 0 basechar 0
AnchorPoint: "Anchor-10" 0 0 basechar 0
AnchorPoint: "Anchor-9" 277 742 basechar 0
AnchorPoint: "Anchor-8" 534 0 basechar 0
LayerCount: 2
Fore
SplineSet
158 818 m 0x5b
 212 818 253 777 253 726 c 0
 253 674 212 633 158 633 c 0
 106 633 63 674 63 726 c 0
 63 777 106 818 158 818 c 0x5b
403 818 m 0
 457 818 498 777 498 726 c 0
 498 674 457 633 403 633 c 0
 351 633 308 674 308 726 c 0
 308 777 351 818 403 818 c 0
524 0 m 1x5c80
 351 0 l 1x5c80
 344 58 l 1
 307 6 253 -20 186 -20 c 0x9c80
 82 -20 37 48 37 150 c 2
 37 534 l 1
 235 534 l 1
 235 176 l 2
 235 134 249 124 268 124 c 0
 286 124 308 137 326 168 c 1x3c80
 326 534 l 1
 524 534 l 1
 524 0 l 1x5c80
EndSplineSet
Substitution2: "'smcp' Lowercase to Small Capitals lookup 24 subtable" udieresis.sc
Substitution2: "'aalt' Access All Alternates lookup 0 subtable" udieresis.sc
EndChar
StartChar: yacute
Encoding: 253 253 704
Width: 534
GlyphClass: 2
Flags: MW
HStem: -228 135<32 53> 0 21G<137 205 137 137> 514 20G<-15 195 195 195 345 549 549 549>
VStem: -15 564<534 534>
AnchorPoint: "Anchor-14" 0 0 basechar 0
AnchorPoint: "Anchor-13" 0 0 basechar 0
AnchorPoint: "Anchor-12" 267 856 basechar 0
AnchorPoint: "Anchor-11" 0 0 basechar 0
AnchorPoint: "Anchor-10" 262 -215 basechar 0
LayerCount: 2
Back
Fore
SplineSet
335 856 m 1
 409 712 l 1
 158 613 l 1
 105 712 l 1
 335 856 l 1
549 534 m 1
 385 1 l 2
 340 -147 232 -223 53 -228 c 1
 32 -93 l 1
 134 -83 177 -60 205 0 c 1
 137 0 l 1
 -15 534 l 1
 195 534 l 1
 262 121 l 1
 345 534 l 1
 549 534 l 1
EndSplineSet
Substitution2: "'smcp' Lowercase to Small Capitals lookup 27 subtable" yacute.sc
Substitution2: "'aalt' Access All Alternates lookup 0 subtable" yacute.sc
EndChar

StartChar: Amacron
Encoding: 256 256 7
Width: 601
GlyphClass: 2
Flags: MW
HStem: 0 21G<-25 190 -25 -25 408 408 408 626> 135 144<245 352 245 381 216 352> 552 144<298 298> 676 20G<178 424 424 424> 774 134<138 463 138 463>
VStem: 138 325<774 908 774 908>
AnchorPoint: "Anchor-11" 0 0 basechar 0
AnchorPoint: "Anchor-10" 150 696 basechar 0
AnchorPoint: "Anchor-9" 301 696 basechar 0
AnchorPoint: "Anchor-8" 526 0 basechar 0
LayerCount: 2
Fore
SplineSet
463 774 m 1xdc
 138 774 l 1
 138 908 l 1
 463 908 l 1
 463 774 l 1xdc
381 135 m 1
 216 135 l 1
 190 0 l 1
 -25 0 l 1
 178 696 l 1
 424 696 l 1
 626 0 l 1
 408 0 l 1
 381 135 l 1
352 279 m 1
 298 552 l 1xec
 245 279 l 1
 352 279 l 1
EndSplineSet
Substitution2: "'c2sc' Capitals to Small Capitals lookup 23 subtable" amacron.sc
Substitution2: "'aalt' Access All Alternates lookup 0 subtable" amacron.sc
Position2: "'cpsp' Capital Spacing lookup 0 subtable" dx=5 dy=0 dh=10 dv=0
EndChar

StartChar: Abreve
Encoding: 258 258 3
Width: 601
GlyphClass: 2
Flags: MW
HStem: 0 21G<-25 190 -25 -25 408 408 408 626> 135 144<245 352 245 381 216 352> 552 144<298 298> 676 20G<178 424 424 424> 746 134<278.5 323.5 278.5 361>
VStem: -25 651<0 0>
AnchorPoint: "Anchor-11" 0 0 basechar 0
AnchorPoint: "Anchor-10" 150 696 basechar 0
AnchorPoint: "Anchor-9" 301 696 basechar 0
AnchorPoint: "Anchor-8" 526 0 basechar 0
LayerCount: 2
Fore
SplineSet
301 746 m 0xdc
 181 746 124 840 116 932 c 1
 219 949 l 1
 230 912 256 880 301 880 c 0
 346 880 372 912 383 949 c 1
 486 932 l 1
 478 840 421 746 301 746 c 0xdc
381 135 m 1
 216 135 l 1
 190 0 l 1
 -25 0 l 1
 178 696 l 1
 424 696 l 1
 626 0 l 1
 408 0 l 1
 381 135 l 1
352 279 m 1
 298 552 l 1xec
 245 279 l 1
 352 279 l 1
EndSplineSet
Substitution2: "'c2sc' Capitals to Small Capitals lookup 23 subtable" abreve.sc
Substitution2: "'aalt' Access All Alternates lookup 0 subtable" abreve.sc
Position2: "'cpsp' Capital Spacing lookup 0 subtable" dx=5 dy=0 dh=10 dv=0
EndChar
StartChar: Aogonek
Encoding: 260 260 28
Width: 601
GlyphClass: 2
Flags: MW
HStem: -254 115<436 440.5> 0 21G<-25 190 -25 -25 516 626 516 516> 135 144<245 352 245 381 216 352> 552 144<298 298> 676 20G<178 424 424 424>
VStem: 267 134<-110 -89>
AnchorPoint: "Anchor-14" 0 0 basechar 0
AnchorPoint: "Anchor-13" 0 0 basechar 0
AnchorPoint: "Anchor-12" 301 696 basechar 0
AnchorPoint: "Anchor-11" 526 0 basechar 0
AnchorPoint: "Anchor-10" 301 0 basechar 0
LayerCount: 2
Back
Fore
SplineSet
516 0 m 1xec
 420 -32 401 -71 401 -95 c 0
 401 -125 420 -139 452 -139 c 0
 471 -139 491 -136 513 -131 c 1
 501 -246 l 1
 479 -251 454 -254 427 -254 c 0
 337 -254 267 -208 267 -128 c 0
 267 -50 322 0 401 33 c 1
 381 135 l 1
 216 135 l 1
 190 0 l 1
 -25 0 l 1
 178 696 l 1
 424 696 l 1
 626 0 l 1
 516 0 l 1xec
245 279 m 1
 352 279 l 1
 298 552 l 1xf4
 245 279 l 1
EndSplineSet
Substitution2: "'c2sc' Capitals to Small Capitals lookup 26 subtable" aogonek.sc
Substitution2: "'aalt' Access All Alternates lookup 0 subtable" aogonek.sc
Position2: "'cpsp' Capital Spacing lookup 0 subtable" dx=5 dy=0 dh=10 dv=0
EndChar
StartChar: aogonek
Encoding: 261 261 362
Width: 551
GlyphClass: 2
Flags: MW
HStem: -270 115<416 420.5> -20 21G<137.5 221.5> -20 139<137.5 264.5> 230 103<273 290 290 311> 414 140<233.5 263.5>
VStem: 15 193<154 190 154 209> 247 134<-126 -104> 311 193<154 173 173 230 230 230 333 346 346 357 154 373>
AnchorPoint: "Anchor-14" 0 0 basechar 0
AnchorPoint: "Anchor-13" 0 0 basechar 0
AnchorPoint: "Anchor-12" 277 534 basechar 0
AnchorPoint: "Anchor-11" 506 -16 basechar 0
AnchorPoint: "Anchor-10" 277 0 basechar 0
LayerCount: 2
Back
Fore
SplineSet
496 -16 m 1xdd
 400 -48 381 -87 381 -111 c 0
 381 -141 400 -155 432 -155 c 0
 451 -155 471 -152 493 -147 c 1
 481 -262 l 1
 459 -267 434 -270 407 -270 c 0
 317 -270 247 -224 247 -144 c 0xde
 247 -64 304 -14 385 19 c 1
 373 29 361 42 352 58 c 1
 313 -1 252 -20 191 -20 c 0
 84 -20 15 51 15 150 c 0
 15 268 105 333 273 333 c 2
 311 333 l 1
 311 346 l 2
 311 400 293 414 234 414 c 0
 203 414 149 404 96 386 c 1
 53 512 l 1
 120 539 203 554 264 554 c 0
 434 554 504 489 504 357 c 2
 504 173 l 2
 504 135 512 120 536 111 c 1
 496 -16 l 1xdd
252 119 m 0xbd
 277 119 298 133 311 151 c 1
 311 230 l 1
 290 230 l 2
 234 230 208 211 208 169 c 0
 208 139 225 119 252 119 c 0xbd
EndSplineSet
Substitution2: "'smcp' Lowercase to Small Capitals lookup 27 subtable" aogonek.sc
Substitution2: "'aalt' Access All Alternates lookup 0 subtable" aogonek.sc
EndChar
StartChar: Cacute
Encoding: 262 262 44
Width: 584
GlyphClass: 2
Flags: MW
HStem: -20 155<324.5 390.5 324.5 403> 568 148<321 384>
VStem: 20 214<276.5 423.5 276.5 466>
AnchorPoint: "Anchor-14" 375 354 basechar 0
AnchorPoint: "Anchor-13" 0 0 basechar 0
AnchorPoint: "Anchor-12" 360 984 basechar 0
AnchorPoint: "Anchor-11" 0 0 basechar 0
AnchorPoint: "Anchor-10" 339 0 basechar 0
LayerCount: 2
Back
Fore
SplineSet
437 984 m 1
 510 840 l 1
 256 749 l 1
 206 848 l 1
 437 984 l 1
348 716 m 0
 445 716 517 685 576 634 c 1
 478 519 l 1
 445 549 408 568 360 568 c 0
 282 568 234 497 234 350 c 0
 234 203 283 135 366 135 c 0
 415 135 453 161 494 193 c 1
 584 77 l 1
 533 26 452 -20 354 -20 c 0
 151 -20 20 109 20 350 c 0
 20 582 156 716 348 716 c 0
EndSplineSet
Substitution2: "'c2sc' Capitals to Small Capitals lookup 26 subtable" cacute.sc
Substitution2: "'locl' Localized Forms in Latin lookup 7 subtable" Cacute.loclPLK
AlternateSubs2: "'aalt' Access All Alternates lookup 1 subtable" Cacute.loclPLK cacute.sc
Position2: "'cpsp' Capital Spacing lookup 0 subtable" dx=5 dy=0 dh=10 dv=0
EndChar

StartChar: cacute
Encoding: 263 263 148
Width: 479
GlyphClass: 2
Flags: MW
HStem: -20 153<285.5 327.5 285.5 340> 405 149<284 329>
VStem: 17 206<209.5 317 209.5 347.5>
AnchorPoint: "Anchor-11" 277 0 basechar 0
AnchorPoint: "Anchor-10" 0 0 basechar 0
AnchorPoint: "Anchor-9" 292 534 basechar 0
AnchorPoint: "Anchor-8" 0 0 basechar 0
LayerCount: 2
Fore
SplineSet
434 712 m 1
 183 613 l 1
 130 712 l 1
 360 856 l 1
 434 712 l 1
295 554 m 0
 377 554 438 528 489 483 c 1
 407 368 l 1
 375 394 345 405 313 405 c 0
 255 405 223 371 223 263 c 0
 223 156 260 133 311 133 c 0
 344 133 367 144 401 170 c 1
 489 46 l 1
 440 6 380 -20 300 -20 c 0
 124 -20 17 96 17 263 c 0
 17 432 126 554 295 554 c 0
EndSplineSet
Substitution2: "'smcp' Lowercase to Small Capitals lookup 24 subtable" cacute.sc
Substitution2: "'locl' Localized Forms in Latin lookup 7 subtable" cacute.loclPLK
AlternateSubs2: "'aalt' Access All Alternates lookup 1 subtable" cacute.loclPLK cacute.sc
EndChar

StartChar: Ccircumflex
Encoding: 264 264 18
Width: 584
GlyphClass: 2
Flags: MW
HStem: -20 155<324.5 390.5 324.5 403> 568 148<321 384>
VStem: 20 214<276.5 423.5 276.5 466>
AnchorPoint: "Anchor-11" 339 0 basechar 0
AnchorPoint: "Anchor-10" 0 0 basechar 0
AnchorPoint: "Anchor-9" 358 696 basechar 0
AnchorPoint: "Anchor-8" 0 0 basechar 0
LayerCount: 2
Fore
SplineSet
358 838 m 1
 221 752 l 1
 154 829 l 1
 299 970 l 1
 417 970 l 1
 562 829 l 1
 495 752 l 1
 358 838 l 1
348 716 m 0
 445 716 517 685 576 634 c 1
 478 519 l 1
 445 549 408 568 360 568 c 0
 282 568 234 497 234 350 c 0
 234 203 283 135 366 135 c 0
 415 135 453 161 494 193 c 1
 584 77 l 1
 533 26 452 -20 354 -20 c 0
 151 -20 20 109 20 350 c 0
 20 582 156 716 348 716 c 0
EndSplineSet
Substitution2: "'c2sc' Capitals to Small Capitals lookup 23 subtable" ccircumflex.sc
Substitution2: "'aalt' Access All Alternates lookup 0 subtable" ccircumflex.sc
Position2: "'cpsp' Capital Spacing lookup 0 subtable" dx=5 dy=0 dh=10 dv=0
EndChar

StartChar: Cdotaccent
Encoding: 266 266 19
Width: 584
GlyphClass: 2
Flags: MW
HStem: -20 155<324.5 390.5 324.5 403> 568 148<321 384> 743 212<325.5 390.5>
VStem: 20 214<276.5 423.5 276.5 466> 247 222<819 879>
AnchorPoint: "Anchor-11" 339 0 basechar 0
AnchorPoint: "Anchor-10" 0 0 basechar 0
AnchorPoint: "Anchor-9" 358 696 basechar 0
AnchorPoint: "Anchor-8" 0 0 basechar 0
LayerCount: 2
Fore
SplineSet
358 955 m 0
 423 955 469 909 469 849 c 0
 469 789 423 743 358 743 c 0
 293 743 247 789 247 849 c 0
 247 909 293 955 358 955 c 0
348 716 m 0xd0
 445 716 517 685 576 634 c 1
 478 519 l 1
 445 549 408 568 360 568 c 0
 282 568 234 497 234 350 c 0
 234 203 283 135 366 135 c 0
 415 135 453 161 494 193 c 1
 584 77 l 1
 533 26 452 -20 354 -20 c 0
 151 -20 20 109 20 350 c 0
 20 582 156 716 348 716 c 0xd0
EndSplineSet
Substitution2: "'c2sc' Capitals to Small Capitals lookup 23 subtable" cdotaccent.sc
Substitution2: "'aalt' Access All Alternates lookup 0 subtable" cdotaccent.sc
Position2: "'cpsp' Capital Spacing lookup 0 subtable" dx=5 dy=0 dh=10 dv=0
EndChar

StartChar: cdotaccent
Encoding: 267 267 152
Width: 479
GlyphClass: 2
Flags: MW
HStem: -20 153<285.5 327.5 285.5 340> 405 149<284 329> 617 212<259.5 324.5>
VStem: 17 206<209.5 317 209.5 347.5> 181 222<693 753>
AnchorPoint: "Anchor-11" 277 0 basechar 0
AnchorPoint: "Anchor-10" 0 0 basechar 0
AnchorPoint: "Anchor-9" 292 534 basechar 0
AnchorPoint: "Anchor-8" 0 0 basechar 0
LayerCount: 2
Fore
SplineSet
292 829 m 0xe8
 357 829 403 783 403 723 c 0
 403 663 357 617 292 617 c 0
 227 617 181 663 181 723 c 0
 181 783 227 829 292 829 c 0xe8
295 554 m 0
 377 554 438 528 489 483 c 1
 407 368 l 1
 375 394 345 405 313 405 c 0
 255 405 223 371 223 263 c 0
 223 156 260 133 311 133 c 0
 344 133 367 144 401 170 c 1
 489 46 l 1
 440 6 380 -20 300 -20 c 0
 124 -20 17 96 17 263 c 0xf0
 17 432 126 554 295 554 c 0
EndSplineSet
Substitution2: "'smcp' Lowercase to Small Capitals lookup 24 subtable" cdotaccent.sc
Substitution2: "'aalt' Access All Alternates lookup 0 subtable" cdotaccent.sc
EndChar
StartChar: Ccaron
Encoding: 268 268 46
Width: 584
GlyphClass: 2
Flags: MW
HStem: -20 155<324.5 390.5 324.5 403> 568 148<321 384>
VStem: 20 214<276.5 423.5 276.5 466>
AnchorPoint: "Anchor-14" 375 354 basechar 0
AnchorPoint: "Anchor-13" 0 0 basechar 0
AnchorPoint: "Anchor-12" 360 965 basechar 0
AnchorPoint: "Anchor-11" 0 0 basechar 0
AnchorPoint: "Anchor-10" 339 0 basechar 0
LayerCount: 2
Back
Fore
SplineSet
495 965 m 1
 562 888 l 1
 417 747 l 1
 299 747 l 1
 154 888 l 1
 221 965 l 1
 358 879 l 1
 495 965 l 1
348 716 m 0
 445 716 517 685 576 634 c 1
 478 519 l 1
 445 549 408 568 360 568 c 0
 282 568 234 497 234 350 c 0
 234 203 283 135 366 135 c 0
 415 135 453 161 494 193 c 1
 584 77 l 1
 533 26 452 -20 354 -20 c 0
 151 -20 20 109 20 350 c 0
 20 582 156 716 348 716 c 0
EndSplineSet
Substitution2: "'c2sc' Capitals to Small Capitals lookup 26 subtable" ccaron.sc
Substitution2: "'aalt' Access All Alternates lookup 0 subtable" ccaron.sc
Position2: "'cpsp' Capital Spacing lookup 0 subtable" dx=5 dy=0 dh=10 dv=0
EndChar
StartChar: ccaron
Encoding: 269 269 383
Width: 479
GlyphClass: 2
Flags: MW
HStem: -20 153<285.5 327.5 285.5 340> 405 149<284 329> 733 20G<88 88 496 496>
VStem: 17 206<209.5 317 209.5 347.5>
AnchorPoint: "Anchor-14" 0 0 basechar 0
AnchorPoint: "Anchor-13" 0 0 basechar 0
AnchorPoint: "Anchor-12" 294 830 basechar 0
AnchorPoint: "Anchor-11" 0 0 basechar 0
AnchorPoint: "Anchor-10" 277 0 basechar 0
LayerCount: 2
Back
Fore
SplineSet
429 830 m 1
 496 753 l 1
 351 602 l 1
 233 602 l 1
 88 753 l 1
 155 830 l 1
 292 734 l 1
 429 830 l 1
295 554 m 0
 377 554 438 528 489 483 c 1
 407 368 l 1
 375 394 345 405 313 405 c 0
 255 405 223 371 223 263 c 0
 223 156 260 133 311 133 c 0
 344 133 367 144 404 167 c 1
 489 46 l 1
 440 6 380 -20 300 -20 c 0
 124 -20 17 96 17 263 c 0
 17 432 126 554 295 554 c 0
EndSplineSet
Substitution2: "'smcp' Lowercase to Small Capitals lookup 27 subtable" ccaron.sc
Substitution2: "'aalt' Access All Alternates lookup 0 subtable" ccaron.sc
EndChar

StartChar: Dcaron
Encoding: 270 270 22
Width: 656
GlyphClass: 2
Flags: MW
HStem: 0 145<249 278> 551 145<249 249 249 266 266 291>
VStem: 43 206<145 551 145 696 145 696> 424 212<272 430>
AnchorPoint: "Anchor-11" 0 0 basechar 0
AnchorPoint: "Anchor-10" 0 0 basechar 0
AnchorPoint: "Anchor-9" 291 696 basechar 0
AnchorPoint: "Anchor-8" 0 0 basechar 0
LayerCount: 2
Fore
SplineSet
495 888 m 1
 350 747 l 1
 232 747 l 1
 87 888 l 1
 154 965 l 1
 291 879 l 1
 428 965 l 1
 495 888 l 1
266 696 m 2
 457 696 636 637 636 351 c 0
 636 73 472 0 278 0 c 2
 43 0 l 1
 43 696 l 1
 266 696 l 2
249 551 m 1
 249 145 l 1
 290 145 l 2
 383 145 424 193 424 351 c 0
 424 509 379 551 291 551 c 2
 249 551 l 1
EndSplineSet
Substitution2: "'c2sc' Capitals to Small Capitals lookup 23 subtable" dcaron.sc
Substitution2: "'aalt' Access All Alternates lookup 0 subtable" dcaron.sc
Position2: "'cpsp' Capital Spacing lookup 0 subtable" dx=5 dy=0 dh=10 dv=0
EndChar

StartChar: dcaron
Encoding: 271 271 155
Width: 803
GlyphClass: 2
Flags: MW
HStem: -20 142<155.5 306.5> 0 21G<383 559 383 383> 413 141<179 315> 724 20G<559 559> 740 20G<633 633> 744 20G
VStem: 22 203<204 322 204 353> 361 198<169 383 383 383 512 744 0 764 0 764>
LayerCount: 2
Fore
SplineSet
361 764 m 1x67
 559 744 l 1
 559 0 l 1
 383 0 l 1x73
 376 55 l 1
 348 18 302 -20 225 -20 c 0xa7
 86 -20 22 94 22 270 c 0
 22 436 108 554 250 554 c 0
 290 554 331 539 361 512 c 1
 361 764 l 1x67
774 743 m 1x67
 726 509 l 1
 628 517 l 1
 633 760 l 1xab
 774 743 l 1x67
294 122 m 0
 319 122 342 136 361 169 c 1
 361 383 l 1
 343 402 327 413 303 413 c 0
 259 413 225 376 225 268 c 0
 225 140 256 122 294 122 c 0
EndSplineSet
Substitution2: "'smcp' Lowercase to Small Capitals lookup 24 subtable" dcaron.sc
Substitution2: "'aalt' Access All Alternates lookup 0 subtable" dcaron.sc
EndChar
StartChar: Dcroat
Encoding: 272 272 59
Width: 671
GlyphClass: 2
Flags: MW
HStem: 0 145<264 293> 295 116<10 58 10 58 264 385> 551 145<264 281 281 306 264 264>
VStem: 58 206<145 295 145 295 145 295 411 551> 439 212<272 430>
AnchorPoint: "Anchor-14" 343 348 basechar 0
AnchorPoint: "Anchor-13" 0 0 basechar 0
AnchorPoint: "Anchor-12" 306 696 basechar 0
AnchorPoint: "Anchor-11" 0 0 basechar 0
AnchorPoint: "Anchor-10" 325 0 basechar 0
LayerCount: 2
Back
Fore
SplineSet
281 696 m 2
 472 696 651 637 651 351 c 0
 651 73 487 0 293 0 c 2
 58 0 l 1
 58 295 l 1
 10 295 l 1
 10 411 l 1
 58 411 l 1
 58 696 l 1
 281 696 l 2
305 145 m 2
 398 145 439 193 439 351 c 0
 439 509 394 551 306 551 c 2
 264 551 l 1
 264 411 l 1
 385 411 l 1
 385 295 l 1
 264 295 l 1
 264 145 l 1
 305 145 l 2
EndSplineSet
Substitution2: "'c2sc' Capitals to Small Capitals lookup 26 subtable" dcroat.sc
Substitution2: "'aalt' Access All Alternates lookup 0 subtable" dcroat.sc
Position2: "'cpsp' Capital Spacing lookup 0 subtable" dx=5 dy=0 dh=10 dv=0
EndChar

StartChar: dcroat
Encoding: 273 273 156
Width: 601
GlyphClass: 2
Flags: MW
HStem: -20 142<155.5 306.5> 0 21G<383 559 383 383> 413 141<179 315> 590 106<245 361 245 245 559 611> 724 20G<559 559> 744 20G
VStem: 22 203<204 322 204 353> 361 198<169 383 383 383 512 590 0 590 696 744 0 764 0 764>
LayerCount: 2
Fore
SplineSet
611 696 m 1x77
 611 590 l 1
 559 590 l 1
 559 0 l 1
 383 0 l 1x77
 376 55 l 1
 348 18 302 -20 225 -20 c 0
 86 -20 22 94 22 270 c 0
 22 436 108 554 250 554 c 0
 290 554 331 539 361 512 c 1
 361 590 l 1
 245 590 l 1
 230 696 l 1
 361 696 l 1
 361 764 l 1xb7
 559 744 l 1x7b
 559 696 l 1
 611 696 l 1x77
294 122 m 0xb7
 319 122 342 136 361 169 c 1
 361 383 l 1
 343 402 327 413 303 413 c 0
 259 413 225 376 225 268 c 0
 225 140 256 122 294 122 c 0xb7
EndSplineSet
Substitution2: "'smcp' Lowercase to Small Capitals lookup 24 subtable" dcroat.sc
Substitution2: "'aalt' Access All Alternates lookup 0 subtable" dcroat.sc
EndChar
StartChar: Emacron
Encoding: 274 274 85
Width: 520
GlyphClass: 2
Flags: MW
HStem: 0 144<249 495 249 495> 284 139<249 451 249 451> 553 143<249 479 249 249> 774 134<109 434 109 434>
VStem: 43 206<144 284 423 553> 109 325<774 908 774 908>
AnchorPoint: "Anchor-14" 0 0 basechar 0
AnchorPoint: "Anchor-13" 0 0 basechar 0
AnchorPoint: "Anchor-12" 274 908 basechar 0
AnchorPoint: "Anchor-11" 465 0 basechar 0
AnchorPoint: "Anchor-10" 269 0 basechar 0
LayerCount: 2
Back
Fore
SplineSet
434 774 m 1xf4
 109 774 l 1
 109 908 l 1
 434 908 l 1
 434 774 l 1xf4
500 696 m 1
 479 553 l 1
 249 553 l 1
 249 423 l 1
 451 423 l 1
 451 284 l 1
 249 284 l 1
 249 144 l 1
 495 144 l 1
 495 0 l 1
 43 0 l 1
 43 696 l 1xf8
 500 696 l 1
EndSplineSet
Substitution2: "'c2sc' Capitals to Small Capitals lookup 26 subtable" emacron.sc
Substitution2: "'aalt' Access All Alternates lookup 0 subtable" emacron.sc
Position2: "'cpsp' Capital Spacing lookup 0 subtable" dx=5 dy=0 dh=10 dv=0
EndChar

StartChar: Ebreve
Encoding: 276 276 26
Width: 520
GlyphClass: 2
Flags: MW
HStem: 0 144<249 495 249 495> 284 139<249 451 249 451> 553 143<249 479 249 249> 746 134<249.5 294.5 249.5 332>
VStem: 43 206<144 284 423 553>
AnchorPoint: "Anchor-11" 269 0 basechar 0
AnchorPoint: "Anchor-10" 43 696 basechar 0
AnchorPoint: "Anchor-9" 272 696 basechar 0
AnchorPoint: "Anchor-8" 465 0 basechar 0
LayerCount: 2
Fore
SplineSet
272 746 m 0
 152 746 95 840 87 932 c 1
 190 949 l 1
 201 912 227 880 272 880 c 0
 317 880 343 912 354 949 c 1
 457 932 l 1
 449 840 392 746 272 746 c 0
479 553 m 1
 249 553 l 1
 249 423 l 1
 451 423 l 1
 451 284 l 1
 249 284 l 1
 249 144 l 1
 495 144 l 1
 495 0 l 1
 43 0 l 1
 43 696 l 1
 500 696 l 1
 479 553 l 1
EndSplineSet
Substitution2: "'c2sc' Capitals to Small Capitals lookup 23 subtable" ebreve.sc
Substitution2: "'aalt' Access All Alternates lookup 0 subtable" ebreve.sc
Position2: "'cpsp' Capital Spacing lookup 0 subtable" dx=5 dy=0 dh=10 dv=0
EndChar
StartChar: Edotaccent
Encoding: 278 278 80
Width: 520
GlyphClass: 2
Flags: MW
HStem: 0 144<249 495 249 495> 284 139<249 451 249 451> 553 143<249 479 249 249> 743 212<239.5 304.5>
VStem: 43 206<144 284 423 553> 161 222<819 879>
AnchorPoint: "Anchor-14" 0 0 basechar 0
AnchorPoint: "Anchor-13" 0 0 basechar 0
AnchorPoint: "Anchor-12" 274 955 basechar 0
AnchorPoint: "Anchor-11" 465 0 basechar 0
AnchorPoint: "Anchor-10" 269 0 basechar 0
LayerCount: 2
Back
Fore
SplineSet
272 955 m 0xf4
 337 955 383 909 383 849 c 0
 383 789 337 743 272 743 c 0
 207 743 161 789 161 849 c 0
 161 909 207 955 272 955 c 0xf4
500 696 m 1
 479 553 l 1
 249 553 l 1
 249 423 l 1
 451 423 l 1
 451 284 l 1
 249 284 l 1
 249 144 l 1
 495 144 l 1
 495 0 l 1
 43 0 l 1
 43 696 l 1xe8
 500 696 l 1
EndSplineSet
Substitution2: "'c2sc' Capitals to Small Capitals lookup 26 subtable" edotaccent.sc
Substitution2: "'aalt' Access All Alternates lookup 0 subtable" edotaccent.sc
Position2: "'cpsp' Capital Spacing lookup 0 subtable" dx=5 dy=0 dh=10 dv=0
EndChar
StartChar: Eogonek
Encoding: 280 280 86
Width: 520
GlyphClass: 2
Flags: MW
HStem: -254 115<375 379.5> 0 144<249 279 455 495 455 455> 284 139<249 451 249 451> 553 143<249 479 249 249>
VStem: 43 206<144 284 144 423 423 553> 206 134<-110 -100>
AnchorPoint: "Anchor-14" 0 0 basechar 0
AnchorPoint: "Anchor-13" 0 0 basechar 0
AnchorPoint: "Anchor-12" 272 696 basechar 0
AnchorPoint: "Anchor-11" 465 0 basechar 0
AnchorPoint: "Anchor-10" 269 0 basechar 0
LayerCount: 2
Back
Fore
SplineSet
249 284 m 1x78
 249 144 l 1x78
 495 144 l 1
 495 0 l 1
 455 0 l 1
 359 -32 340 -71 340 -95 c 0
 340 -125 359 -139 391 -139 c 0
 410 -139 430 -136 452 -131 c 1
 440 -246 l 1
 418 -251 393 -254 366 -254 c 0
 276 -254 206 -208 206 -128 c 0
 206 -72 234 -31 279 0 c 1xf4
 43 0 l 1
 43 696 l 1
 500 696 l 1
 479 553 l 1
 249 553 l 1
 249 423 l 1
 451 423 l 1
 451 284 l 1
 249 284 l 1x78
EndSplineSet
Substitution2: "'c2sc' Capitals to Small Capitals lookup 26 subtable" eogonek.sc
Substitution2: "'aalt' Access All Alternates lookup 0 subtable" eogonek.sc
Position2: "'cpsp' Capital Spacing lookup 0 subtable" dx=5 dy=0 dh=10 dv=0
EndChar
StartChar: eogonek
Encoding: 281 281 429
Width: 557
GlyphClass: 2
Flags: MW
HStem: -243 115<365 369.5> -17 21G 211 112<217 350 216 541 217 217> 429 125<266 312.5>
VStem: 17 199<323 323 323 344> 196 134<-99 -95> 350 195<323 330 330 330>
AnchorPoint: "Anchor-14" 0 0 basechar 0
AnchorPoint: "Anchor-13" 0 0 basechar 0
AnchorPoint: "Anchor-12" 285 534 basechar 0
AnchorPoint: "Anchor-11" 455 11 basechar 0
AnchorPoint: "Anchor-10" 294 0 basechar 0
LayerCount: 2
Back
Fore
SplineSet
545 274 m 0x7a
 545 257 543 230 541 211 c 1x7a
 217 211 l 1
 228 134 266 120 324 120 c 0
 362 120 399 135 445 167 c 1
 525 59 l 1
 492 32 450 8 401 -6 c 1
 343 -34 330 -64 330 -84 c 0
 330 -114 349 -128 381 -128 c 0
 400 -128 420 -125 442 -120 c 1
 430 -235 l 1
 408 -240 383 -243 356 -243 c 0
 266 -243 196 -197 196 -117 c 0xf6
 196 -73 219 -40 254 -17 c 1
 93 3 17 116 17 266 c 0
 17 422 106 554 283 554 c 0
 441 554 545 453 545 274 c 0x7a
350 323 m 1
 350 330 l 2
 349 384 338 429 287 429 c 0
 245 429 223 405 216 323 c 1
 350 323 l 1
EndSplineSet
Substitution2: "'smcp' Lowercase to Small Capitals lookup 27 subtable" eogonek.sc
Substitution2: "'aalt' Access All Alternates lookup 0 subtable" eogonek.sc
EndChar

StartChar: Ecaron
Encoding: 282 282 27
Width: 520
GlyphClass: 2
Flags: MW
HStem: 0 144<249 495 249 495> 284 139<249 451 249 451> 553 143<249 479 249 249>
VStem: 43 206<144 284 423 553>
AnchorPoint: "Anchor-11" 269 0 basechar 0
AnchorPoint: "Anchor-10" 43 696 basechar 0
AnchorPoint: "Anchor-9" 272 696 basechar 0
AnchorPoint: "Anchor-8" 465 0 basechar 0
LayerCount: 2
Fore
SplineSet
476 888 m 1
 331 747 l 1
 213 747 l 1
 68 888 l 1
 135 965 l 1
 272 879 l 1
 409 965 l 1
 476 888 l 1
479 553 m 1
 249 553 l 1
 249 423 l 1
 451 423 l 1
 451 284 l 1
 249 284 l 1
 249 144 l 1
 495 144 l 1
 495 0 l 1
 43 0 l 1
 43 696 l 1
 500 696 l 1
 479 553 l 1
EndSplineSet
Substitution2: "'c2sc' Capitals to Small Capitals lookup 23 subtable" ecaron.sc
Substitution2: "'aalt' Access All Alternates lookup 0 subtable" ecaron.sc
Position2: "'cpsp' Capital Spacing lookup 0 subtable" dx=5 dy=0 dh=10 dv=0
EndChar
StartChar: ecaron
Encoding: 283 283 413
Width: 557
GlyphClass: 2
Flags: MW
HStem: -20 140<295 343 295 351.5> 211 112<217 350 216 541 217 217> 429 125<266 312.5> 733 20G<81 81 489 489>
VStem: 17 199<323 323 323 344>
AnchorPoint: "Anchor-14" 0 0 basechar 0
AnchorPoint: "Anchor-13" 0 0 basechar 0
AnchorPoint: "Anchor-12" 287 830 basechar 0
AnchorPoint: "Anchor-11" 455 11 basechar 0
AnchorPoint: "Anchor-10" 294 0 basechar 0
LayerCount: 2
Back
Fore
SplineSet
344 602 m 1
 226 602 l 1
 81 753 l 1
 148 830 l 1
 285 734 l 1
 422 830 l 1
 489 753 l 1
 344 602 l 1
545 274 m 0
 545 257 543 230 541 211 c 1
 217 211 l 1
 228 134 266 120 324 120 c 0
 362 120 399 135 445 167 c 1
 525 59 l 1
 472 16 398 -20 305 -20 c 0
 109 -20 17 101 17 266 c 0
 17 422 106 554 283 554 c 0
 441 554 545 453 545 274 c 0
350 323 m 1
 350 330 l 2
 349 384 338 429 287 429 c 0
 245 429 223 405 216 323 c 1
 350 323 l 1
EndSplineSet
Substitution2: "'smcp' Lowercase to Small Capitals lookup 27 subtable" ecaron.sc
Substitution2: "'aalt' Access All Alternates lookup 0 subtable" ecaron.sc
EndChar
StartChar: gcircumflex
Encoding: 285 285 456
Width: 570
GlyphClass: 2
Flags: MW
HStem: -227 125<230 312 230 362.5> -227 178<156.5 172 -5 362.5> -17 134<167 345 268 306> 158 126<274.5 297 260 358> 426 128<259.5 271 195 297.5> 474 80
VStem: -5 177<-68.5 -49 -68.5 -49> 20 196<331.5 380> 338 184<334 371 283.5 383.5> 363 199<-67 -46.5>
AnchorPoint: "Anchor-14" 0 0 basechar 0
AnchorPoint: "Anchor-13" 0 0 basechar 0
AnchorPoint: "Anchor-12" 287 840 basechar 0
AnchorPoint: "Anchor-11" 0 0 basechar 0
AnchorPoint: "Anchor-10" 252 -215 basechar 0
LayerCount: 2
Back
Fore
SplineSet
148 612 m 1xb980
 81 689 l 1
 226 840 l 1
 344 840 l 1
 489 689 l 1
 422 612 l 1
 285 708 l 1
 148 612 l 1xb980
527 636 m 1
 570 498 l 1
 537 483 488 474 418 474 c 1
 488 445 522 408 522 334 c 0xb580
 522 233 431 158 285 158 c 0
 264 158 246 158 228 161 c 1
 220 157 216 150 216 142 c 0
 216 132 219 117 268 117 c 2
 345 117 l 2
 479 117 562 51 562 -42 c 0
 562 -155 459 -227 266 -227 c 0xba40
 47 -227 -5 -153 -5 -49 c 1
 172 -49 l 1x7a80
 172 -88 188 -102 272 -102 c 0
 352 -102 363 -78 363 -56 c 0
 363 -37 350 -17 306 -17 c 2xb940
 232 -17 l 2
 102 -17 52 31 52 90 c 0
 52 132 81 174 120 197 c 1
 47 236 20 284 20 353 c 0
 20 481 119 554 271 554 c 1
 382 550 461 591 527 636 c 1
277 426 m 0xb980
 242 426 216 403 216 357 c 0
 216 306 243 284 277 284 c 0
 317 284 338 308 338 360 c 0
 338 407 318 426 277 426 c 0xb980
EndSplineSet
Substitution2: "'smcp' Lowercase to Small Capitals lookup 27 subtable" gcircumflex.sc
Substitution2: "'aalt' Access All Alternates lookup 0 subtable" gcircumflex.sc
EndChar

StartChar: Gbreve
Encoding: 286 286 36
Width: 653
GlyphClass: 2
Flags: MW
HStem: -20 146<308.5 362.5 308.5 398.5> 270 139<350 420 350 350> 572 144<335 409.5> 746 134<327.5 372.5 327.5 410>
VStem: 20 212<262 424.5 262 467> 420 198<143 270 270 270>
AnchorPoint: "Anchor-11" 350 0 basechar 0
AnchorPoint: "Anchor-10" 0 0 basechar 0
AnchorPoint: "Anchor-9" 350 696 basechar 0
AnchorPoint: "Anchor-8" 0 0 basechar 0
LayerCount: 2
Fore
SplineSet
350 746 m 0
 230 746 173 840 165 932 c 1
 268 949 l 1
 279 912 305 880 350 880 c 0
 395 880 421 912 432 949 c 1
 535 932 l 1
 527 840 470 746 350 746 c 0
371 716 m 0xec
 476 716 562 676 618 625 c 1
 514 518 l 1
 472 554 436 572 383 572 c 0
 287 572 232 501 232 348 c 0
 232 176 268 126 349 126 c 0
 376 126 398 132 420 143 c 1
 420 270 l 1
 350 270 l 1
 331 409 l 1
 618 409 l 1
 618 60 l 1
 543 9 442 -20 355 -20 c 0
 122 -20 20 112 20 349 c 0
 20 585 170 716 371 716 c 0xec
EndSplineSet
Substitution2: "'c2sc' Capitals to Small Capitals lookup 23 subtable" gbreve.sc
Substitution2: "'aalt' Access All Alternates lookup 0 subtable" gbreve.sc
Position2: "'cpsp' Capital Spacing lookup 0 subtable" dx=5 dy=0 dh=10 dv=0
EndChar
StartChar: Gdotaccent
Encoding: 288 288 105
Width: 653
GlyphClass: 2
Flags: MW
HStem: -20 146<308.5 362.5 308.5 398.5> 270 139<350 420 350 350> 572 144<335 409.5> 743 212<317.5 382.5>
VStem: 20 212<262 424.5 262 467> 239 222<819 879> 420 198<143 270 270 270>
AnchorPoint: "Anchor-14" 0 0 basechar 0
AnchorPoint: "Anchor-13" 0 0 basechar 0
AnchorPoint: "Anchor-12" 352 955 basechar 0
AnchorPoint: "Anchor-11" 0 0 basechar 0
AnchorPoint: "Anchor-10" 350 0 basechar 0
LayerCount: 2
Back
Fore
SplineSet
350 955 m 0xf4
 415 955 461 909 461 849 c 0
 461 789 415 743 350 743 c 0
 285 743 239 789 239 849 c 0
 239 909 285 955 350 955 c 0xf4
371 716 m 0xea
 476 716 562 676 618 625 c 1
 514 518 l 1
 472 554 436 572 383 572 c 0
 287 572 232 501 232 348 c 0
 232 176 268 126 349 126 c 0
 376 126 398 132 420 143 c 1
 420 270 l 1
 350 270 l 1
 331 409 l 1
 618 409 l 1
 618 60 l 1
 543 9 442 -20 355 -20 c 0
 122 -20 20 112 20 349 c 0
 20 585 170 716 371 716 c 0xea
EndSplineSet
Substitution2: "'c2sc' Capitals to Small Capitals lookup 26 subtable" gdotaccent.sc
Substitution2: "'aalt' Access All Alternates lookup 0 subtable" gdotaccent.sc
Position2: "'cpsp' Capital Spacing lookup 0 subtable" dx=5 dy=0 dh=10 dv=0
EndChar
StartChar: gdotaccent
Encoding: 289 289 458
Width: 570
GlyphClass: 2
Flags: MW
HStem: -227 125<230 312 230 362.5> -227 178<156.5 172 -5 362.5> -17 134<167 345 268 306> 158 126<274.5 297 260 358> 426 128<259.5 271 195 297.5> 474 80 617 212<252.5 317.5>
VStem: -5 177<-68.5 -49 -68.5 -49> 20 196<331.5 380> 174 222<693 753> 338 184<334 371 283.5 383.5> 363 199<-67 -46.5>
AnchorPoint: "Anchor-14" 0 0 basechar 0
AnchorPoint: "Anchor-13" 0 0 basechar 0
AnchorPoint: "Anchor-12" 287 829 basechar 0
AnchorPoint: "Anchor-11" 0 0 basechar 0
AnchorPoint: "Anchor-10" 252 -215 basechar 0
LayerCount: 2
Back
Fore
SplineSet
285 829 m 0xba40
 350 829 396 783 396 723 c 0
 396 663 350 617 285 617 c 0
 220 617 174 663 174 723 c 0
 174 783 220 829 285 829 c 0xba40
527 636 m 1
 570 498 l 1
 537 483 488 474 418 474 c 1
 488 445 522 408 522 334 c 0xb6a0
 522 233 431 158 285 158 c 0
 264 158 246 158 228 161 c 1
 220 157 216 150 216 142 c 0
 216 132 219 117 268 117 c 2
 345 117 l 2
 479 117 562 51 562 -42 c 0
 562 -155 459 -227 266 -227 c 0xbb10
 47 -227 -5 -153 -5 -49 c 1
 172 -49 l 1x7b20
 172 -88 188 -102 272 -102 c 0
 352 -102 363 -78 363 -56 c 0
 363 -37 350 -17 306 -17 c 2
 232 -17 l 2
 102 -17 52 31 52 90 c 0
 52 132 81 174 120 197 c 1
 47 236 20 284 20 353 c 0xba90
 20 481 119 554 271 554 c 1
 382 550 461 591 527 636 c 1
277 426 m 0xbaa0
 242 426 216 403 216 357 c 0
 216 306 243 284 277 284 c 0
 317 284 338 308 338 360 c 0
 338 407 318 426 277 426 c 0xbaa0
EndSplineSet
Substitution2: "'smcp' Lowercase to Small Capitals lookup 27 subtable" gdotaccent.sc
Substitution2: "'aalt' Access All Alternates lookup 0 subtable" gdotaccent.sc
EndChar
StartChar: Gcommaaccent
Encoding: 290 290 104
Width: 653
GlyphClass: 2
Flags: MW
HStem: -20 146<308.5 362.5 308.5 398.5> 270 139<350 420 350 350> 572 144<335 409.5>
VStem: 20 212<262 424.5 262 467> 258 184<-168.5 -128.5> 420 198<143 270 270 270>
AnchorPoint: "Anchor-14" 0 0 basechar 0
AnchorPoint: "Anchor-13" 0 0 basechar 0
AnchorPoint: "Anchor-12" 350 696 basechar 0
AnchorPoint: "Anchor-11" 0 0 basechar 0
AnchorPoint: "Anchor-10" 350 0 basechar 0
LayerCount: 2
Back
Fore
SplineSet
371 716 m 0xf4
 476 716 562 676 618 625 c 1
 514 518 l 1
 472 554 436 572 383 572 c 0
 287 572 232 501 232 348 c 0
 232 176 268 126 349 126 c 0
 376 126 398 132 420 143 c 1
 420 270 l 1
 350 270 l 1
 331 409 l 1
 618 409 l 1
 618 60 l 1
 543 9 442 -20 355 -20 c 0
 122 -20 20 112 20 349 c 0
 20 585 170 716 371 716 c 0xf4
350 -62 m 0xf8
 404 -62 442 -101 442 -153 c 0
 442 -184 432 -206 415 -241 c 2
 365 -342 l 1
 271 -342 l 1
 296 -228 l 1
 274 -211 258 -187 258 -153 c 0
 258 -104 296 -62 350 -62 c 0xf8
EndSplineSet
Substitution2: "'c2sc' Capitals to Small Capitals lookup 26 subtable" gcommaaccent.sc
Substitution2: "'aalt' Access All Alternates lookup 0 subtable" gcommaaccent.sc
Position2: "'cpsp' Capital Spacing lookup 0 subtable" dx=5 dy=0 dh=10 dv=0
EndChar

StartChar: hcircumflex
Encoding: 293 293 175
Width: 572
GlyphClass: 2
Flags: MW
HStem: 0 21G<42 240 42 42 337 535 337 337> 534 20G<361 435.5> 724 20G<42 42> 744 20G
VStem: 42 198<0 357 0 486 486 744 744 744> 337 198<0 358 358 379>
AnchorPoint: "Anchor-11" 0 0 basechar 0
AnchorPoint: "Anchor-10" 0 0 basechar 0
AnchorPoint: "Anchor-9" 286 744 basechar 0
AnchorPoint: "Anchor-8" 0 0 basechar 0
LayerCount: 2
Fore
SplineSet
149 800 m 1xdc
 82 877 l 1
 227 1018 l 1
 345 1018 l 1
 490 877 l 1
 423 800 l 1
 286 886 l 1
 149 800 l 1xdc
391 554 m 0
 480 554 535 496 535 394 c 2
 535 0 l 1
 337 0 l 1
 337 358 l 2
 337 400 325 410 307 410 c 0
 286 410 263 393 240 357 c 1
 240 0 l 1
 42 0 l 1
 42 744 l 1xec
 240 764 l 1
 240 486 l 1
 286 534 331 554 391 554 c 0
EndSplineSet
Substitution2: "'smcp' Lowercase to Small Capitals lookup 24 subtable" hcircumflex.sc
Substitution2: "'aalt' Access All Alternates lookup 0 subtable" hcircumflex.sc
EndChar
StartChar: Hbar
Encoding: 294 294 110
Width: 671
GlyphClass: 2
Flags: MW
HStem: 0 21G<50 256 50 50 415 621 415 415> 281 158<256 415 256 415> 495 106<0 50 0 50 256 415 621 671> 495 201<0 256 0 256 50 256 50 415>
VStem: 50 206<0 281 0 439 439 495 601 696> 415 206<0 281 281 281 439 495 0 495 601 696 0 696>
AnchorPoint: "Anchor-14" 336 348 basechar 0
AnchorPoint: "Anchor-13" 0 0 basechar 0
AnchorPoint: "Anchor-12" 336 696 basechar 0
AnchorPoint: "Anchor-11" 0 0 basechar 0
AnchorPoint: "Anchor-10" 336 0 basechar 0
LayerCount: 2
Back
Fore
SplineSet
671 601 m 1xec
 671 495 l 1
 621 495 l 1
 621 0 l 1
 415 0 l 1
 415 281 l 1
 256 281 l 1
 256 0 l 1
 50 0 l 1
 50 495 l 1
 0 495 l 1xdc
 0 601 l 1
 50 601 l 1xec
 50 696 l 1
 256 696 l 1xdc
 256 601 l 1
 415 601 l 1xec
 415 696 l 1
 621 696 l 1xdc
 621 601 l 1
 671 601 l 1xec
415 439 m 1
 415 495 l 1
 256 495 l 1
 256 439 l 1
 415 439 l 1
EndSplineSet
Substitution2: "'c2sc' Capitals to Small Capitals lookup 26 subtable" hbar.sc
Substitution2: "'aalt' Access All Alternates lookup 0 subtable" hbar.sc
Position2: "'cpsp' Capital Spacing lookup 0 subtable" dx=5 dy=0 dh=10 dv=0
EndChar
StartChar: hbar
Encoding: 295 295 470
Width: 582
GlyphClass: 2
Flags: MW
HStem: 0 21G<52 250 52 52 347 545 347 347> 534 20G<371 445.5> 590 106<0 52 0 52 250 372> 724 20G<52 52> 744 20G
VStem: 52 198<0 357 0 486 486 590 696 744 744 744> 347 198<0 358 358 379>
AnchorPoint: "Anchor-14" 296 267 basechar 0
AnchorPoint: "Anchor-13" 0 0 basechar 0
AnchorPoint: "Anchor-12" 296 744 basechar 0
AnchorPoint: "Anchor-11" 0 0 basechar 0
AnchorPoint: "Anchor-10" 299 0 basechar 0
LayerCount: 2
Back
Fore
SplineSet
401 554 m 0xee
 490 554 545 496 545 394 c 2
 545 0 l 1
 347 0 l 1
 347 358 l 2
 347 400 335 410 317 410 c 0
 296 410 273 393 250 357 c 1
 250 0 l 1
 52 0 l 1
 52 590 l 1
 0 590 l 1
 0 696 l 1
 52 696 l 1
 52 744 l 1xf6
 250 764 l 1
 250 696 l 1
 372 696 l 1
 372 590 l 1
 250 590 l 1
 250 486 l 1
 296 534 341 554 401 554 c 0xee
EndSplineSet
Substitution2: "'smcp' Lowercase to Small Capitals lookup 27 subtable" hbar.sc
Substitution2: "'aalt' Access All Alternates lookup 0 subtable" hbar.sc
EndChar

StartChar: Itilde
Encoding: 296 296 53
Width: 292
GlyphClass: 2
Flags: MW
HStem: 0 21G<43 249 43 43> 676 20G<43 249 249 249> 748 138<186.5 214 186.5 239.5> 791 138<78.5 106.5>
VStem: 43 206<0 696>
AnchorPoint: "Anchor-11" 0 0 basechar 0
AnchorPoint: "Anchor-10" 43 696 basechar 0
AnchorPoint: "Anchor-9" 146 696 basechar 0
AnchorPoint: "Anchor-8" 213 0 basechar 0
LayerCount: 2
Fore
SplineSet
207 748 m 0xe8
 140 748 122 791 91 791 c 0
 66 791 54 776 38 748 c 1
 -55 793 l 1
 -29 866 20 929 86 929 c 0xd8
 153 929 171 886 202 886 c 0
 226 886 238 901 254 929 c 1
 347 884 l 1
 321 811 272 748 207 748 c 0xe8
249 0 m 1xd8
 43 0 l 1
 43 696 l 1
 249 696 l 1
 249 0 l 1xd8
EndSplineSet
Substitution2: "'c2sc' Capitals to Small Capitals lookup 23 subtable" itilde.sc
Substitution2: "'aalt' Access All Alternates lookup 0 subtable" itilde.sc
Position2: "'cpsp' Capital Spacing lookup 0 subtable" dx=5 dy=0 dh=10 dv=0
EndChar

StartChar: itilde
Encoding: 297 297 187
Width: 282
GlyphClass: 2
Flags: MW
HStem: 0 21G<42 240 42 42> 514 20G<42 240 240 240> 622 138<181.5 209 181.5 234.5> 665 138<73.5 101.5>
VStem: 42 198<0 534>
AnchorPoint: "Anchor-11" 0 0 basechar 0
AnchorPoint: "Anchor-10" 0 0 basechar 0
AnchorPoint: "Anchor-9" 141 534 basechar 0
AnchorPoint: "Anchor-8" 210 0 basechar 0
LayerCount: 2
Fore
SplineSet
202 622 m 0xe8
 135 622 117 665 86 665 c 0xd8
 61 665 49 650 33 622 c 1xe8
 -60 667 l 1xd8
 -34 740 15 803 81 803 c 0
 148 803 166 760 197 760 c 0
 221 760 233 775 249 803 c 1
 342 758 l 1
 316 685 267 622 202 622 c 0xe8
240 0 m 1
 42 0 l 1
 42 534 l 1
 240 534 l 1
 240 0 l 1
EndSplineSet
Substitution2: "'smcp' Lowercase to Small Capitals lookup 24 subtable" itilde.sc
Substitution2: "'aalt' Access All Alternates lookup 0 subtable" itilde.sc
EndChar
StartChar: Imacron
Encoding: 298 298 132
Width: 292
GlyphClass: 2
Flags: MW
HStem: 0 21G<43 249 43 43> 676 20G<43 249 249 249> 774 134<-17 308 -17 308>
VStem: 43 206<0 696 0 696>
AnchorPoint: "Anchor-14" 0 0 basechar 0
AnchorPoint: "Anchor-13" 0 0 basechar 0
AnchorPoint: "Anchor-12" 148 908 basechar 0
AnchorPoint: "Anchor-11" 213 0 basechar 0
AnchorPoint: "Anchor-10" 146 0 basechar 0
LayerCount: 2
Back
Fore
SplineSet
308 774 m 1
 -17 774 l 1
 -17 908 l 1
 308 908 l 1
 308 774 l 1
249 696 m 1
 249 0 l 1
 43 0 l 1
 43 696 l 1
 249 696 l 1
EndSplineSet
Substitution2: "'c2sc' Capitals to Small Capitals lookup 26 subtable" imacron.sc
Substitution2: "'aalt' Access All Alternates lookup 0 subtable" imacron.sc
Position2: "'cpsp' Capital Spacing lookup 0 subtable" dx=5 dy=0 dh=10 dv=0
EndChar
StartChar: imacron
Encoding: 299 299 493
Width: 282
GlyphClass: 2
Flags: MW
HStem: 0 21G<42 240 42 42> 514 20G<42 240 240 240> 648 134<-22 303 -22 303>
VStem: -22 325<648 782 648 782> 42 198<0 534 0 534>
AnchorPoint: "Anchor-14" 0 0 basechar 0
AnchorPoint: "Anchor-13" 0 0 basechar 0
AnchorPoint: "Anchor-12" 141 750 basechar 0
AnchorPoint: "Anchor-11" 210 0 basechar 0
AnchorPoint: "Anchor-10" 141 0 basechar 0
LayerCount: 2
Back
Fore
SplineSet
303 648 m 1xf0
 -22 648 l 1
 -22 782 l 1
 303 782 l 1
 303 648 l 1xf0
240 534 m 1xe8
 240 0 l 1
 42 0 l 1
 42 534 l 1
 240 534 l 1xe8
EndSplineSet
Substitution2: "'smcp' Lowercase to Small Capitals lookup 27 subtable" imacron.sc
Substitution2: "'aalt' Access All Alternates lookup 0 subtable" imacron.sc
EndChar
StartChar: Ibreve
Encoding: 300 300 121
Width: 292
GlyphClass: 2
Flags: MW
HStem: 0 21G<43 249 43 43> 676 20G<43 249 249 249> 746 134<123.5 168.5 123.5 206>
VStem: 43 206<0 696 0 696>
AnchorPoint: "Anchor-14" 0 0 basechar 0
AnchorPoint: "Anchor-13" 0 0 basechar 0
AnchorPoint: "Anchor-12" 148 949 basechar 0
AnchorPoint: "Anchor-11" 213 0 basechar 0
AnchorPoint: "Anchor-10" 146 0 basechar 0
LayerCount: 2
Back
Fore
SplineSet
146 746 m 0
 26 746 -31 840 -39 932 c 1
 64 949 l 1
 75 912 101 880 146 880 c 0
 191 880 217 912 228 949 c 1
 331 932 l 1
 323 840 266 746 146 746 c 0
249 696 m 1
 249 0 l 1
 43 0 l 1
 43 696 l 1
 249 696 l 1
EndSplineSet
Substitution2: "'c2sc' Capitals to Small Capitals lookup 26 subtable" ibreve.sc
Substitution2: "'aalt' Access All Alternates lookup 0 subtable" ibreve.sc
Position2: "'cpsp' Capital Spacing lookup 0 subtable" dx=5 dy=0 dh=10 dv=0
EndChar

StartChar: ibreve
Encoding: 301 301 179
Width: 282
GlyphClass: 2
Flags: MW
HStem: 0 21G<42 240 42 42> 514 20G<42 240 240 240> 626 134<118.5 163.5 118.5 201>
VStem: 42 198<0 534>
AnchorPoint: "Anchor-11" 0 0 basechar 0
AnchorPoint: "Anchor-10" 0 0 basechar 0
AnchorPoint: "Anchor-9" 141 534 basechar 0
AnchorPoint: "Anchor-8" 210 0 basechar 0
LayerCount: 2
Fore
SplineSet
141 626 m 0
 21 626 -36 720 -44 822 c 1
 59 839 l 1
 70 792 96 760 141 760 c 0
 186 760 212 792 223 839 c 1
 326 822 l 1
 318 720 261 626 141 626 c 0
240 0 m 1
 42 0 l 1
 42 534 l 1
 240 534 l 1
 240 0 l 1
EndSplineSet
Substitution2: "'smcp' Lowercase to Small Capitals lookup 24 subtable" ibreve.sc
Substitution2: "'aalt' Access All Alternates lookup 0 subtable" ibreve.sc
EndChar
StartChar: Iogonek
Encoding: 302 302 133
Width: 292
GlyphClass: 2
Flags: MW
HStem: -254 115<123 127.5> 0 21G<203 249 203 203> 676 20G<43 249 249 249>
VStem: -46 134<-110 -97> 43 206<11 696 0 696>
AnchorPoint: "Anchor-14" 0 0 basechar 0
AnchorPoint: "Anchor-13" 0 0 basechar 0
AnchorPoint: "Anchor-12" 146 696 basechar 0
AnchorPoint: "Anchor-11" 213 0 basechar 0
AnchorPoint: "Anchor-10" 146 0 basechar 0
LayerCount: 2
Back
Fore
SplineSet
43 696 m 1xe8
 249 696 l 1
 249 0 l 1
 203 0 l 1
 107 -32 88 -71 88 -95 c 0
 88 -125 107 -139 139 -139 c 0
 158 -139 178 -136 200 -131 c 1
 188 -246 l 1xe8
 166 -251 141 -254 114 -254 c 0
 24 -254 -46 -208 -46 -128 c 0xf0
 -46 -66 -11 -22 43 11 c 1
 43 696 l 1xe8
EndSplineSet
Substitution2: "'c2sc' Capitals to Small Capitals lookup 26 subtable" iogonek.sc
Substitution2: "'aalt' Access All Alternates lookup 0 subtable" iogonek.sc
Position2: "'cpsp' Capital Spacing lookup 0 subtable" dx=5 dy=0 dh=10 dv=0
EndChar

StartChar: iogonek
Encoding: 303 303 186
Width: 282
GlyphClass: 2
Flags: MW
HStem: -254 115<120 124.5> 0 21G<200 240 200 200> 514 20G<42 240 240 240> 617 212<108.5 173.5>
VStem: -49 134<-110 -96.5> 30 222<693 753> 42 198<12 534 0 534>
AnchorPoint: "Anchor-11" 0 0 basechar 0
AnchorPoint: "Anchor-10" 0 0 basechar 0
AnchorPoint: "Anchor-9" 141 534 basechar 0
AnchorPoint: "Anchor-8" 210 0 basechar 0
LayerCount: 2
Fore
SplineSet
141 617 m 0xf4
 76 617 30 663 30 723 c 0
 30 783 76 829 141 829 c 0
 206 829 252 783 252 723 c 0
 252 663 206 617 141 617 c 0xf4
42 534 m 1xf2
 240 534 l 1
 240 0 l 1xf2
 200 0 l 1
 104 -32 85 -71 85 -95 c 0
 85 -125 104 -139 136 -139 c 0
 155 -139 175 -136 197 -131 c 1
 185 -246 l 1
 163 -251 138 -254 111 -254 c 0
 21 -254 -49 -208 -49 -128 c 0xf8
 -49 -65 -13 -20 42 12 c 1
 42 534 l 1xf2
EndSplineSet
Substitution2: "'smcp' Lowercase to Small Capitals lookup 24 subtable" iogonek.sc
Substitution2: "'aalt' Access All Alternates lookup 0 subtable" iogonek.sc
EndChar
StartChar: Idotaccent
Encoding: 304 304 127
Width: 292
GlyphClass: 2
Flags: MW
HStem: 0 21G<43 249 43 43> 676 20G<43 249 249 249> 743 212<113.5 178.5>
VStem: 35 222<819 879> 43 206<0 696 0 696>
AnchorPoint: "Anchor-14" 0 0 basechar 0
AnchorPoint: "Anchor-13" 0 0 basechar 0
AnchorPoint: "Anchor-12" 148 955 basechar 0
AnchorPoint: "Anchor-11" 213 0 basechar 0
AnchorPoint: "Anchor-10" 146 0 basechar 0
LayerCount: 2
Back
Fore
SplineSet
146 955 m 0xf0
 211 955 257 909 257 849 c 0
 257 789 211 743 146 743 c 0
 81 743 35 789 35 849 c 0
 35 909 81 955 146 955 c 0xf0
249 696 m 1xe8
 249 0 l 1
 43 0 l 1
 43 696 l 1
 249 696 l 1xe8
EndSplineSet
Substitution2: "'c2sc' Capitals to Small Capitals lookup 26 subtable" i.sc.loclTRK
Substitution2: "'aalt' Access All Alternates lookup 0 subtable" i.sc.loclTRK
Position2: "'cpsp' Capital Spacing lookup 0 subtable" dx=5 dy=0 dh=10 dv=0
EndChar
StartChar: dotlessi
Encoding: 305 305 479
Width: 282
GlyphClass: 2
Flags: MW
HStem: 0 21G<42 240 42 42> 514 20G<42 240 240 240>
VStem: 42 198<0 534 0 534>
AnchorPoint: "Anchor-14" 0 0 basechar 0
AnchorPoint: "Anchor-13" 0 0 basechar 0
AnchorPoint: "Anchor-12" 141 534 basechar 0
AnchorPoint: "Anchor-11" 210 0 basechar 0
AnchorPoint: "Anchor-10" 141 0 basechar 0
LayerCount: 2
Back
Fore
SplineSet
240 534 m 1
 240 0 l 1
 42 0 l 1
 42 534 l 1
 240 534 l 1
EndSplineSet
Substitution2: "'smcp' Lowercase to Small Capitals lookup 27 subtable" dotlessi.sc
Substitution2: "'aalt' Access All Alternates lookup 0 subtable" dotlessi.sc
EndChar
StartChar: IJ
Encoding: 306 306 119
Width: 617
GlyphClass: 2
Flags: MW
HStem: 0 21G<43 249 43 43> 676 20G<43 249 249 249 370 576 576 576>
VStem: 43 206<0 696 0 696> 370 206<118 696>
AnchorPoint: "Anchor-14" 0 0 basechar 0
AnchorPoint: "Anchor-13" 0 0 basechar 0
AnchorPoint: "Anchor-12" 473 696 basechar 0
AnchorPoint: "Anchor-11" 213 0 basechar 0
AnchorPoint: "Anchor-10" 146 0 basechar 0
LayerCount: 2
Back
Fore
SplineSet
249 696 m 1
 249 0 l 1
 43 0 l 1
 43 696 l 1
 249 696 l 1
576 696 m 1
 576 111 l 2
 576 -83 448 -149 327 -189 c 1
 272 -44 l 1
 361 -10 370 41 370 118 c 2
 370 696 l 1
 576 696 l 1
EndSplineSet
Substitution2: "'c2sc' Capitals to Small Capitals lookup 26 subtable" ij.sc
Substitution2: "'aalt' Access All Alternates lookup 0 subtable" ij.sc
Position2: "'cpsp' Capital Spacing lookup 0 subtable" dx=5 dy=0 dh=10 dv=0
EndChar
StartChar: ij
Encoding: 307 307 492
Width: 564
GlyphClass: 2
Flags: MW
HStem: -227 21G<280 280> 0 21G<42 240 42 42> 514 20G<42 240 240 240 324 522 522 522> 617 212<108.5 173.5 390.5 455.5>
VStem: 30 222<693 753> 42 198<0 534 0 534> 312 222<693 753> 324 198<65 77 77 534>
AnchorPoint: "Anchor-14" 0 0 basechar 0
AnchorPoint: "Anchor-13" 0 0 basechar 0
AnchorPoint: "Anchor-12" 425 829 basechar 0
AnchorPoint: "Anchor-11" 210 0 basechar 0
AnchorPoint: "Anchor-10" 423 -215 basechar 0
LayerCount: 2
Back
Fore
SplineSet
141 829 m 0xfa
 206 829 252 783 252 723 c 0
 252 663 206 617 141 617 c 0
 76 617 30 663 30 723 c 0
 30 783 76 829 141 829 c 0xfa
423 829 m 0
 488 829 534 783 534 723 c 0
 534 663 488 617 423 617 c 0
 358 617 312 663 312 723 c 0
 312 783 358 829 423 829 c 0
240 534 m 1xf5
 240 0 l 1
 42 0 l 1
 42 534 l 1
 240 534 l 1xf5
522 534 m 1
 522 77 l 2
 522 -111 412 -184 280 -227 c 1
 212 -83 l 1
 279 -52 324 -22 324 65 c 2
 324 534 l 1
 522 534 l 1
EndSplineSet
Substitution2: "'smcp' Lowercase to Small Capitals lookup 27 subtable" ij.sc
Substitution2: "'aalt' Access All Alternates lookup 0 subtable" ij.sc
EndChar

StartChar: Jcircumflex
Encoding: 308 308 55
Width: 325
GlyphClass: 2
Flags: MW
HStem: 676 20G<78 284 284 284>
VStem: 78 206<118 696>
AnchorPoint: "Anchor-11" 0 0 basechar 0
AnchorPoint: "Anchor-10" 0 0 basechar 0
AnchorPoint: "Anchor-9" 181 696 basechar 0
AnchorPoint: "Anchor-8" 0 0 basechar 0
LayerCount: 2
Fore
SplineSet
181 838 m 1
 44 752 l 1
 -23 829 l 1
 122 970 l 1
 240 970 l 1
 385 829 l 1
 318 752 l 1
 181 838 l 1
284 111 m 2
 284 -83 156 -149 35 -189 c 1
 -20 -44 l 1
 69 -10 78 41 78 118 c 2
 78 696 l 1
 284 696 l 1
 284 111 l 2
EndSplineSet
Substitution2: "'c2sc' Capitals to Small Capitals lookup 23 subtable" jcircumflex.sc
Substitution2: "'aalt' Access All Alternates lookup 0 subtable" jcircumflex.sc
Position2: "'cpsp' Capital Spacing lookup 0 subtable" dx=5 dy=0 dh=10 dv=0
EndChar

StartChar: jcircumflex
Encoding: 309 309 190
Width: 282
GlyphClass: 2
Flags: MW
HStem: -227 21G<-2 -2> 514 20G<42 240 240 240>
VStem: 42 198<65 77 77 534>
AnchorPoint: "Anchor-11" 0 0 basechar 0
AnchorPoint: "Anchor-10" 0 0 basechar 0
AnchorPoint: "Anchor-9" 141 534 basechar 0
AnchorPoint: "Anchor-8" 0 0 basechar 0
LayerCount: 2
Fore
SplineSet
-63 689 m 1
 82 840 l 1
 200 840 l 1
 345 689 l 1
 278 612 l 1
 141 708 l 1
 4 612 l 1
 -63 689 l 1
240 77 m 2
 240 -111 130 -184 -2 -227 c 1
 -70 -83 l 1
 -3 -52 42 -22 42 65 c 2
 42 534 l 1
 240 534 l 1
 240 77 l 2
EndSplineSet
Substitution2: "'smcp' Lowercase to Small Capitals lookup 24 subtable" jcircumflex.sc
Substitution2: "'aalt' Access All Alternates lookup 0 subtable" jcircumflex.sc
EndChar
StartChar: Kcommaaccent
Encoding: 310 310 142
Width: 659
GlyphClass: 2
Flags: MW
HStem: 0 21G<43 249 43 43 445 445 445 679> 676 20G<43 249 249 249 449 661 661 661>
VStem: 43 206<0 696 0 696> 238 184<-168.5 -128.5>
AnchorPoint: "Anchor-14" 0 0 basechar 0
AnchorPoint: "Anchor-13" 0 0 basechar 0
AnchorPoint: "Anchor-12" 330 696 basechar 0
AnchorPoint: "Anchor-11" 0 0 basechar 0
AnchorPoint: "Anchor-10" 330 0 basechar 0
LayerCount: 2
Back
Fore
SplineSet
249 696 m 1xe0
 249 0 l 1
 43 0 l 1
 43 696 l 1
 249 696 l 1xe0
661 696 m 1
 464 387 l 1
 679 0 l 1
 445 0 l 1
 255 371 l 1
 449 696 l 1
 661 696 l 1
330 -62 m 0xd0
 384 -62 422 -101 422 -153 c 0
 422 -184 412 -206 395 -241 c 2
 345 -342 l 1
 251 -342 l 1
 276 -228 l 1
 254 -211 238 -187 238 -153 c 0
 238 -104 276 -62 330 -62 c 0xd0
EndSplineSet
Substitution2: "'c2sc' Capitals to Small Capitals lookup 26 subtable" kcommaaccent.sc
Substitution2: "'aalt' Access All Alternates lookup 0 subtable" kcommaaccent.sc
Position2: "'cpsp' Capital Spacing lookup 0 subtable" dx=5 dy=0 dh=10 dv=0
EndChar

StartChar: kcommaaccent
Encoding: 311 311 192
Width: 576
GlyphClass: 2
Flags: MW
HStem: -228 21G<234 234> 0 21G<42 240 42 42 372 372 372 591> 514 20G<387 583 583 583> 724 20G<42 42> 744 20G
VStem: 42 198<0 744 744 744> 196 184<-168.5 -128.5>
AnchorPoint: "Anchor-11" 288 0 basechar 0
AnchorPoint: "Anchor-10" 0 0 basechar 0
AnchorPoint: "Anchor-9" 0 0 basechar 0
AnchorPoint: "Anchor-8" 0 0 basechar 0
LayerCount: 2
Fore
SplineSet
240 0 m 1xec
 42 0 l 1
 42 744 l 1xf4
 240 764 l 1
 240 0 l 1xec
442 300 m 1
 591 0 l 1
 372 0 l 1
 244 292 l 1
 387 534 l 1
 583 534 l 1
 442 300 l 1
288 -62 m 0xea
 341 -62 380 -101 380 -153 c 0
 380 -184 370 -206 353 -241 c 2
 303 -342 l 1
 209 -342 l 1
 234 -228 l 1
 212 -211 196 -187 196 -153 c 0
 196 -104 235 -62 288 -62 c 0xea
EndSplineSet
Substitution2: "'smcp' Lowercase to Small Capitals lookup 24 subtable" kcommaaccent.sc
Substitution2: "'aalt' Access All Alternates lookup 0 subtable" kcommaaccent.sc
EndChar

StartChar: kgreenlandic
Encoding: 312 312 193
Width: 576
GlyphClass: 2
Flags: MW
HStem: 0 21G<42 240 42 42 372 372 372 591> 514 20G<42 240 240 240 387 583 583 583>
VStem: 42 198<0 534>
LayerCount: 2
Fore
SplineSet
240 0 m 1
 42 0 l 1
 42 534 l 1
 240 534 l 1
 240 0 l 1
442 290 m 1
 591 0 l 1
 372 0 l 1
 244 282 l 1
 387 534 l 1
 583 534 l 1
 442 290 l 1
EndSplineSet
Substitution2: "'smcp' Lowercase to Small Capitals lookup 24 subtable" kgreenlandic.sc
Substitution2: "'aalt' Access All Alternates lookup 0 subtable" kgreenlandic.sc
EndChar

StartChar: Lacute
Encoding: 313 313 59
Width: 522
GlyphClass: 2
Flags: MW
HStem: 0 158<249 491> 676 20G<43 249 249 249>
VStem: 43 206<158 158 158 696>
AnchorPoint: "Anchor-11" 267 0 basechar 0
AnchorPoint: "Anchor-10" 0 0 basechar 0
AnchorPoint: "Anchor-9" 146 696 basechar 0
AnchorPoint: "Anchor-8" 0 0 basechar 0
LayerCount: 2
Fore
SplineSet
293 840 m 1
 39 749 l 1
 -11 848 l 1
 220 984 l 1
 293 840 l 1
249 158 m 1
 512 158 l 1
 491 0 l 1
 43 0 l 1
 43 696 l 1
 249 696 l 1
 249 158 l 1
EndSplineSet
Substitution2: "'c2sc' Capitals to Small Capitals lookup 23 subtable" lacute.sc
Substitution2: "'aalt' Access All Alternates lookup 0 subtable" lacute.sc
Position2: "'cpsp' Capital Spacing lookup 0 subtable" dx=5 dy=0 dh=10 dv=0
EndChar
StartChar: lacute
Encoding: 314 314 513
Width: 300
GlyphClass: 2
Flags: MW
HStem: -20 21G<151 227.5> -2 21G<315 315> 724 20G<37 37> 744 20G
VStem: 37 198<154 162 162 744 744 744>
AnchorPoint: "Anchor-14" 389 373 basechar 0
AnchorPoint: "Anchor-13" 245 744 basechar 0
AnchorPoint: "Anchor-12" 138 1032 basechar 0
AnchorPoint: "Anchor-11" 0 0 basechar 0
AnchorPoint: "Anchor-10" 186 0 basechar 0
LayerCount: 2
Back
Fore
SplineSet
215 1032 m 1x58
 288 888 l 1
 34 797 l 1
 -16 896 l 1
 215 1032 l 1x58
205 -20 m 0x98
 97 -20 37 43 37 154 c 2
 37 744 l 1x68
 235 764 l 1
 235 162 l 2
 235 144 243 135 259 135 c 0
 268 135 275 137 280 139 c 1
 315 -2 l 1
 289 -12 250 -20 205 -20 c 0x98
EndSplineSet
Substitution2: "'smcp' Lowercase to Small Capitals lookup 27 subtable" lacute.sc
Substitution2: "'aalt' Access All Alternates lookup 0 subtable" lacute.sc
EndChar

StartChar: Lcommaaccent
Encoding: 315 315 61
Width: 522
GlyphClass: 2
Flags: MW
HStem: -228 21G<213 213> 0 158<249 491> 676 20G<43 249 249 249>
VStem: 43 206<158 158 158 696> 175 184<-168.5 -128.5>
AnchorPoint: "Anchor-11" 267 0 basechar 0
AnchorPoint: "Anchor-10" 0 0 basechar 0
AnchorPoint: "Anchor-9" 146 696 basechar 0
AnchorPoint: "Anchor-8" 0 0 basechar 0
LayerCount: 2
Fore
SplineSet
249 158 m 1xf0
 512 158 l 1
 491 0 l 1
 43 0 l 1
 43 696 l 1
 249 696 l 1
 249 158 l 1xf0
267 -62 m 0xe8
 320 -62 359 -101 359 -153 c 0
 359 -184 349 -206 332 -241 c 2
 282 -342 l 1
 188 -342 l 1
 213 -228 l 1
 191 -211 175 -187 175 -153 c 0
 175 -104 214 -62 267 -62 c 0xe8
EndSplineSet
Substitution2: "'c2sc' Capitals to Small Capitals lookup 23 subtable" lcommaaccent.sc
Substitution2: "'aalt' Access All Alternates lookup 0 subtable" lcommaaccent.sc
Position2: "'cpsp' Capital Spacing lookup 0 subtable" dx=5 dy=0 dh=10 dv=0
EndChar
StartChar: lcommaaccent
Encoding: 316 316 519
Width: 300
GlyphClass: 2
Flags: MW
HStem: -20 21G<151 227.5> -2 21G<315 315> 724 20G<37 37> 744 20G
VStem: 37 198<154 162 162 744 744 744> 94 184<-168.5 -128.5>
AnchorPoint: "Anchor-14" 389 373 basechar 0
AnchorPoint: "Anchor-13" 245 744 basechar 0
AnchorPoint: "Anchor-12" 136 744 basechar 0
AnchorPoint: "Anchor-11" 0 0 basechar 0
AnchorPoint: "Anchor-10" 186 0 basechar 0
LayerCount: 2
Back
Fore
SplineSet
205 -20 m 0x98
 97 -20 37 43 37 154 c 2
 37 744 l 1x68
 235 764 l 1
 235 162 l 2
 235 144 243 135 259 135 c 0
 268 135 275 137 280 139 c 1
 315 -2 l 1
 289 -12 250 -20 205 -20 c 0x98
186 -62 m 0x54
 240 -62 278 -101 278 -153 c 0
 278 -184 268 -206 251 -241 c 2
 201 -342 l 1
 107 -342 l 1
 132 -228 l 1
 110 -211 94 -187 94 -153 c 0
 94 -104 132 -62 186 -62 c 0x54
EndSplineSet
Substitution2: "'smcp' Lowercase to Small Capitals lookup 27 subtable" lcommaaccent.sc
Substitution2: "'aalt' Access All Alternates lookup 0 subtable" lcommaaccent.sc
EndChar
StartChar: Lcaron
Encoding: 317 317 148
Width: 522
GlyphClass: 2
Flags: MW
HStem: 0 158<249 491> 676 20G<43 249 249 249> 696 20G
VStem: 43 206<158 696 158 696 158 696>
AnchorPoint: "Anchor-14" 403 404 basechar 0
AnchorPoint: "Anchor-13" 259 696 basechar 0
AnchorPoint: "Anchor-12" 146 696 basechar 0
AnchorPoint: "Anchor-11" 0 0 basechar 0
AnchorPoint: "Anchor-10" 267 0 basechar 0
LayerCount: 2
Back
Fore
SplineSet
308 716 m 1xb0
 449 695 l 1
 391 461 l 1
 283 477 l 1
 308 716 l 1xb0
249 696 m 1xd0
 249 158 l 1
 512 158 l 1
 491 0 l 1
 43 0 l 1
 43 696 l 1
 249 696 l 1xd0
EndSplineSet
Substitution2: "'c2sc' Capitals to Small Capitals lookup 26 subtable" lcaron.sc
Substitution2: "'aalt' Access All Alternates lookup 0 subtable" lcaron.sc
Position2: "'cpsp' Capital Spacing lookup 0 subtable" dx=5 dy=0 dh=10 dv=0
EndChar

StartChar: lcaron
Encoding: 318 318 196
Width: 484
GlyphClass: 2
Flags: MW
HStem: -20 21G<148 220.5> -2 21G<315 315> 724 20G<37 37> 740 20G<314 314> 744 20G
VStem: 37 198<159.5 175 175 744 744 744>
AnchorPoint: "Anchor-11" 186 0 basechar 0
AnchorPoint: "Anchor-10" 0 0 basechar 0
AnchorPoint: "Anchor-9" 136 744 basechar 0
AnchorPoint: "Anchor-8" 0 0 basechar 0
LayerCount: 2
Fore
SplineSet
235 175 m 2x4c
 235 144 245 135 258 135 c 0
 264 135 274 137 280 139 c 1
 315 -2 l 1
 287 -12 242 -20 199 -20 c 0
 97 -20 37 40 37 151 c 2
 37 744 l 1xa4
 235 764 l 1
 235 175 l 2x4c
455 743 m 1
 407 509 l 1
 309 517 l 1
 314 760 l 1x54
 455 743 l 1
EndSplineSet
Substitution2: "'smcp' Lowercase to Small Capitals lookup 24 subtable" lcaron.sc
Substitution2: "'aalt' Access All Alternates lookup 0 subtable" lcaron.sc
EndChar

StartChar: Ldot
Encoding: 319 319 62
Width: 522
GlyphClass: 2
Flags: MW
HStem: 0 158<249 491> 676 20G<43 249 249 249>
VStem: 43 206<158 158 158 696> 292 222<374 434>
AnchorPoint: "Anchor-11" 267 0 basechar 0
AnchorPoint: "Anchor-10" 0 0 basechar 0
AnchorPoint: "Anchor-9" 146 696 basechar 0
AnchorPoint: "Anchor-8" 0 0 basechar 0
LayerCount: 2
Fore
SplineSet
249 158 m 1
 512 158 l 1
 491 0 l 1
 43 0 l 1
 43 696 l 1
 249 696 l 1
 249 158 l 1
403 510 m 0
 468 510 514 464 514 404 c 0
 514 344 468 298 403 298 c 0
 338 298 292 344 292 404 c 0
 292 464 338 510 403 510 c 0
EndSplineSet
Ligature2: "Ligature Substitution lookup 29 subtable" L periodcentered
Substitution2: "'c2sc' Capitals to Small Capitals lookup 23 subtable" ldot.sc
Substitution2: "'aalt' Access All Alternates lookup 0 subtable" ldot.sc
Position2: "'cpsp' Capital Spacing lookup 0 subtable" dx=5 dy=0 dh=10 dv=0
EndChar

StartChar: ldot
Encoding: 320 320 198
Width: 513
GlyphClass: 2
Flags: MW
HStem: -20 21G<148 220.5> -2 21G<315 315> 724 20G<37 37> 744 20G
VStem: 37 198<159.5 175 175 744 744 744> 281 222<343 403>
AnchorPoint: "Anchor-11" 186 0 basechar 0
AnchorPoint: "Anchor-10" 0 0 basechar 0
AnchorPoint: "Anchor-9" 136 744 basechar 0
AnchorPoint: "Anchor-8" 0 0 basechar 0
LayerCount: 2
Fore
SplineSet
235 175 m 2x58
 235 144 245 135 258 135 c 0
 264 135 274 137 280 139 c 1
 315 -2 l 1
 287 -12 242 -20 199 -20 c 0
 97 -20 37 40 37 151 c 2
 37 744 l 1xa8
 235 764 l 1
 235 175 l 2x58
392 479 m 0x5c
 457 479 503 433 503 373 c 0
 503 313 457 267 392 267 c 0
 327 267 281 313 281 373 c 0
 281 433 327 479 392 479 c 0x5c
EndSplineSet
Ligature2: "Ligature Substitution lookup 29 subtable" l periodcentered
Substitution2: "'smcp' Lowercase to Small Capitals lookup 24 subtable" ldot.sc
Substitution2: "'aalt' Access All Alternates lookup 0 subtable" ldot.sc
EndChar
StartChar: Lslash
Encoding: 321 321 154
Width: 576
GlyphClass: 2
Flags: MW
HStem: 0 158<303 545> 521 20G<411 411> 676 20G<97 303 303 303>
VStem: 97 206<158 158 158 205 205 205 474 696>
AnchorPoint: "Anchor-14" 457 404 basechar 0
AnchorPoint: "Anchor-13" 313 696 basechar 0
AnchorPoint: "Anchor-12" 200 696 basechar 0
AnchorPoint: "Anchor-11" 0 0 basechar 0
AnchorPoint: "Anchor-10" 321 0 basechar 0
LayerCount: 2
Back
Fore
SplineSet
303 158 m 1
 566 158 l 1
 545 0 l 1
 97 0 l 1
 97 205 l 1
 63 184 l 1
 0 287 l 1
 97 347 l 1
 97 696 l 1
 303 696 l 1
 303 474 l 1
 411 541 l 1
 475 439 l 1
 303 333 l 1
 303 158 l 1
EndSplineSet
Substitution2: "'c2sc' Capitals to Small Capitals lookup 26 subtable" lslash.sc
Substitution2: "'aalt' Access All Alternates lookup 0 subtable" lslash.sc
Position2: "'cpsp' Capital Spacing lookup 0 subtable" dx=5 dy=0 dh=10 dv=0
EndChar

StartChar: lslash
Encoding: 322 322 199
Width: 371
GlyphClass: 2
Flags: MW
HStem: -20 21G<185 257.5> -2 21G<352 352> 534 20G<329 329> 724 20G<74 74> 744 20G
VStem: 74 198<159.5 175 175 253 253 253 519 744 744 744>
AnchorPoint: "Anchor-11" 223 0 basechar 0
AnchorPoint: "Anchor-10" 0 0 basechar 0
AnchorPoint: "Anchor-9" 173 744 basechar 0
AnchorPoint: "Anchor-8" 0 0 basechar 0
LayerCount: 2
Fore
SplineSet
295 135 m 0x6c
 301 135 311 137 317 139 c 1
 352 -2 l 1
 324 -12 279 -20 236 -20 c 0
 134 -20 74 40 74 151 c 2
 74 253 l 1
 32 227 l 1
 -13 343 l 1
 74 397 l 1
 74 744 l 1xb4
 272 764 l 1
 272 519 l 1
 329 554 l 1
 371 435 l 1
 272 374 l 1
 272 175 l 2
 272 144 282 135 295 135 c 0x6c
EndSplineSet
Substitution2: "'smcp' Lowercase to Small Capitals lookup 24 subtable" lslash.sc
Substitution2: "'aalt' Access All Alternates lookup 0 subtable" lslash.sc
EndChar
StartChar: Nacute
Encoding: 323 323 161
Width: 651
GlyphClass: 2
Flags: MW
HStem: 0 21G<43 225 43 43 350 608 350 350> 676 20G<43 296 296 296 426 608 608 608>
VStem: 43 182<0 216 0 696> 426 182<473 696 0 696>
AnchorPoint: "Anchor-14" 0 0 basechar 0
AnchorPoint: "Anchor-13" 0 0 basechar 0
AnchorPoint: "Anchor-12" 328 984 basechar 0
AnchorPoint: "Anchor-11" 0 0 basechar 0
AnchorPoint: "Anchor-10" 326 0 basechar 0
LayerCount: 2
Back
Fore
SplineSet
405 984 m 1
 478 840 l 1
 224 749 l 1
 174 848 l 1
 405 984 l 1
608 696 m 1
 608 0 l 1
 350 0 l 1
 198 508 l 1
 208 441 225 345 225 216 c 2
 225 0 l 1
 43 0 l 1
 43 696 l 1
 296 696 l 1
 454 186 l 1
 441 267 426 347 426 473 c 2
 426 696 l 1
 608 696 l 1
EndSplineSet
Substitution2: "'c2sc' Capitals to Small Capitals lookup 26 subtable" nacute.sc
Substitution2: "'locl' Localized Forms in Latin lookup 7 subtable" Nacute.loclPLK
AlternateSubs2: "'aalt' Access All Alternates lookup 1 subtable" Nacute.loclPLK nacute.sc
Position2: "'cpsp' Capital Spacing lookup 0 subtable" dx=5 dy=0 dh=10 dv=0
EndChar

StartChar: nacute
Encoding: 324 324 202
Width: 572
GlyphClass: 2
Flags: MW
HStem: 0 21G<42 240 42 42 337 535 337 337> 410 124<42 316> 514 20G<42 215 215 215> 534 20G
VStem: 42 198<0 357 0 534 0 534> 337 198<0 358 358 379>
AnchorPoint: "Anchor-11" 286 0 basechar 0
AnchorPoint: "Anchor-10" 0 0 basechar 0
AnchorPoint: "Anchor-9" 291 534 basechar 0
AnchorPoint: "Anchor-8" 0 0 basechar 0
LayerCount: 2
Fore
SplineSet
182 613 m 1x9c
 129 712 l 1
 359 856 l 1
 433 712 l 1
 182 613 l 1x9c
391 554 m 0
 480 554 535 496 535 394 c 2
 535 0 l 1
 337 0 l 1
 337 358 l 2
 337 400 325 410 307 410 c 0
 286 410 263 393 240 357 c 1xcc
 240 0 l 1
 42 0 l 1
 42 534 l 1
 215 534 l 1xac
 229 479 l 1
 278 531 327 554 391 554 c 0
EndSplineSet
Substitution2: "'smcp' Lowercase to Small Capitals lookup 24 subtable" nacute.sc
Substitution2: "'locl' Localized Forms in Latin lookup 7 subtable" nacute.loclPLK
AlternateSubs2: "'aalt' Access All Alternates lookup 1 subtable" nacute.loclPLK nacute.sc
EndChar
StartChar: Ncommaaccent
Encoding: 325 325 165
Width: 651
GlyphClass: 2
Flags: MW
HStem: 0 21G<43 225 43 43 350 608 350 350> 676 20G<43 296 296 296 426 608 608 608>
VStem: 43 182<0 216 0 696> 234 184<-168.5 -128.5> 426 182<473 696 0 696>
AnchorPoint: "Anchor-14" 0 0 basechar 0
AnchorPoint: "Anchor-13" 0 0 basechar 0
AnchorPoint: "Anchor-12" 326 696 basechar 0
AnchorPoint: "Anchor-11" 0 0 basechar 0
AnchorPoint: "Anchor-10" 326 0 basechar 0
LayerCount: 2
Back
Fore
SplineSet
608 696 m 1
 608 0 l 1
 350 0 l 1
 198 508 l 1
 208 441 225 345 225 216 c 2
 225 0 l 1
 43 0 l 1
 43 696 l 1
 296 696 l 1
 454 186 l 1
 441 267 426 347 426 473 c 2
 426 696 l 1
 608 696 l 1
326 -62 m 0xf8
 380 -62 418 -101 418 -153 c 0
 418 -184 408 -206 391 -241 c 2
 341 -342 l 1
 247 -342 l 1
 272 -228 l 1
 250 -211 234 -187 234 -153 c 0
 234 -104 272 -62 326 -62 c 0xf8
EndSplineSet
Substitution2: "'c2sc' Capitals to Small Capitals lookup 26 subtable" ncommaaccent.sc
Substitution2: "'aalt' Access All Alternates lookup 0 subtable" ncommaaccent.sc
Position2: "'cpsp' Capital Spacing lookup 0 subtable" dx=5 dy=0 dh=10 dv=0
EndChar

StartChar: ncommaaccent
Encoding: 326 326 205
Width: 572
GlyphClass: 2
Flags: MW
HStem: -228 21G<232 232> 0 21G<42 240 42 42 337 535 337 337> 410 124<42 316> 514 20G<42 215 215 215> 534 20G
VStem: 42 198<0 357 0 534 0 534> 194 184<-168.5 -128.5> 337 198<0 358 358 379>
AnchorPoint: "Anchor-11" 286 0 basechar 0
AnchorPoint: "Anchor-10" 0 0 basechar 0
AnchorPoint: "Anchor-9" 291 534 basechar 0
AnchorPoint: "Anchor-8" 0 0 basechar 0
LayerCount: 2
Fore
SplineSet
391 554 m 0xcd
 480 554 535 496 535 394 c 2
 535 0 l 1
 337 0 l 1
 337 358 l 2
 337 400 325 410 307 410 c 0
 286 410 263 393 240 357 c 1xe5
 240 0 l 1
 42 0 l 1
 42 534 l 1
 215 534 l 1xd5
 229 479 l 1
 278 531 327 554 391 554 c 0xcd
286 -62 m 0xca
 339 -62 378 -101 378 -153 c 0
 378 -184 368 -206 351 -241 c 2
 301 -342 l 1
 207 -342 l 1
 232 -228 l 1
 210 -211 194 -187 194 -153 c 0
 194 -104 233 -62 286 -62 c 0xca
EndSplineSet
Substitution2: "'smcp' Lowercase to Small Capitals lookup 24 subtable" ncommaaccent.sc
Substitution2: "'aalt' Access All Alternates lookup 0 subtable" ncommaaccent.sc
EndChar

StartChar: Ncaron
Encoding: 327 327 67
Width: 651
GlyphClass: 2
Flags: MW
HStem: 0 21G<43 225 43 43 350 608 350 350> 676 20G<43 296 296 296 426 608 608 608>
VStem: 43 182<0 216 0 696> 426 182<473 696>
AnchorPoint: "Anchor-11" 326 0 basechar 0
AnchorPoint: "Anchor-10" 0 0 basechar 0
AnchorPoint: "Anchor-9" 326 696 basechar 0
AnchorPoint: "Anchor-8" 0 0 basechar 0
LayerCount: 2
Fore
SplineSet
530 888 m 1
 385 747 l 1
 267 747 l 1
 122 888 l 1
 189 965 l 1
 326 879 l 1
 463 965 l 1
 530 888 l 1
608 0 m 1
 350 0 l 1
 198 508 l 1
 208 441 225 345 225 216 c 2
 225 0 l 1
 43 0 l 1
 43 696 l 1
 296 696 l 1
 454 186 l 1
 441 267 426 347 426 473 c 2
 426 696 l 1
 608 696 l 1
 608 0 l 1
EndSplineSet
Substitution2: "'c2sc' Capitals to Small Capitals lookup 23 subtable" ncaron.sc
Substitution2: "'aalt' Access All Alternates lookup 0 subtable" ncaron.sc
Position2: "'cpsp' Capital Spacing lookup 0 subtable" dx=5 dy=0 dh=10 dv=0
EndChar
StartChar: ncaron
Encoding: 328 328 540
Width: 572
GlyphClass: 2
Flags: MW
HStem: 0 21G<42 240 42 42 337 535 337 337> 410 124<42 316> 514 20G<42 215 215 215> 534 20G 733 20G<87 87 495 495>
VStem: 42 198<0 357 0 534 0 534> 337 198<0 358 358 379>
AnchorPoint: "Anchor-14" 0 0 basechar 0
AnchorPoint: "Anchor-13" 0 0 basechar 0
AnchorPoint: "Anchor-12" 293 830 basechar 0
AnchorPoint: "Anchor-11" 0 0 basechar 0
AnchorPoint: "Anchor-10" 286 0 basechar 0
LayerCount: 2
Back
Fore
SplineSet
350 602 m 1x9e
 232 602 l 1
 87 753 l 1
 154 830 l 1
 291 734 l 1
 428 830 l 1
 495 753 l 1
 350 602 l 1x9e
391 554 m 0
 480 554 535 496 535 394 c 2
 535 0 l 1
 337 0 l 1
 337 358 l 2
 337 400 325 410 307 410 c 0
 286 410 263 393 240 357 c 1xce
 240 0 l 1
 42 0 l 1
 42 534 l 1
 215 534 l 1xae
 229 479 l 1
 278 531 327 554 391 554 c 0
EndSplineSet
Substitution2: "'smcp' Lowercase to Small Capitals lookup 27 subtable" ncaron.sc
Substitution2: "'aalt' Access All Alternates lookup 0 subtable" ncaron.sc
EndChar
StartChar: napostrophe
Encoding: 329 329 539
Width: 706
GlyphClass: 2
Flags: MW
HStem: 0 21G<176 374 176 176 471 669 471 471> 410 124<176 450> 514 20G<176 349 349 349> 534 20G 744 20G<80 124>
VStem: 25 154<676 709> 176 198<0 357 0 534 0 534> 471 198<0 358 358 379>
AnchorPoint: "Anchor-14" 0 0 basechar 0
AnchorPoint: "Anchor-13" 0 0 basechar 0
AnchorPoint: "Anchor-12" 425 534 basechar 0
AnchorPoint: "Anchor-11" 0 0 basechar 0
AnchorPoint: "Anchor-10" 420 0 basechar 0
LayerCount: 2
Back
Fore
SplineSet
102 764 m 0x9d
 146 764 179 732 179 689 c 0
 179 663 171 644 156 615 c 2
 115 535 l 1
 36 535 l 1
 57 626 l 1
 39 640 25 660 25 689 c 0
 25 729 58 764 102 764 c 0x9d
525 554 m 0
 614 554 669 496 669 394 c 2
 669 0 l 1
 471 0 l 1
 471 358 l 2
 471 400 459 410 441 410 c 0
 420 410 397 393 374 357 c 1xcb
 374 0 l 1
 176 0 l 1
 176 534 l 1
 349 534 l 1xab
 363 479 l 1
 412 531 461 554 525 554 c 0
EndSplineSet
Substitution2: "'smcp' Lowercase to Small Capitals lookup 27 subtable" napostrophe.sc
Ligature2: "'locl' Localized Forms in Latin lookup 11 subtable" quoteright n
Ligature2: "'locl' Localized Forms in Latin lookup 11 subtable" quotesingle n
Substitution2: "'aalt' Access All Alternates lookup 0 subtable" napostrophe.sc
EndChar

StartChar: Eng
Encoding: 330 330 69
Width: 651
GlyphClass: 2
Flags: MW
HStem: -227 21G<366 366> 0 21G<43 225 43 43 350 417 350 350> 498 198<193 197 193 193> 676 20G<43 296 296 296 426 608 608 608>
VStem: 43 182<0 216 0 696> 426 182<473 696>
AnchorPoint: "Anchor-11" 326 0 basechar 0
AnchorPoint: "Anchor-10" 0 0 basechar 0
AnchorPoint: "Anchor-9" 326 696 basechar 0
AnchorPoint: "Anchor-8" 0 0 basechar 0
LayerCount: 2
Fore
SplineSet
608 696 m 1xdc
 608 77 l 2
 608 -111 498 -184 366 -227 c 1
 305 -95 l 1
 367 -69 402 -48 417 0 c 1
 350 0 l 1
 197 498 l 1
 193 498 l 1xec
 207 441 225 345 225 216 c 2
 225 0 l 1
 43 0 l 1
 43 696 l 1
 296 696 l 1
 454 198 l 1
 458 198 l 1
 441 267 426 347 426 473 c 2
 426 696 l 1
 608 696 l 1xdc
EndSplineSet
Substitution2: "'c2sc' Capitals to Small Capitals lookup 23 subtable" eng.sc
Substitution2: "'aalt' Access All Alternates lookup 0 subtable" eng.sc
Position2: "'cpsp' Capital Spacing lookup 0 subtable" dx=5 dy=0 dh=10 dv=0
EndChar

StartChar: eng
Encoding: 331 331 206
Width: 572
GlyphClass: 2
Flags: MW
HStem: -227 21G<293 293> 0 21G<42 240 42 42> 410 124<42 316> 514 20G<42 215 215 215> 534 20G
VStem: 42 198<0 357 0 534 0 534> 337 198<65 77 77 358 358 379>
LayerCount: 2
Fore
SplineSet
391 554 m 0xce
 480 554 535 496 535 394 c 2
 535 77 l 2
 535 -111 425 -184 293 -227 c 1
 225 -83 l 1
 292 -52 337 -22 337 65 c 2
 337 358 l 2
 337 400 325 410 307 410 c 0
 286 410 263 393 240 357 c 1xe6
 240 0 l 1
 42 0 l 1
 42 534 l 1
 215 534 l 1xd6
 229 479 l 1
 278 531 327 554 391 554 c 0xce
EndSplineSet
Substitution2: "'smcp' Lowercase to Small Capitals lookup 24 subtable" eng.sc
Substitution2: "'aalt' Access All Alternates lookup 0 subtable" eng.sc
EndChar

StartChar: omacron
Encoding: 333 333 215
Width: 584
GlyphClass: 2
Flags: MW
HStem: -20 142<267 317 267 377> 412 142<267 317> 648 134<129 454 129 454>
VStem: 17 203<215 318.5 215 355> 129 325<648 782 648 782> 364 203<215.5 319>
AnchorPoint: "Anchor-11" 0 0 basechar 0
AnchorPoint: "Anchor-10" 0 0 basechar 0
AnchorPoint: "Anchor-9" 292 534 basechar 0
AnchorPoint: "Anchor-8" 0 0 basechar 0
LayerCount: 2
Fore
SplineSet
129 648 m 1xe8
 129 782 l 1
 454 782 l 1
 454 648 l 1
 129 648 l 1xe8
292 554 m 0xf4
 460 554 567 452 567 266 c 0
 567 92 462 -20 292 -20 c 0
 124 -20 17 82 17 268 c 0
 17 442 122 554 292 554 c 0xf4
292 412 m 0
 242 412 220 369 220 268 c 0
 220 162 242 122 292 122 c 0
 342 122 364 165 364 266 c 0
 364 372 342 412 292 412 c 0
EndSplineSet
Substitution2: "'smcp' Lowercase to Small Capitals lookup 24 subtable" omacron.sc
Substitution2: "'aalt' Access All Alternates lookup 0 subtable" omacron.sc
EndChar

StartChar: Obreve
Encoding: 334 334 73
Width: 690
GlyphClass: 2
Flags: MW
HStem: -20 146<306 385 306 449.5> 570 146<306 384> 746 134<322.5 367.5 322.5 405>
VStem: 20 214<268.5 429.5 268.5 462> 456 214<268.5 429.5>
AnchorPoint: "Anchor-11" 0 0 basechar 0
AnchorPoint: "Anchor-10" 103 696 basechar 0
AnchorPoint: "Anchor-9" 345 696 basechar 0
AnchorPoint: "Anchor-8" 0 0 basechar 0
LayerCount: 2
Fore
SplineSet
345 746 m 0
 225 746 168 840 160 932 c 1
 263 949 l 1
 274 912 300 880 345 880 c 0
 390 880 416 912 427 949 c 1
 530 932 l 1
 522 840 465 746 345 746 c 0
345 716 m 0xd8
 554 716 670 580 670 349 c 0
 670 123 554 -20 345 -20 c 0
 136 -20 20 118 20 349 c 0
 20 575 136 716 345 716 c 0xd8
345 570 m 0
 267 570 234 510 234 349 c 0
 234 188 267 126 345 126 c 0
 425 126 456 188 456 349 c 0
 456 510 423 570 345 570 c 0
EndSplineSet
Substitution2: "'c2sc' Capitals to Small Capitals lookup 23 subtable" obreve.sc
Substitution2: "'aalt' Access All Alternates lookup 0 subtable" obreve.sc
Position2: "'cpsp' Capital Spacing lookup 0 subtable" dx=5 dy=0 dh=10 dv=0
EndChar

StartChar: obreve
Encoding: 335 335 210
Width: 584
GlyphClass: 2
Flags: MW
HStem: -20 142<267 317 267 377> 412 142<267 317> 626 134<269.5 314.5 269.5 352>
VStem: 17 203<215 318.5 215 355> 364 203<215.5 319>
AnchorPoint: "Anchor-11" 0 0 basechar 0
AnchorPoint: "Anchor-10" 0 0 basechar 0
AnchorPoint: "Anchor-9" 292 534 basechar 0
AnchorPoint: "Anchor-8" 0 0 basechar 0
LayerCount: 2
Fore
SplineSet
292 626 m 0
 172 626 115 720 107 822 c 1
 210 839 l 1
 221 792 247 760 292 760 c 0
 337 760 363 792 374 839 c 1
 477 822 l 1
 469 720 412 626 292 626 c 0
292 554 m 0
 460 554 567 452 567 266 c 0
 567 92 462 -20 292 -20 c 0
 124 -20 17 82 17 268 c 0
 17 442 122 554 292 554 c 0
292 412 m 0
 242 412 220 369 220 268 c 0
 220 162 242 122 292 122 c 0
 342 122 364 165 364 266 c 0
 364 372 342 412 292 412 c 0
EndSplineSet
Substitution2: "'smcp' Lowercase to Small Capitals lookup 24 subtable" obreve.sc
Substitution2: "'aalt' Access All Alternates lookup 0 subtable" obreve.sc
EndChar

StartChar: Ohungarumlaut
Encoding: 336 336 77
Width: 690
GlyphClass: 2
Flags: MW
HStem: -20 146<306 385 306 449.5> 570 146<306 384>
VStem: 20 214<268.5 429.5 268.5 462> 456 214<268.5 429.5>
AnchorPoint: "Anchor-11" 0 0 basechar 0
AnchorPoint: "Anchor-10" 103 696 basechar 0
AnchorPoint: "Anchor-9" 345 696 basechar 0
AnchorPoint: "Anchor-8" 0 0 basechar 0
LayerCount: 2
Fore
SplineSet
421 947 m 1
 298 750 l 1
 200 789 l 1
 296 1003 l 1
 421 947 l 1
609 942 m 1
 478 746 l 1
 382 792 l 1
 486 1003 l 1
 609 942 l 1
345 716 m 0
 554 716 670 580 670 349 c 0
 670 123 554 -20 345 -20 c 0
 136 -20 20 118 20 349 c 0
 20 575 136 716 345 716 c 0
345 570 m 0
 267 570 234 510 234 349 c 0
 234 188 267 126 345 126 c 0
 425 126 456 188 456 349 c 0
 456 510 423 570 345 570 c 0
EndSplineSet
Substitution2: "'c2sc' Capitals to Small Capitals lookup 23 subtable" ohungarumlaut.sc
Substitution2: "'aalt' Access All Alternates lookup 0 subtable" ohungarumlaut.sc
Position2: "'cpsp' Capital Spacing lookup 0 subtable" dx=5 dy=0 dh=10 dv=0
EndChar
StartChar: OE
Encoding: 338 338 217
Width: 910
GlyphClass: 2
Flags: MW
HStem: -20 146<301 347> 0 126<301 885 301 434> 0 144<593 885 593 885> 284 139<645 645 645 841> 553 143<594 869 594 594> 570 126<301 890> 570 146<301 347.5 231.5 369>
VStem: 20 214<268.5 429.5 268.5 462> 436 208<423 423 423 429.5>
LayerCount: 2
Back
Fore
SplineSet
645 284 m 1x3980
 637 233 620 185 593 144 c 1
 885 144 l 1
 885 0 l 1
 434 0 l 1x3980
 403 -13 367 -20 327 -20 c 0
 136 -20 20 118 20 349 c 0
 20 575 136 716 327 716 c 0x9380
 368 716 406 709 438 696 c 1
 890 696 l 1
 869 553 l 1
 594 553 l 1
 620 514 636 470 644 423 c 1
 841 423 l 1
 841 284 l 1
 645 284 l 1x3980
335 126 m 0x5580
 405 126 436 188 436 349 c 0
 436 510 403 570 335 570 c 0
 267 570 234 510 234 349 c 0
 234 188 267 126 335 126 c 0x5580
EndSplineSet
Substitution2: "'c2sc' Capitals to Small Capitals lookup 26 subtable" oe.sc
Substitution2: "'aalt' Access All Alternates lookup 0 subtable" oe.sc
Position2: "'cpsp' Capital Spacing lookup 0 subtable" dx=5 dy=0 dh=10 dv=0
EndChar

StartChar: oe
Encoding: 339 339 219
Width: 902
GlyphClass: 2
Flags: MW
HStem: -20 142<266.5 315.5 266.5 327> 211 112<562 695 561 886 562 562> 412 142<266.5 315.5> 429 125<611 657.5>
VStem: 17 203<215 318.5 215 354> 362 199<215.5 323> 695 195<323 330 330 330>
AnchorPoint: "Anchor-11" 0 0 basechar 0
AnchorPoint: "Anchor-10" 0 0 basechar 0
AnchorPoint: "Anchor-9" 459 534 basechar 0
AnchorPoint: "Anchor-8" 0 0 basechar 0
LayerCount: 2
Fore
SplineSet
890 274 m 0xde
 890 257 888 230 886 211 c 1
 562 211 l 1
 573 134 611 120 669 120 c 0
 707 120 744 135 790 167 c 1
 870 59 l 1
 817 16 743 -20 650 -20 c 0
 568 -20 509 6 465 50 c 1
 421 4 363 -20 291 -20 c 0
 122 -20 17 82 17 268 c 0
 17 440 122 554 291 554 c 0
 360 554 418 529 463 486 c 1
 504 528 558 554 628 554 c 0
 786 554 890 453 890 274 c 0xde
695 323 m 1
 695 330 l 1
 694 384 683 429 632 429 c 0
 590 429 568 405 561 323 c 1
 695 323 l 1
291 122 m 0
 340 122 362 163 362 268 c 0
 362 369 340 412 291 412 c 0xee
 242 412 220 369 220 268 c 0
 220 162 242 122 291 122 c 0
EndSplineSet
Substitution2: "'smcp' Lowercase to Small Capitals lookup 24 subtable" oe.sc
Substitution2: "'aalt' Access All Alternates lookup 0 subtable" oe.sc
EndChar
StartChar: racute
Encoding: 341 341 608
Width: 410
GlyphClass: 2
Flags: MW
HStem: 0 21G<42 240 42 42> 359 175<42 348.5> 514 20G<42 215 215 215> 522 20G<420 420> 531 20G<336.5 376.5>
VStem: 42 198<0 243 0 534>
AnchorPoint: "Anchor-14" 0 0 basechar 0
AnchorPoint: "Anchor-13" 0 0 basechar 0
AnchorPoint: "Anchor-12" 231 856 basechar 0
AnchorPoint: "Anchor-11" 0 0 basechar 0
AnchorPoint: "Anchor-10" 141 0 basechar 0
LayerCount: 2
Back
Fore
SplineSet
373 712 m 1x8c
 122 613 l 1
 69 712 l 1
 299 856 l 1
 373 712 l 1x8c
366 551 m 0
 387 551 401 548 420 542 c 1x94
 389 351 l 1
 372 356 357 359 340 359 c 0xc4
 276 359 255 311 240 243 c 1
 240 0 l 1
 42 0 l 1
 42 534 l 1
 215 534 l 1xa4
 231 434 l 1
 253 504 307 551 366 551 c 0
EndSplineSet
Substitution2: "'smcp' Lowercase to Small Capitals lookup 27 subtable" racute.sc
Substitution2: "'aalt' Access All Alternates lookup 0 subtable" racute.sc
EndChar

StartChar: Rcommaaccent
Encoding: 342 342 89
Width: 624
GlyphClass: 2
Flags: MW
HStem: -228 21G<258 258> 0 21G<43 249 43 43 416 644 416 416> 248 138<249 287 249 303> 555 141<249 293 249 249>
VStem: 43 206<0 248 386 555> 220 184<-168.5 -128.5> 387 210<444.5 502.5>
AnchorPoint: "Anchor-11" 312 0 basechar 0
AnchorPoint: "Anchor-10" 0 0 basechar 0
AnchorPoint: "Anchor-9" 312 696 basechar 0
AnchorPoint: "Anchor-8" 0 0 basechar 0
LayerCount: 2
Fore
SplineSet
644 0 m 1xfa
 416 0 l 1
 287 248 l 1
 249 248 l 1
 249 0 l 1
 43 0 l 1
 43 696 l 1
 298 696 l 2
 497 696 597 628 597 475 c 0
 597 387 559 335 474 286 c 1
 644 0 l 1xfa
249 386 m 1
 303 386 l 2
 359 386 387 414 387 475 c 0
 387 530 354 555 293 555 c 2
 249 555 l 1
 249 386 l 1
312 -62 m 0xf4
 365 -62 404 -101 404 -153 c 0
 404 -184 394 -206 377 -241 c 2
 327 -342 l 1
 233 -342 l 1
 258 -228 l 1
 236 -211 220 -187 220 -153 c 0
 220 -104 259 -62 312 -62 c 0xf4
EndSplineSet
Substitution2: "'c2sc' Capitals to Small Capitals lookup 23 subtable" rcommaaccent.sc
Substitution2: "'aalt' Access All Alternates lookup 0 subtable" rcommaaccent.sc
Position2: "'cpsp' Capital Spacing lookup 0 subtable" dx=5 dy=0 dh=10 dv=0
EndChar
StartChar: rcommaaccent
Encoding: 343 343 611
Width: 410
GlyphClass: 2
Flags: MW
HStem: 0 21G<42 240 42 42> 359 175<42 348.5> 514 20G<42 215 215 215> 522 20G<420 420> 531 20G<336.5 376.5>
VStem: 42 198<0 243 0 534> 49 184<-168.5 -128.5>
AnchorPoint: "Anchor-14" 0 0 basechar 0
AnchorPoint: "Anchor-13" 0 0 basechar 0
AnchorPoint: "Anchor-12" 231 534 basechar 0
AnchorPoint: "Anchor-11" 0 0 basechar 0
AnchorPoint: "Anchor-10" 141 0 basechar 0
LayerCount: 2
Back
Fore
SplineSet
366 551 m 0x8c
 387 551 401 548 420 542 c 1x94
 389 351 l 1
 372 356 357 359 340 359 c 0xc4
 276 359 255 311 240 243 c 1
 240 0 l 1
 42 0 l 1
 42 534 l 1
 215 534 l 1xa4
 231 434 l 1
 253 504 307 551 366 551 c 0x8c
141 -62 m 0x8a
 195 -62 233 -101 233 -153 c 0
 233 -184 223 -206 206 -241 c 2
 156 -342 l 1
 62 -342 l 1
 87 -228 l 1
 65 -211 49 -187 49 -153 c 0
 49 -104 87 -62 141 -62 c 0x8a
EndSplineSet
Substitution2: "'smcp' Lowercase to Small Capitals lookup 27 subtable" rcommaaccent.sc
Substitution2: "'aalt' Access All Alternates lookup 0 subtable" rcommaaccent.sc
EndChar

StartChar: Rcaron
Encoding: 344 344 88
Width: 624
GlyphClass: 2
Flags: MW
HStem: 0 21G<43 249 43 43 416 416 416 644> 248 138<249 287 249 303> 555 141<249 293 249 249>
VStem: 43 206<0 248 386 555> 387 210<444.5 502.5>
AnchorPoint: "Anchor-11" 312 0 basechar 0
AnchorPoint: "Anchor-10" 0 0 basechar 0
AnchorPoint: "Anchor-9" 312 696 basechar 0
AnchorPoint: "Anchor-8" 0 0 basechar 0
LayerCount: 2
Fore
SplineSet
253 747 m 1
 108 888 l 1
 175 965 l 1
 312 879 l 1
 449 965 l 1
 516 888 l 1
 371 747 l 1
 253 747 l 1
287 248 m 1
 249 248 l 1
 249 0 l 1
 43 0 l 1
 43 696 l 1
 298 696 l 2
 497 696 597 628 597 475 c 0
 597 387 559 335 474 286 c 1
 644 0 l 1
 416 0 l 1
 287 248 l 1
249 386 m 1
 303 386 l 2
 359 386 387 414 387 475 c 0
 387 530 354 555 293 555 c 2
 249 555 l 1
 249 386 l 1
EndSplineSet
Substitution2: "'c2sc' Capitals to Small Capitals lookup 23 subtable" rcaron.sc
Substitution2: "'aalt' Access All Alternates lookup 0 subtable" rcaron.sc
Position2: "'cpsp' Capital Spacing lookup 0 subtable" dx=5 dy=0 dh=10 dv=0
EndChar

StartChar: rcaron
Encoding: 345 345 225
Width: 410
GlyphClass: 2
Flags: MW
HStem: 0 21G<42 240 42 42> 359 175<42 348.5> 514 20G<42 215 215 215> 522 20G<420 420> 531 20G<336.5 376.5> 733 20G<27 27 435 435>
VStem: 42 198<0 243 0 534>
AnchorPoint: "Anchor-11" 141 0 basechar 0
AnchorPoint: "Anchor-10" 0 0 basechar 0
AnchorPoint: "Anchor-9" 231 534 basechar 0
AnchorPoint: "Anchor-8" 0 0 basechar 0
LayerCount: 2
Fore
SplineSet
172 602 m 1x8e
 27 753 l 1
 94 830 l 1
 231 734 l 1
 368 830 l 1
 435 753 l 1
 290 602 l 1
 172 602 l 1x8e
231 434 m 1
 253 504 307 551 366 551 c 0x8e
 387 551 401 548 420 542 c 1x96
 389 351 l 1
 372 356 357 359 340 359 c 0xc6
 276 359 255 311 240 243 c 1
 240 0 l 1
 42 0 l 1
 42 534 l 1
 215 534 l 1xa6
 231 434 l 1
EndSplineSet
Substitution2: "'smcp' Lowercase to Small Capitals lookup 24 subtable" rcaron.sc
Substitution2: "'aalt' Access All Alternates lookup 0 subtable" rcaron.sc
EndChar

StartChar: Sacute
Encoding: 346 346 91
Width: 588
GlyphClass: 2
Flags: MW
HStem: -20 148<239.5 302 239.5 371.5> 570 146<291 343.5>
VStem: 29 212<502 535.5 502 569> 359 214<173 211.5>
AnchorPoint: "Anchor-11" 293 0 basechar 0
AnchorPoint: "Anchor-10" 0 0 basechar 0
AnchorPoint: "Anchor-9" 307 696 basechar 0
AnchorPoint: "Anchor-8" 0 0 basechar 0
LayerCount: 2
Fore
SplineSet
454 840 m 1
 200 749 l 1
 150 848 l 1
 381 984 l 1
 454 840 l 1
299 716 m 0
 411 716 493 682 556 621 c 1
 465 514 l 1
 419 551 371 570 316 570 c 0
 266 570 241 551 241 520 c 0
 241 484 267 473 366 441 c 0
 509 395 573 333 573 208 c 0
 573 74 463 -20 280 -20 c 0
 147 -20 57 30 0 85 c 1
 101 196 l 1
 151 153 207 128 272 128 c 0
 332 128 359 155 359 191 c 0
 359 232 337 250 246 278 c 0
 78 331 29 402 29 503 c 0
 29 635 145 716 299 716 c 0
EndSplineSet
Substitution2: "'c2sc' Capitals to Small Capitals lookup 23 subtable" sacute.sc
Substitution2: "'locl' Localized Forms in Latin lookup 7 subtable" Sacute.loclPLK
AlternateSubs2: "'aalt' Access All Alternates lookup 1 subtable" Sacute.loclPLK sacute.sc
Position2: "'cpsp' Capital Spacing lookup 0 subtable" dx=5 dy=0 dh=10 dv=0
EndChar

StartChar: sacute
Encoding: 347 347 228
Width: 493
GlyphClass: 2
Flags: MW
HStem: -20 136<199.5 241.5 199.5 304> 417 137<251.5 289.5>
VStem: 23 196<384 400 384 429> 281 202<138 162>
AnchorPoint: "Anchor-11" 246 0 basechar 0
AnchorPoint: "Anchor-10" 0 0 basechar 0
AnchorPoint: "Anchor-9" 251 534 basechar 0
AnchorPoint: "Anchor-8" 0 0 basechar 0
LayerCount: 2
Fore
SplineSet
393 712 m 1
 142 613 l 1
 89 712 l 1
 319 856 l 1
 393 712 l 1
256 554 m 0
 335 554 412 527 461 485 c 1
 391 378 l 1
 353 402 307 417 272 417 c 0
 231 417 219 407 219 393 c 0
 219 375 225 367 326 336 c 0
 427 305 483 261 483 164 c 0
 483 54 378 -20 230 -20 c 0
 136 -20 50 13 -5 65 c 1
 89 169 l 1
 127 139 176 116 223 116 c 0
 260 116 281 127 281 149 c 0
 281 175 270 180 178 208 c 0
 78 238 23 295 23 381 c 0
 23 477 106 554 256 554 c 0
EndSplineSet
Substitution2: "'smcp' Lowercase to Small Capitals lookup 24 subtable" sacute.sc
Substitution2: "'locl' Localized Forms in Latin lookup 7 subtable" sacute.loclPLK
AlternateSubs2: "'aalt' Access All Alternates lookup 1 subtable" sacute.loclPLK sacute.sc
EndChar

StartChar: Scedilla
Encoding: 350 350 93
Width: 588
GlyphClass: 2
Flags: MW
HStem: -275 102<262 284 258 340.5> -18 21G<234 234> -16 21G<342 342> 570 146<291 343.5>
VStem: 29 212<502 535.5 502 569> 315 137<-158 -138> 359 214<173 211.5>
AnchorPoint: "Anchor-11" 293 0 basechar 0
AnchorPoint: "Anchor-10" 0 0 basechar 0
AnchorPoint: "Anchor-9" 307 696 basechar 0
AnchorPoint: "Anchor-8" 0 0 basechar 0
LayerCount: 2
Fore
SplineSet
573 208 m 0xba
 573 90 488 3 342 -16 c 1
 342 -43 l 1xbc
 415 -52 452 -89 452 -151 c 0
 452 -220 393 -275 288 -275 c 0
 236 -275 191 -259 163 -241 c 1
 206 -155 l 1
 226 -166 246 -173 270 -173 c 0
 298 -173 315 -167 315 -149 c 0
 315 -127 286 -120 221 -120 c 1
 234 -18 l 1xdc
 126 -8 50 37 0 85 c 1
 101 196 l 1
 151 153 207 128 272 128 c 0
 332 128 359 155 359 191 c 0
 359 232 337 250 246 278 c 0
 78 331 29 402 29 503 c 0
 29 635 145 716 299 716 c 0
 411 716 493 682 556 621 c 1
 465 514 l 1
 419 551 371 570 316 570 c 0
 266 570 241 551 241 520 c 0
 241 484 267 473 366 441 c 0
 509 395 573 333 573 208 c 0xba
EndSplineSet
Substitution2: "'c2sc' Capitals to Small Capitals lookup 23 subtable" scedilla.sc
Substitution2: "'locl' Localized Forms in Latin lookup 5 subtable" Scommaaccent
Substitution2: "'locl' Localized Forms in Latin lookup 4 subtable" Scommaaccent
AlternateSubs2: "'aalt' Access All Alternates lookup 1 subtable" Scommaaccent scedilla.sc
Position2: "'cpsp' Capital Spacing lookup 0 subtable" dx=5 dy=0 dh=10 dv=0
EndChar
StartChar: scedilla
Encoding: 351 351 628
Width: 493
GlyphClass: 2
Flags: MW
HStem: -275 102<222 244 218 300.5> -18 21G<194 194> -14 21G<302 302> 417 137<247.5 285.5>
VStem: 23 196<384 400 384 429> 275 137<-158 -138> 281 202<138 162>
AnchorPoint: "Anchor-14" 0 0 basechar 0
AnchorPoint: "Anchor-13" 0 0 basechar 0
AnchorPoint: "Anchor-12" 251 534 basechar 0
AnchorPoint: "Anchor-11" 0 0 basechar 0
AnchorPoint: "Anchor-10" 270 -275 basechar 0
LayerCount: 2
Back
Fore
SplineSet
483 164 m 0xda
 483 73 411 6 302 -14 c 1
 302 -43 l 1xbc
 375 -52 412 -89 412 -151 c 0
 412 -220 353 -275 248 -275 c 0
 196 -275 151 -259 123 -241 c 1
 166 -155 l 1
 186 -166 206 -173 230 -173 c 0
 258 -173 275 -167 275 -149 c 0
 275 -127 246 -120 181 -120 c 1
 194 -18 l 1xdc
 114 -11 43 20 -5 65 c 1
 89 169 l 1
 127 139 176 116 225 116 c 0
 260 116 281 127 281 149 c 0
 281 175 270 180 178 208 c 0
 78 238 23 295 23 381 c 0
 23 477 106 554 256 554 c 0
 335 554 412 527 461 485 c 1
 391 378 l 1
 353 402 307 417 264 417 c 0
 231 417 219 407 219 393 c 0
 219 375 225 367 326 336 c 0
 427 305 483 261 483 164 c 0xda
EndSplineSet
Substitution2: "'smcp' Lowercase to Small Capitals lookup 27 subtable" scedilla.sc
Substitution2: "'locl' Localized Forms in Latin lookup 5 subtable" scommaaccent
Substitution2: "'locl' Localized Forms in Latin lookup 4 subtable" scommaaccent
AlternateSubs2: "'aalt' Access All Alternates lookup 1 subtable" scommaaccent scedilla.sc
EndChar
StartChar: scaron
Encoding: 353 353 627
Width: 493
GlyphClass: 2
Flags: MW
HStem: -20 136<200.5 242.5 200.5 304> 417 137<247.5 285.5> 733 20G<47 47 455 455>
VStem: -5 488<65 212.5> 23 196<384 400 384 429> 281 202<138 162>
AnchorPoint: "Anchor-14" 0 0 basechar 0
AnchorPoint: "Anchor-13" 0 0 basechar 0
AnchorPoint: "Anchor-12" 253 830 basechar 0
AnchorPoint: "Anchor-11" 0 0 basechar 0
AnchorPoint: "Anchor-10" 246 0 basechar 0
LayerCount: 2
Back
Fore
SplineSet
388 830 m 1xf0
 455 753 l 1
 310 602 l 1
 192 602 l 1
 47 753 l 1
 114 830 l 1
 251 734 l 1
 388 830 l 1xf0
256 554 m 0
 335 554 412 527 461 485 c 1
 391 378 l 1
 353 402 307 417 264 417 c 0
 231 417 219 407 219 393 c 0
 219 375 225 367 326 336 c 0
 427 305 483 261 483 164 c 0
 483 54 378 -20 230 -20 c 0
 136 -20 50 13 -5 65 c 1
 89 169 l 1
 127 139 176 116 225 116 c 0
 260 116 281 127 281 149 c 0
 281 175 270 180 178 208 c 0
 78 238 23 295 23 381 c 0xec
 23 477 106 554 256 554 c 0
EndSplineSet
Substitution2: "'smcp' Lowercase to Small Capitals lookup 27 subtable" scaron.sc
Substitution2: "'aalt' Access All Alternates lookup 0 subtable" scaron.sc
EndChar
StartChar: uni0162
Encoding: 354 354 250
Width: 554
GlyphClass: 2
Flags: MW
HStem: -275 102<300 321 295 378.5> 0 21G<174 274 174 174> 542 154<5 174 5 559 380 380 380 538>
VStem: 174 206<0 542> 353 137<-157.5 -137.5>
AnchorPoint: "Anchor-14" 277 348 basechar 0
AnchorPoint: "Anchor-13" 0 0 basechar 0
AnchorPoint: "Anchor-12" 277 696 basechar 0
AnchorPoint: "Anchor-11" 0 0 basechar 0
AnchorPoint: "Anchor-10" 277 0 basechar 0
LayerCount: 2
Back
Fore
SplineSet
380 -43 m 1xf0
 453 -52 490 -89 490 -151 c 0
 490 -220 431 -275 326 -275 c 0
 274 -275 228 -258 201 -241 c 1
 244 -155 l 1
 264 -166 284 -173 306 -173 c 0
 336 -173 353 -167 353 -148 c 0
 353 -127 324 -120 259 -120 c 1
 274 0 l 1xe8
 174 0 l 1
 174 542 l 1
 5 542 l 1
 5 696 l 1
 559 696 l 1
 538 542 l 1
 380 542 l 1
 380 -43 l 1xf0
EndSplineSet
Substitution2: "'c2sc' Capitals to Small Capitals lookup 26 subtable" uni0163.sc
Substitution2: "'locl' Localized Forms in Latin lookup 5 subtable" uni021A
Substitution2: "'locl' Localized Forms in Latin lookup 4 subtable" uni021A
AlternateSubs2: "'aalt' Access All Alternates lookup 1 subtable" uni021A uni0163.sc
Position2: "'cpsp' Capital Spacing lookup 0 subtable" dx=5 dy=0 dh=10 dv=0
EndChar
StartChar: uni0163
Encoding: 355 355 642
Width: 401
GlyphClass: 2
Flags: MW
HStem: -275 102<210 232 206 288.5> -18 21G<290 290> -10 21G<183 183> 400 134<-2 62 -2 62 260 360>
VStem: 62 198<197 199 199 400 534 646 646 646> 263 137<-158 -138>
AnchorPoint: "Anchor-14" 198 267 basechar 0
AnchorPoint: "Anchor-13" 253 799 basechar 0
AnchorPoint: "Anchor-12" 161 646 basechar 0
AnchorPoint: "Anchor-11" 0 0 basechar 0
AnchorPoint: "Anchor-10" 258 -275 basechar 0
LayerCount: 2
Back
Fore
SplineSet
290 -43 m 1xd4
 363 -52 400 -89 400 -151 c 0
 400 -220 341 -275 236 -275 c 0
 184 -275 139 -259 111 -241 c 1
 154 -155 l 1
 174 -166 194 -173 218 -173 c 0
 246 -173 263 -167 263 -149 c 0
 263 -127 234 -120 169 -120 c 1xb4
 183 -10 l 1
 100 15 62 85 62 197 c 2
 62 400 l 1
 -2 400 l 1
 -2 534 l 1
 62 534 l 1
 62 646 l 1
 260 669 l 1
 260 534 l 1
 380 534 l 1
 360 400 l 1
 260 400 l 1
 260 199 l 2
 260 149 277 135 302 135 c 0
 317 135 334 139 352 149 c 1xb8
 416 26 l 1
 381 2 333 -13 290 -18 c 1
 290 -43 l 1xd4
EndSplineSet
Substitution2: "'smcp' Lowercase to Small Capitals lookup 27 subtable" uni0163.sc
Substitution2: "'locl' Localized Forms in Latin lookup 5 subtable" uni021B
Substitution2: "'locl' Localized Forms in Latin lookup 4 subtable" uni021B
AlternateSubs2: "'aalt' Access All Alternates lookup 1 subtable" uni021B uni0163.sc
EndChar
StartChar: Tcaron
Encoding: 356 356 249
Width: 554
GlyphClass: 2
Flags: MW
HStem: 0 21G<174 380 174 174> 542 154<5 174 5 559 380 538 380 380>
VStem: 174 206<0 542 0 542>
AnchorPoint: "Anchor-14" 277 348 basechar 0
AnchorPoint: "Anchor-13" 0 0 basechar 0
AnchorPoint: "Anchor-12" 279 965 basechar 0
AnchorPoint: "Anchor-11" 0 0 basechar 0
AnchorPoint: "Anchor-10" 277 0 basechar 0
LayerCount: 2
Back
Fore
SplineSet
414 965 m 1
 481 888 l 1
 336 747 l 1
 218 747 l 1
 73 888 l 1
 140 965 l 1
 277 879 l 1
 414 965 l 1
559 696 m 1
 538 542 l 1
 380 542 l 1
 380 0 l 1
 174 0 l 1
 174 542 l 1
 5 542 l 1
 5 696 l 1
 559 696 l 1
EndSplineSet
Substitution2: "'c2sc' Capitals to Small Capitals lookup 26 subtable" tcaron.sc
Substitution2: "'aalt' Access All Alternates lookup 0 subtable" tcaron.sc
Position2: "'cpsp' Capital Spacing lookup 0 subtable" dx=5 dy=0 dh=10 dv=0
EndChar
StartChar: tcaron
Encoding: 357 357 640
Width: 401
GlyphClass: 2
Flags: MW
HStem: -20 21G<256 281> -20 155<256 309.5> 400 134<-2 62 -2 62 260 360> 560 20G<277 277>
VStem: 62 198<197 199 199 400 534 646 646 646>
AnchorPoint: "Anchor-14" 198 267 basechar 0
AnchorPoint: "Anchor-13" 253 799 basechar 0
AnchorPoint: "Anchor-12" 161 646 basechar 0
AnchorPoint: "Anchor-11" 0 0 basechar 0
AnchorPoint: "Anchor-10" 234 0 basechar 0
LayerCount: 2
Back
Fore
SplineSet
443 798 m 1xb8
 385 564 l 1
 277 580 l 1
 302 819 l 1
 443 798 l 1xb8
302 135 m 0x78
 317 135 334 139 352 149 c 1
 416 26 l 1
 372 -5 306 -20 256 -20 c 0
 122 -19 62 56 62 197 c 2
 62 400 l 1
 -2 400 l 1
 -2 534 l 1
 62 534 l 1
 62 646 l 1
 260 669 l 1
 260 534 l 1
 380 534 l 1
 360 400 l 1
 260 400 l 1
 260 199 l 2
 260 149 277 135 302 135 c 0x78
EndSplineSet
Substitution2: "'smcp' Lowercase to Small Capitals lookup 27 subtable" tcaron.sc
Substitution2: "'aalt' Access All Alternates lookup 0 subtable" tcaron.sc
EndChar
StartChar: Tbar
Encoding: 358 358 248
Width: 554
GlyphClass: 2
Flags: MW
HStem: 0 21G<174 380 174 174> 285 106<64 174 64 174 380 489> 542 154<5 174 5 559 380 538 380 380>
VStem: 174 206<0 285 0 285 391 542>
AnchorPoint: "Anchor-14" 277 348 basechar 0
AnchorPoint: "Anchor-13" 0 0 basechar 0
AnchorPoint: "Anchor-12" 277 696 basechar 0
AnchorPoint: "Anchor-11" 0 0 basechar 0
AnchorPoint: "Anchor-10" 277 0 basechar 0
LayerCount: 2
Back
Fore
SplineSet
538 542 m 1
 380 542 l 1
 380 391 l 1
 489 391 l 1
 489 285 l 1
 380 285 l 1
 380 0 l 1
 174 0 l 1
 174 285 l 1
 64 285 l 1
 64 391 l 1
 174 391 l 1
 174 542 l 1
 5 542 l 1
 5 696 l 1
 559 696 l 1
 538 542 l 1
EndSplineSet
Substitution2: "'c2sc' Capitals to Small Capitals lookup 26 subtable" tbar.sc
Substitution2: "'aalt' Access All Alternates lookup 0 subtable" tbar.sc
Position2: "'cpsp' Capital Spacing lookup 0 subtable" dx=5 dy=0 dh=10 dv=0
EndChar
StartChar: tbar
Encoding: 359 359 639
Width: 401
GlyphClass: 2
Flags: MW
HStem: -20 155<256 309.5> 240 124<5 62 5 62 260 360> 400 134<-2 62 -2 62 260 360>
VStem: 62 198<197 199 199 240 174 240 364 400 534 646 646 646>
AnchorPoint: "Anchor-14" 198 267 basechar 0
AnchorPoint: "Anchor-13" 253 799 basechar 0
AnchorPoint: "Anchor-12" 161 646 basechar 0
AnchorPoint: "Anchor-11" 0 0 basechar 0
AnchorPoint: "Anchor-10" 234 0 basechar 0
LayerCount: 2
Back
Fore
SplineSet
352 149 m 1
 416 26 l 1
 372 -5 306 -20 256 -20 c 0
 122 -19 62 56 62 197 c 2
 62 240 l 1
 5 240 l 1
 5 364 l 1
 62 364 l 1
 62 400 l 1
 -2 400 l 1
 -2 534 l 1
 62 534 l 1
 62 646 l 1
 260 669 l 1
 260 534 l 1
 380 534 l 1
 360 400 l 1
 260 400 l 1
 260 364 l 1
 360 364 l 1
 360 240 l 1
 260 240 l 1
 260 199 l 2
 260 149 277 135 302 135 c 0
 317 135 334 139 352 149 c 1
EndSplineSet
Substitution2: "'smcp' Lowercase to Small Capitals lookup 27 subtable" tbar.sc
Substitution2: "'aalt' Access All Alternates lookup 0 subtable" tbar.sc
EndChar

StartChar: Utilde
Encoding: 360 360 111
Width: 644
GlyphClass: 2
Flags: MW
HStem: -20 148<292 352 292 420> 676 20G<33 239 239 239 405 611 611 611> 748 138<362.5 390 362.5 415.5> 791 138<254.5 282.5>
VStem: 33 206<236 242 242 696> 405 206<242 696>
AnchorPoint: "Anchor-11" 0 0 basechar 0
AnchorPoint: "Anchor-10" 0 0 basechar 0
AnchorPoint: "Anchor-9" 322 696 basechar 0
AnchorPoint: "Anchor-8" 460 0 basechar 0
LayerCount: 2
Fore
SplineSet
383 748 m 0xec
 316 748 298 791 267 791 c 0
 242 791 230 776 214 748 c 1
 121 793 l 1
 147 866 196 929 262 929 c 0xdc
 329 929 347 886 378 886 c 0
 402 886 414 901 430 929 c 1
 523 884 l 1
 497 811 448 748 383 748 c 0xec
611 236 m 2xdc
 611 94 518 -20 322 -20 c 0
 126 -20 33 84 33 236 c 2
 33 696 l 1
 239 696 l 1
 239 242 l 2
 239 165 262 128 322 128 c 0
 382 128 405 165 405 242 c 2
 405 696 l 1
 611 696 l 1
 611 236 l 2xdc
EndSplineSet
Substitution2: "'c2sc' Capitals to Small Capitals lookup 23 subtable" utilde.sc
Substitution2: "'aalt' Access All Alternates lookup 0 subtable" utilde.sc
Position2: "'cpsp' Capital Spacing lookup 0 subtable" dx=5 dy=0 dh=10 dv=0
EndChar
StartChar: utilde
Encoding: 361 361 688
Width: 566
GlyphClass: 2
Flags: MW
HStem: -20 21G<134 219.5> 0 21G<351 524 351 351> 0 124<258.5 524 258.5 351> 514 20G<37 235 235 235 326 524 524 524> 622 138<321.5 349 321.5 373> 665 138<213.5 241.5>
VStem: 37 198<155 176 176 534> 326 198<168 534 0 534>
AnchorPoint: "Anchor-14" 0 0 basechar 0
AnchorPoint: "Anchor-13" 534 534 basechar 0
AnchorPoint: "Anchor-12" 281 760 basechar 0
AnchorPoint: "Anchor-11" 534 0 basechar 0
AnchorPoint: "Anchor-10" 281 0 basechar 0
LayerCount: 2
Back
Fore
SplineSet
339 622 m 0x5b
 278 622 257 665 226 665 c 0x57
 201 665 189 650 173 622 c 1x5b
 80 667 l 1x57
 106 740 155 803 221 803 c 0
 285 803 306 760 337 760 c 0
 361 760 373 775 389 803 c 1
 482 758 l 1
 456 685 407 622 339 622 c 0x5b
524 534 m 1
 524 0 l 1
 351 0 l 1x5b
 344 58 l 1
 307 6 253 -20 186 -20 c 0x9b
 82 -20 37 48 37 150 c 2
 37 534 l 1
 235 534 l 1
 235 176 l 2
 235 134 249 124 268 124 c 0
 286 124 308 137 326 168 c 1x3b
 326 534 l 1
 524 534 l 1
EndSplineSet
Substitution2: "'smcp' Lowercase to Small Capitals lookup 27 subtable" utilde.sc
Substitution2: "'aalt' Access All Alternates lookup 0 subtable" utilde.sc
EndChar

StartChar: Ubreve
Encoding: 364 364 103
Width: 644
GlyphClass: 2
Flags: MW
HStem: -20 148<292 352 292 420> 676 20G<33 239 239 239 405 611 611 611> 746 134<299.5 344.5 299.5 382>
VStem: 33 206<236 242 242 696> 405 206<242 696>
AnchorPoint: "Anchor-11" 0 0 basechar 0
AnchorPoint: "Anchor-10" 0 0 basechar 0
AnchorPoint: "Anchor-9" 322 696 basechar 0
AnchorPoint: "Anchor-8" 460 0 basechar 0
LayerCount: 2
Fore
SplineSet
322 746 m 0
 202 746 145 840 137 932 c 1
 240 949 l 1
 251 912 277 880 322 880 c 0
 367 880 393 912 404 949 c 1
 507 932 l 1
 499 840 442 746 322 746 c 0
611 236 m 2
 611 94 518 -20 322 -20 c 0
 126 -20 33 84 33 236 c 2
 33 696 l 1
 239 696 l 1
 239 242 l 2
 239 165 262 128 322 128 c 0
 382 128 405 165 405 242 c 2
 405 696 l 1
 611 696 l 1
 611 236 l 2
EndSplineSet
Substitution2: "'c2sc' Capitals to Small Capitals lookup 23 subtable" ubreve.sc
Substitution2: "'aalt' Access All Alternates lookup 0 subtable" ubreve.sc
Position2: "'cpsp' Capital Spacing lookup 0 subtable" dx=5 dy=0 dh=10 dv=0
EndChar
StartChar: ubreve
Encoding: 365 365 664
Width: 566
GlyphClass: 2
Flags: MW
HStem: -20 21G<134 219.5> 0 21G<351 524 351 351> 0 124<258.5 524 258.5 351> 514 20G<37 235 235 235 326 524 524 524> 626 134<258.5 303.5 258.5 341>
VStem: 37 198<155 176 176 534> 326 198<168 534 0 534>
AnchorPoint: "Anchor-14" 0 0 basechar 0
AnchorPoint: "Anchor-13" 534 534 basechar 0
AnchorPoint: "Anchor-12" 283 839 basechar 0
AnchorPoint: "Anchor-11" 534 0 basechar 0
AnchorPoint: "Anchor-10" 281 0 basechar 0
LayerCount: 2
Back
Fore
SplineSet
281 626 m 0x5e
 161 626 104 720 96 822 c 1
 199 839 l 1
 210 792 236 760 281 760 c 0
 326 760 352 792 363 839 c 1
 466 822 l 1
 458 720 401 626 281 626 c 0x5e
524 534 m 1
 524 0 l 1
 351 0 l 1x5e
 344 58 l 1
 307 6 253 -20 186 -20 c 0x9e
 82 -20 37 48 37 150 c 2
 37 534 l 1
 235 534 l 1
 235 176 l 2
 235 134 249 124 268 124 c 0
 286 124 308 137 326 168 c 1x3e
 326 534 l 1
 524 534 l 1
EndSplineSet
Substitution2: "'smcp' Lowercase to Small Capitals lookup 27 subtable" ubreve.sc
Substitution2: "'aalt' Access All Alternates lookup 0 subtable" ubreve.sc
EndChar

StartChar: Uring
Encoding: 366 366 110
Width: 644
GlyphClass: 2
Flags: MW
HStem: -20 148<292 352 292 420> 676 20G<33 239 239 239 405 611 611 611> 719 101<310.5 333.5 310.5 370.5> 912 100<310.5 333.5>
VStem: 33 206<236 242 242 696> 168 114<850 882 850 905> 362 114<850 882> 405 206<242 696>
AnchorPoint: "Anchor-11" 0 0 basechar 0
AnchorPoint: "Anchor-10" 0 0 basechar 0
AnchorPoint: "Anchor-9" 322 696 basechar 0
AnchorPoint: "Anchor-8" 460 0 basechar 0
LayerCount: 2
Fore
SplineSet
322 1012 m 0xf6
 419 1012 476 944 476 866 c 0
 476 788 419 719 322 719 c 0
 225 719 168 788 168 866 c 0
 168 944 225 1012 322 1012 c 0xf6
322 912 m 0
 299 912 282 898 282 866 c 0
 282 834 299 820 322 820 c 0
 345 820 362 834 362 866 c 0
 362 898 345 912 322 912 c 0
611 236 m 2xd9
 611 94 518 -20 322 -20 c 0
 126 -20 33 84 33 236 c 2
 33 696 l 1
 239 696 l 1
 239 242 l 2
 239 165 262 128 322 128 c 0
 382 128 405 165 405 242 c 2
 405 696 l 1
 611 696 l 1
 611 236 l 2xd9
EndSplineSet
Substitution2: "'c2sc' Capitals to Small Capitals lookup 23 subtable" uring.sc
Substitution2: "'aalt' Access All Alternates lookup 0 subtable" uring.sc
Position2: "'cpsp' Capital Spacing lookup 0 subtable" dx=5 dy=0 dh=10 dv=0
EndChar
StartChar: uring
Encoding: 367 367 687
Width: 566
GlyphClass: 2
Flags: MW
HStem: -20 21G<134 219.5> 0 21G<351 524 351 351> 0 124<258.5 524 258.5 351> 514 20G<37 235 235 235 326 524 524 524> 593 101<269.5 292.5 269.5 329.5> 786 100<269.5 292.5>
VStem: 37 198<155 176 176 534> 127 114<724 756 724 779> 321 114<724 756> 326 198<168 534 0 534>
AnchorPoint: "Anchor-14" 0 0 basechar 0
AnchorPoint: "Anchor-13" 534 534 basechar 0
AnchorPoint: "Anchor-12" 283 886 basechar 0
AnchorPoint: "Anchor-11" 534 0 basechar 0
AnchorPoint: "Anchor-10" 281 0 basechar 0
LayerCount: 2
Back
Fore
SplineSet
281 886 m 0x5d80
 378 886 435 818 435 740 c 0
 435 662 378 593 281 593 c 0
 184 593 127 662 127 740 c 0
 127 818 184 886 281 886 c 0x5d80
281 786 m 0
 258 786 241 772 241 740 c 0
 241 708 258 694 281 694 c 0
 304 694 321 708 321 740 c 0
 321 772 304 786 281 786 c 0
524 534 m 1x3e40
 524 0 l 1
 351 0 l 1x5e40
 344 58 l 1
 307 6 253 -20 186 -20 c 0x9e40
 82 -20 37 48 37 150 c 2
 37 534 l 1
 235 534 l 1
 235 176 l 2
 235 134 249 124 268 124 c 0
 286 124 308 137 326 168 c 1
 326 534 l 1
 524 534 l 1x3e40
EndSplineSet
Substitution2: "'smcp' Lowercase to Small Capitals lookup 27 subtable" uring.sc
Substitution2: "'aalt' Access All Alternates lookup 0 subtable" uring.sc
EndChar
StartChar: Uhungarumlaut
Encoding: 368 368 283
Width: 644
GlyphClass: 2
Flags: MW
HStem: -20 148<292 352 292 420> 676 20G<33 239 239 239 405 611 611 611>
VStem: 33 206<236 242 242 696> 405 206<242 696>
AnchorPoint: "Anchor-14" 0 0 basechar 0
AnchorPoint: "Anchor-13" 621 696 basechar 0
AnchorPoint: "Anchor-12" 322 696 basechar 0
AnchorPoint: "Anchor-11" 460 0 basechar 0
AnchorPoint: "Anchor-10" 322 0 basechar 0
LayerCount: 2
Back
Fore
SplineSet
273 1003 m 1
 398 947 l 1
 275 750 l 1
 177 789 l 1
 273 1003 l 1
463 1003 m 1
 586 942 l 1
 455 746 l 1
 359 792 l 1
 463 1003 l 1
611 696 m 1
 611 236 l 2
 611 94 518 -20 322 -20 c 0
 126 -20 33 84 33 236 c 2
 33 696 l 1
 239 696 l 1
 239 242 l 2
 239 165 262 128 322 128 c 0
 382 128 405 165 405 242 c 2
 405 696 l 1
 611 696 l 1
EndSplineSet
Substitution2: "'c2sc' Capitals to Small Capitals lookup 26 subtable" uhungarumlaut.sc
Substitution2: "'aalt' Access All Alternates lookup 0 subtable" uhungarumlaut.sc
Position2: "'cpsp' Capital Spacing lookup 0 subtable" dx=5 dy=0 dh=10 dv=0
EndChar
StartChar: Uogonek
Encoding: 370 370 286
Width: 644
GlyphClass: 2
Flags: MW
HStem: -254 115<370 374.5> -18 21G 676 20G<33 239 239 239 405 611 611 611>
VStem: 33 206<236 242 242 696> 201 134<-110 -102.5> 405 206<242 696>
AnchorPoint: "Anchor-14" 0 0 basechar 0
AnchorPoint: "Anchor-13" 621 696 basechar 0
AnchorPoint: "Anchor-12" 322 696 basechar 0
AnchorPoint: "Anchor-11" 460 0 basechar 0
AnchorPoint: "Anchor-10" 322 0 basechar 0
LayerCount: 2
Back
Fore
SplineSet
405 696 m 1xf4
 611 696 l 1
 611 236 l 2
 611 130 559 39 450 0 c 0
 354 -32 335 -71 335 -95 c 0
 335 -125 354 -139 386 -139 c 0
 405 -139 425 -136 447 -131 c 1
 435 -246 l 1
 413 -251 388 -254 361 -254 c 0
 271 -254 201 -208 201 -128 c 0xec
 201 -77 231 -41 276 -18 c 1
 111 -3 33 96 33 236 c 2
 33 696 l 1
 239 696 l 1
 239 242 l 2
 239 165 262 128 322 128 c 0
 382 128 405 165 405 242 c 2
 405 696 l 1xf4
EndSplineSet
Substitution2: "'c2sc' Capitals to Small Capitals lookup 26 subtable" uogonek.sc
Substitution2: "'aalt' Access All Alternates lookup 0 subtable" uogonek.sc
Position2: "'cpsp' Capital Spacing lookup 0 subtable" dx=5 dy=0 dh=10 dv=0
EndChar

StartChar: uogonek
Encoding: 371 371 247
Width: 566
GlyphClass: 2
Flags: MW
HStem: -254 115<444 448.5> -20 21G<134 219.5> -20 144<134 277> 0 21G<524 524> 514 20G<37 235 235 235 326 524 524 524>
VStem: 37 198<155 176 176 534> 275 134<-110 -99.5> 326 198<168 534>
AnchorPoint: "Anchor-11" 0 0 basechar 0
AnchorPoint: "Anchor-10" 0 0 basechar 0
AnchorPoint: "Anchor-9" 281 534 basechar 0
AnchorPoint: "Anchor-8" 534 0 basechar 0
LayerCount: 2
Fore
SplineSet
524 0 m 1x9d
 428 -32 409 -71 409 -95 c 0
 409 -125 428 -139 460 -139 c 0
 479 -139 499 -136 521 -131 c 1
 509 -246 l 1
 487 -251 462 -254 435 -254 c 0
 345 -254 275 -208 275 -128 c 0xce
 275 -71 304 -29 351 2 c 1xcd
 344 58 l 1
 307 6 253 -20 186 -20 c 0
 82 -20 37 48 37 150 c 2
 37 534 l 1
 235 534 l 1
 235 176 l 2
 235 134 249 124 268 124 c 0
 286 124 308 137 326 168 c 1xad
 326 534 l 1
 524 534 l 1
 524 0 l 1x9d
EndSplineSet
Substitution2: "'smcp' Lowercase to Small Capitals lookup 24 subtable" uogonek.sc
Substitution2: "'aalt' Access All Alternates lookup 0 subtable" uogonek.sc
EndChar
StartChar: Wcircumflex
Encoding: 372 372 296
Width: 859
GlyphClass: 2
Flags: MW
HStem: 0 149<250 250 250 359> 676 20G<0 206 206 206 324 539 539 539 661 859 859 859>
VStem: 0 859<696 696>
AnchorPoint: "Anchor-14" 0 0 basechar 0
AnchorPoint: "Anchor-13" 536 856 basechar 0
AnchorPoint: "Anchor-12" 432 970 basechar 0
AnchorPoint: "Anchor-11" 0 0 basechar 0
AnchorPoint: "Anchor-10" 0 0 basechar 0
LayerCount: 2
Back
Fore
SplineSet
569 752 m 1
 432 838 l 1
 295 752 l 1
 228 829 l 1
 373 970 l 1
 491 970 l 1
 636 829 l 1
 569 752 l 1
859 696 m 1
 758 0 l 1
 490 0 l 1
 428 500 l 1
 359 0 l 1
 97 0 l 1
 0 696 l 1
 206 696 l 1
 250 149 l 1
 324 696 l 1
 539 696 l 1
 601 149 l 1
 661 696 l 1
 859 696 l 1
EndSplineSet
Substitution2: "'c2sc' Capitals to Small Capitals lookup 26 subtable" wcircumflex.sc
Substitution2: "'aalt' Access All Alternates lookup 0 subtable" wcircumflex.sc
Position2: "'cpsp' Capital Spacing lookup 0 subtable" dx=5 dy=0 dh=10 dv=0
EndChar
StartChar: wcircumflex
Encoding: 373 373 696
Width: 768
GlyphClass: 2
Flags: MW
HStem: 0 21G<102 328 102 102 441 668 441 441> 0 151<227 227 227 328 102 227> 358 176<383 383> 514 20G<-5 195 195 195 297 482 482 482 583 773 773 773>
VStem: -5 778<534 534>
AnchorPoint: "Anchor-14" 0 0 basechar 0
AnchorPoint: "Anchor-13" 0 0 basechar 0
AnchorPoint: "Anchor-12" 386 840 basechar 0
AnchorPoint: "Anchor-11" 0 0 basechar 0
AnchorPoint: "Anchor-10" 385 0 basechar 0
LayerCount: 2
Back
Fore
SplineSet
247 612 m 1x98
 180 689 l 1
 325 840 l 1
 443 840 l 1
 588 689 l 1
 521 612 l 1
 384 708 l 1
 247 612 l 1x98
773 534 m 1
 668 0 l 1
 441 0 l 1
 383 358 l 1xa8
 328 0 l 1
 102 0 l 1
 -5 534 l 1
 195 534 l 1
 227 151 l 1
 297 534 l 1
 482 534 l 1
 538 151 l 1x58
 583 534 l 1
 773 534 l 1
EndSplineSet
Substitution2: "'smcp' Lowercase to Small Capitals lookup 27 subtable" wcircumflex.sc
Substitution2: "'aalt' Access All Alternates lookup 0 subtable" wcircumflex.sc
EndChar
StartChar: Ycircumflex
Encoding: 374 374 304
Width: 620
GlyphClass: 2
Flags: MW
HStem: 0 21G<207 413 207 207> 676 20G<-15 210 210 210 417 635 635 635>
VStem: 207 206<0 256 256 256>
AnchorPoint: "Anchor-14" 0 0 basechar 0
AnchorPoint: "Anchor-13" 414 856 basechar 0
AnchorPoint: "Anchor-12" 310 970 basechar 0
AnchorPoint: "Anchor-11" 0 0 basechar 0
AnchorPoint: "Anchor-10" 310 0 basechar 0
LayerCount: 2
Back
Fore
SplineSet
447 752 m 1
 310 838 l 1
 173 752 l 1
 106 829 l 1
 251 970 l 1
 369 970 l 1
 514 829 l 1
 447 752 l 1
635 696 m 1
 413 257 l 1
 413 0 l 1
 207 0 l 1
 207 256 l 1
 -15 696 l 1
 210 696 l 1
 313 412 l 1
 417 696 l 1
 635 696 l 1
EndSplineSet
Substitution2: "'c2sc' Capitals to Small Capitals lookup 26 subtable" ycircumflex.sc
Substitution2: "'aalt' Access All Alternates lookup 0 subtable" ycircumflex.sc
Position2: "'cpsp' Capital Spacing lookup 0 subtable" dx=5 dy=0 dh=10 dv=0
EndChar

StartChar: Ydieresis
Encoding: 376 376 122
Width: 620
GlyphClass: 2
Flags: MW
HStem: 0 21G<207 413 207 207> 676 20G<-15 210 210 210 417 635 635 635> 759 185<161 214 406 459>
VStem: 92 190<826 877.5> 207 206<0 256 256 256> 337 190<826 877.5>
AnchorPoint: "Anchor-11" 0 0 basechar 0
AnchorPoint: "Anchor-10" -10 696 basechar 0
AnchorPoint: "Anchor-9" 306 868 basechar 0
AnchorPoint: "Anchor-8" 0 0 basechar 0
LayerCount: 2
Fore
SplineSet
187 944 m 0xf4
 241 944 282 903 282 852 c 0
 282 800 241 759 187 759 c 0
 135 759 92 800 92 852 c 0
 92 903 135 944 187 944 c 0xf4
432 944 m 0
 486 944 527 903 527 852 c 0
 527 800 486 759 432 759 c 0
 380 759 337 800 337 852 c 0
 337 903 380 944 432 944 c 0
413 257 m 1xe8
 413 0 l 1
 207 0 l 1
 207 256 l 1
 -15 696 l 1
 210 696 l 1
 313 412 l 1
 417 696 l 1
 635 696 l 1
 413 257 l 1xe8
EndSplineSet
Substitution2: "'c2sc' Capitals to Small Capitals lookup 23 subtable" ydieresis.sc
Substitution2: "'aalt' Access All Alternates lookup 0 subtable" ydieresis.sc
Position2: "'cpsp' Capital Spacing lookup 0 subtable" dx=5 dy=0 dh=10 dv=0
EndChar

StartChar: Zacute
Encoding: 377 377 125
Width: 557
GlyphClass: 2
Flags: MW
HStem: 0 161<256 522> 540 156<38 296 38 533>
VStem: 10 532<0 161 151 161>
AnchorPoint: "Anchor-11" 0 0 basechar 0
AnchorPoint: "Anchor-10" 0 0 basechar 0
AnchorPoint: "Anchor-9" 279 696 basechar 0
AnchorPoint: "Anchor-8" 0 0 basechar 0
LayerCount: 2
Fore
SplineSet
426 840 m 1
 172 749 l 1
 122 848 l 1
 353 984 l 1
 426 840 l 1
533 543 m 1
 256 161 l 1
 542 161 l 1
 522 0 l 1
 10 0 l 1
 10 151 l 1
 296 540 l 1
 38 540 l 1
 38 696 l 1
 533 696 l 1
 533 543 l 1
EndSplineSet
Substitution2: "'c2sc' Capitals to Small Capitals lookup 23 subtable" zacute.sc
Substitution2: "'locl' Localized Forms in Latin lookup 7 subtable" Zacute.loclPLK
AlternateSubs2: "'aalt' Access All Alternates lookup 1 subtable" Zacute.loclPLK zacute.sc
Position2: "'cpsp' Capital Spacing lookup 0 subtable" dx=5 dy=0 dh=10 dv=0
EndChar
StartChar: zacute
Encoding: 378 378 717
Width: 472
GlyphClass: 2
Flags: MW
HStem: 0 146<236 445> 390 144<25 227 25 455>
VStem: 5 457<0 146 138 146>
AnchorPoint: "Anchor-14" 0 0 basechar 0
AnchorPoint: "Anchor-13" 0 0 basechar 0
AnchorPoint: "Anchor-12" 241 856 basechar 0
AnchorPoint: "Anchor-11" 0 0 basechar 0
AnchorPoint: "Anchor-10" 227 0 basechar 0
LayerCount: 2
Back
Fore
SplineSet
309 856 m 1
 383 712 l 1
 132 613 l 1
 79 712 l 1
 309 856 l 1
455 534 m 1
 455 397 l 1
 236 146 l 1
 462 146 l 1
 445 0 l 1
 5 0 l 1
 5 138 l 1
 227 390 l 1
 25 390 l 1
 25 534 l 1
 455 534 l 1
EndSplineSet
Substitution2: "'smcp' Lowercase to Small Capitals lookup 27 subtable" zacute.sc
Substitution2: "'locl' Localized Forms in Latin lookup 7 subtable" zacute.loclPLK
AlternateSubs2: "'aalt' Access All Alternates lookup 1 subtable" zacute.loclPLK zacute.sc
EndChar
